/* XPM */
static char *_a86a29519f6418fdd516544f53d5f47qL8Y5d9JAkxnMX5u[] = {
/* columns rows colors chars-per-pixel */
"64 64 243 2 ",
"   c #040101",
".  c #0B0100",
"X  c #0C0808",
"o  c #130000",
"O  c #1B0100",
"+  c #120B09",
"@  c #1C1512",
"#  c #11100C",
"$  c #230100",
"%  c #2C0000",
"&  c #250C05",
"*  c #330100",
"=  c #3B0100",
"-  c #3A0C00",
";  c #281409",
":  c #391707",
">  c #271A17",
",  c #351E17",
"<  c #362517",
"1  c #36250D",
"2  c #2A2828",
"3  c #362924",
"4  c #3C3837",
"5  c #33332F",
"6  c #4C0100",
"7  c #460700",
"8  c #540100",
"9  c #550900",
"0  c #481905",
"q  c #571802",
"w  c #401A11",
"e  c #670A00",
"r  c #641A02",
"t  c #781A01",
"y  c #5A240A",
"u  c #472518",
"i  c #582A18",
"p  c #4F2C13",
"a  c #6A290B",
"s  c #772606",
"d  c #683216",
"f  c #773719",
"g  c #6D2E10",
"h  c #4D2D27",
"j  c #56332A",
"k  c #463835",
"l  c #58352C",
"z  c #673826",
"x  c #783923",
"c  c #773D31",
"v  c #564636",
"b  c #78462B",
"n  c #6A4635",
"m  c #794834",
"M  c #704B35",
"N  c #7B4217",
"B  c #483B42",
"V  c #544E4A",
"C  c #665B55",
"Z  c #6F5649",
"A  c #726459",
"S  c #6D6866",
"D  c #7B7978",
"F  c #7A7069",
"G  c #831C00",
"H  c #862702",
"J  c #8B3507",
"K  c #953407",
"L  c #893918",
"P  c #973D16",
"I  c #972B00",
"U  c #A73808",
"Y  c #A93E11",
"T  c #B13D10",
"R  c #893E24",
"E  c #93431D",
"W  c #A7481E",
"Q  c #B84918",
"!  c #BE420E",
"~  c #894629",
"^  c #984827",
"/  c #964C34",
"(  c #8F5334",
")  c #A84A28",
"_  c #AC522A",
"`  c #B7572B",
"'  c #A54C32",
"]  c #AA5938",
"[  c #B95A35",
"{  c #B64C25",
"}  c #BB663B",
"|  c #AA603B",
" . c #C84C16",
".. c #D0531A",
"X. c #E65E1D",
"o. c #F05F1C",
"O. c #ED631D",
"+. c #E6621D",
"@. c #F2641D",
"#. c #F1651B",
"$. c #C85B2A",
"%. c #D55D26",
"&. c #C65E32",
"*. c #EA5E21",
"=. c #D9652B",
"-. c #C86737",
";. c #D86A37",
":. c #D26A32",
">. c #E46423",
",. c #EC6424",
"<. c #E3652C",
"1. c #EB652A",
"2. c #E36A2D",
"3. c #EB6A2B",
"4. c #EB6925",
"5. c #F26423",
"6. c #F26828",
"7. c #E36C34",
"8. c #EB6B33",
"9. c #E46C3A",
"0. c #E4743C",
"q. c #E97439",
"w. c #EC702F",
"e. c #925E49",
"r. c #A25C43",
"t. c #886448",
"y. c #936C54",
"u. c #A66947",
"i. c #B96743",
"p. c #B57147",
"a. c #B17456",
"s. c #847B79",
"d. c #947C72",
"f. c #8D7569",
"g. c #A67C68",
"h. c #C76C43",
"j. c #C87246",
"k. c #D97547",
"l. c #C87757",
"z. c #D87B54",
"x. c #D06D48",
"c. c #E37847",
"v. c #F17C4C",
"b. c #C67C62",
"n. c #84817C",
"m. c #8B867B",
"M. c #93827A",
"N. c #A88568",
"B. c #B78C71",
"V. c #BD815C",
"C. c #CB8959",
"Z. c #D58858",
"A. c #DA854E",
"S. c #F58C54",
"D. c #F08A52",
"F. c #C4876A",
"G. c #D9926A",
"H. c #CD936E",
"J. c #F79968",
"K. c #E79872",
"L. c #EB9366",
"P. c #DEA57B",
"I. c #E5A979",
"U. c #F9A978",
"Y. c #F6A972",
"T. c #7E7F83",
"R. c #827E83",
"E. c #827F88",
"W. c #7F8085",
"Q. c #828182",
"!. c #888588",
"~. c #979390",
"^. c #A6958F",
"/. c #A9A9A9",
"(. c #B8AAA9",
"). c #BABABC",
"_. c #B6B7B7",
"`. c #B2AFAE",
"'. c #A39E97",
"]. c #C8A287",
"[. c #C7AB95",
"{. c #D7B092",
"}. c #E9AC84",
"|. c #E8B48A",
" X c #F8B789",
".X c #EEB28F",
"XX c #C6BAB7",
"oX c #C3B4AB",
"OX c #FDC79B",
"+X c #F0C79C",
"@X c #C3C3BE",
"#X c #FBCEA7",
"$X c #FFD4A4",
"%X c #FFD6AB",
"&X c #FFDCAD",
"*X c #F7D1AA",
"=X c #FFDCB3",
"-X c #FFDDBC",
";X c #F0C8AC",
":X c #FFE2BB",
">X c #FFE3B7",
",X c #DAC09F",
"<X c #BBBCC2",
"1X c #C2BDC1",
"2X c #BFC2C1",
"3X c #CCCCCD",
"4X c #C6C6C8",
"5X c #D3CDCD",
"6X c #D5C8C5",
"7X c #CDD2CE",
"8X c #CBD6CE",
"9X c #D2D3CE",
"0X c #DAD3CD",
"qX c #CDCED2",
"wX c #C9CDD4",
"eX c #D2CED3",
"rX c #D2CFDA",
"tX c #CED3D4",
"yX c #CED4D9",
"uX c #CED8D4",
"iX c #D2D3D4",
"pX c #D9D4D4",
"aX c #D4D9D5",
"sX c #D3D4D9",
"dX c #D4D9DB",
"fX c #DADBDC",
"gX c #DAD7D8",
"hX c #E2DDDB",
"jX c #FFD8C1",
"kX c #DDE1DE",
"lX c #FEE7C6",
"zX c #E2E2DE",
"xX c #EEEBD8",
"cX c #FFF4D8",
"vX c #F1EBD1",
"bX c #DBDDE3",
"nX c #E2DEE3",
"mX c #DDE2E3",
"MX c #E2E2E3",
"NX c #E9E7E8",
"BX c #FFF7E8",
"VX c #FCFBF8",
"CX c #F8ECE6",
/* pixels */
"iXiXiXiXiXiXtXtXiXiXdXgXiXaXyXtXiXiXiXiXiXiXiXiXdXsXiXiXsXsXiXiXiXiXiXiXiXiXiXiXiXiXiXiXiXiXiXiXiX3X4X4X3XiXiXiXiXiXiXiXiXiXiXiX",
"iXiXiXiXiXiXiXiXsXiXfXgXiX7XtXsXiXiXiXiXiXiXiXiXiXiXdXiXiXtXiXiXiXiXiXiXiXiXiXiXiXiXiXiXiXiXiXiXiXiXiXiXiXiXiXiXiXiXiXiXiXiXiXiX",
"iXiXiXtXtXtXiXiXfXsXdXiXiXiXsXsXiXiXiXiXsXsXiXiXiXiXpXiXiXtXtXiXiXiXiXiXiXiXiXiXiXiXiXiXiXiXiXiXiXiXiXiXiXiXiXiXiXiXiXiXiXiXiXiX",
"iXiXiXyXyXiXiXiXdXsXiXiXiXiXiXsXsXiXiXiXiXiXyXtXiXiXgX9XiXiXiXtXiXiXiXiXiXiXiXiXiXiXiXiXiXiXiXiXiXiXiXiXiXiXiXiXiXiXiXiXiXiXiXiX",
"pXiXiXsXiXiXpXpXdXtXtXtXiXiXiXsXyXyXiXtXtXyXyXiXdXqX3X3XiXiXiXiXiXiXiXiXiXiXiXiXiXiXiXiXiXiXiXiXiXiXiXiXiXiXiXiXiXiXiXiXiXiXiXiX",
"iXiXiXsXiXiXiXpXiXtXdXtXiXqXtXtXyXyXiXiXyXyXyXiXiXqX3XiXyXtXqXiXiXiXiXiXiXiXiXiXiXiXiXiXiXiXiXiXiXiXiXiXiXiXiXiXiXiXiXdXiXiXiXiX",
"pXiXtXtXiXiXiXpXiXtXiXiXgXkXfXiXyXsXsXiXiXsXiXtX3XqXqXsXdXmXfXiXiXiXiXiXiXiXiXiXiXiXiXiXiXiXiXiXiXiXiXiXiXiXiXiXiXiXiXiX3XqXiXiX",
"pXiXtXtXtXiXiXiXtXaXiXiX/./.`.tXiXsXiXiXiXiXtX3XqXdXsXwX/./.`.iXiXiXiXiXiXiXiXiXiXiXiXiXiXiXiXiXiXiXiXiXiXiXiXiXiXiXqX2X_.4XdXiX",
"iXiXyXtXtXtXyXtXtXiXiX3X>   @ pXdX3XdXiXiX7X3X3XiX3XfX2X    4 gXiXiXiXiXdXiXiXiXiXqXiXdXiXiXiXiXiXiXiXiXiXiXiXiXiXdXqX).).3XiXiX",
"iXiXyXtXtXtXyXyXtXtXdX4X@ S (.> '.NX3XiXiX3X3XaXfXNXD 5 7XV 2 fXiXiXiXdXiXqXiXdXiXiXiX3XiXdXiXiXiXiXiXiXiXiXiXiXiXiXiX3X3XiXiXiX",
"tXtXiXiXsXiXiXiXiXiXgXeXX n.xXv F /.pX3X3XiXgX).~.~.S C VXC 2 bXiXiXdXiXiXdXiXqXiXiXiXdXiXtXiXiXiXiXiXiXiXiXiXiXtXiXiXiXiXiXiXiX",
"tXiXiXiXiXiXiXiXiXiXiXiX# F vXBXV > pX5X0X5XNXD     ~.VXVXV 2 bXiXiXdXiXiXiXiXdXiXiXiXiXiXiXiXiXiXiXiXiXiXiXiXdXiXiXiXiXiXiXiXiX",
"iXiXiXiXiXiXiXpX5XpXsX3XX m.lX1 & O < , > , ; A 0XiXNXVXVXV 2 fXiXiXiXiXiXtXiXqXiXiXdXiXtXiXiXiXiXiXiXiXiXiXiXdXiXiXiXiXiXiXiXiX",
"iXiXiXiXiXiXpXpXgXeXdX3X@ v N.0 a d d d d d 0 g.BXVXVXVX'.S D fXiXdXiXiXiXdXtXdXiXiXiXiXiXiXiXiXiXiXiXiXiXiXiXdXiXiXiXiXiXiXiXiX",
"sXiXiXiXyXyXtXiXiXdXyX3X> O 7 _ ;.0.0.0.0.c._ G.cXBXBXtX  ~.NX3XqXtXiXiXiXiXiX3X4X3XqXiXiXiXiXiXiXiXiXiXiXiXiXiXiXiXiXiXiXiXiXiX",
"sXiXiXiXyXuXtXtXiXiXyX3X> z ' ;.1.O.5.O.5.,.=.;.C.cX~.+ X ~.NX).).4XiXiXtXiXmXS + . ~.NXtXtXiXdXiXiXsXdXdXiXiXiXiXiXiXiXiXiXiXtX",
"sXsXiXiXyXyX7X9XpXiXdXeX; z [ =.4.O.6.6.5.5.,.>.:.K.M . X V !.4X).4XgXiXiXtXNXC o A C D zXiXsXiXiXiXdXsXsXtXiXiXiXiXiX9XiXiXsXyX",
"sXiXiXiXsXiXtXiXiX3X3X(.w a { <.>.<.$.$.%.3.O.6.>.Q a - &   2 ).<XiXpXiXdXqX4XZ 0 +Xn h XX4XdXiXfXiXdXiXtXiXtXiXiXiXiXiXiXiXiXyX",
"uXtXwXiXiXsXtXsXmXVXM.O / ) Q 7.0.[ = * t 9.X.O.,.8.&.R $ 3 h o `.NX3X3XdX@X& n Z.J. XV.O (.MXtXyXsXeXiXiXtXdXiXiXiXiXtXiXiXiXiX",
"7X7XdXiXeXiXMX`.k v z f W Q !  .I r i B.K.=.w.@.5.,.<.` % < j , k D MX7XaX0X$ f z.U.U.G.( t.!.NXyXtXgX5XiXiXtXtXiXiXsXiXiXiXiXiX",
"tXiXiXiXiXgXXXf.- 9 H $. . . . .H g g.%X X>.5.5.5.5.3.$.q 0 h l $ k `.eX4X^.q ^ z.k.J.K.K.e.Z (.4XdXiX9XiXiXiXsXyXtXtXtXiXiXiX9X",
"iXiXiXiXiXgX4 : C.;.9.8.1.,.6.<.L.OXlXZ.%.,.5.5.5.,.4.=._ q * j j u . 6Xd.$ j.z.i.= p. XY.K.~ O XXbXiX9XpXiXgXtXyXtXtXsXiXiX9XiX",
"pXiXtXyXiXzXk : ` =.%. .,.,.O.O.w.q.S.c.<.,.O.@.@.@.5.<.;.r * j j i h p f | z.J q H.b x U.k.&.] h s.gXiXiXiXqXiXtXyXsXsXdXiXiXiX",
"iXiXiXtX3XfXk : [ ;.%. .2.2.2.2.2.=.U %.3.5.6.O.@.@.,.3.7.K 0 u i i 0 q E x.) f N .Xi 0  XD.q.k.% Z NX3XtXsXiXiXtXsXqX4X4X3XiXiX",
"yXdXiXiX3XfX4 u b.x.x.x.j.j.j.h.z.[ 6 Q w.@.6.6.@.#.O.6.,.$.~ % i y = i.z.h.% e. X Xd y .XU.S.:.7 Z hXiXtXdX3XiXtXiXqX)._.3XiXiX",
"dXwXiXiXiXiX3Xs.% 9 9 8 8 8 8 8 8 e -.:.8.w.,.4.O.O.O.O.,.7.' * 0 b i.z.E 7 {.{.I.Y.P.a.7 G.J.:.i.b 3 4XdXtXiX0XtXiXiX4X4XtXiXiX",
"iXiXiX9X9X9XgX_.C & = s H H H H H Y 8.7.` K =.4.5.5.,.5.5.3.$.s 0 z l.P b y.-XOXK.K.+X].$ F.J.=.c.f $ 3XdXiXiX9XtXtXiXeXiXsXiXtX",
"tXiXiX9XaX9XiXiXMX4 h e.a.l.l.l.l.} $.;.^ 6 %.4.,.5.,.O.5.6.<.` 7 y l.6 y.cX%X XY.I.%X{.$ F.J.;.0.E - XXiXsXiX9XiXtXiXiXsXsXiXiX",
"dXiXiXiX9XtXiXtX3XpXF o O O o o O l i % g I.:.>.,.5.,.5.5.5.1.;.9 d  XP.|.=X}.OXOXI.%X{.$ F.U.J.q.;.u.& s.mXtXiXiXiXiXiXiXiXiXiX",
"iXiXiXiXiXdX7XiXiXfX`.D D D D D V F d.y.H.OXS.q.O.O.5.,.,.....9.L f ~ |.%X%X}.OX$XI.$X+Xt.b u.Y.2.=.l.$ s.mX7XiXiXiXiXiXiXiXsXiX",
"iXiXyXyXiXqXiXdXdXeXsXMXzXzXkXmXD 3 [.jXlX=XU.S.+.@.5.>.8.! T ;.-.L $ {.&X$X|.OX$XI.#X=X;X0 y U.3.2.h.% f.mXtXiXiXiXsXsXiXiXiXiX",
"iXiXyXyXiXdXqXdXsXsXsXtX7X7X4XMXV . $ ].lX&X XD.>.6.O.,.0.G e x.;.P % ].|.P.&X=X$XI.#X:XlXp i  X;.=.-.% d.NXiXtXiXiXtXsXiXiXiXiX",
"iXyXyXsXiXpXiXiXiXiXsXtXyXwX).V n i % u.L.D.-.:.7...X.1.c.t e h.:.` ^ a u..X:XlX&X|.*X:X-XB.t.f D.c.-.^ n C dXyXiXiXiXiX0X0XpXiX",
"iXyXyXtXiXiXiXiXsXiXiXiX4XdX).o x / $ y.Z.A.} -.-.U  .2.c.t 9 h.:.:.k.e f B.[.[.].N.,XlX=X+Xy.$ L.S.$.A.p ; iXsXiXiXiXiXiX9XiXiX",
"iXiXiXsXiXiXiXiXeXiX4X4XaXMXXX% x ~ O [.lX=XlX{.~ 6 I q.k.t e k.<.>.<.$.g O . . . . ^.cX:X+Xf.% L.S.%.k.d > pXgXpXpXyXyXyXyXtXtX",
"iXiXiXiXiXiXiXiXdX4XiXpX4 < j c / R O [.lXlXv : 9 ) %.;.z.t e k.3.5.*.9.x & '././.`.V < 1 ].d.$ G.S.X.0.a , pXiXpXiXyXuXyXyXyXiX",
"iXiXiXiXiXiXiXiXeXsX_.n.Z p q ' _ P $ B. XP.t.l s =.w.=.^ a H 9.1.5.5.0.x $ 0XMXfXNXD 4 v d.F O K.S.+.7.g < 5XsXiXiXtX7XiXiXiXiX",
"iXiXiXiXiXiXiXtXqXMXD . lXI.) ) _ E % ( p.~ cX*X;.<.;.$.= J $.1.6.5.O.7.L - XXpXeXiXfXzXhXs.3 & H.L.=.0.d , pXsXsXtX7X7XiXiXsXdX",
"iXiXiXiXtXtXiXiXsXB h m ] _ ) [ q 0 H.+X#X*Xu d k.c.P 8 Y ..>.,.5.5.O.3.$.R ; !.nXqXtX7X4X@X_.XXu ( U.A.i ; iXdXiXiX9XiXsXsXsXsX",
"sXsXiX3X3X7XiXiXdX> l .X' ) ' a m N.OX$X:X-XN.y.x.U s s &.;.3.,.,.@.O.4.=.[ O D MXiXtX3X9XiXfXfX@ Z .Xf M s.eXsXiXiX9XiXsXsXsXsX",
"yXdXsX<X_.2X9XiXaX2 A BXe.( m $ B.lXOXOXOX#XBX;Xr.8 s [ h.-.;.=.,.@.#.O.1.h.$ D MX4X3XiXpXiXiXiX> Z [.$ M.CX5XiXiXtXiXiXiXqXdXrX",
"dXyXsX4X).4XiX7X7XzXM.O = = % $ d ( p.j.j.p.: O * ~ ] ^ 6 6 e  .X.@.#.O.6.-.$ D gX4XiXdXiX7XiXiX>   ; XX5X3XiXiXiXiXiX3X3XiXsXsX",
"sXiXiXiX9XiXiXdXfXf.m L P K P s a.}.I.I.}.}.N.g.a.u.f r P U U ..,.5.#.@.1.-.u /.nXiXiXeXiXsXsXiX!.D n.3XgXdXtXiXiXiXiXkXaX7X3XiX",
"iXiXiX9XgXeXdX4X(.w f c.7.q.;.) }.:X>X>X>X>X:XlX-X( q r k.q.w.3.,.,.O.+.3.v.( f.XXqXiXsXqXdX3XtXkXMXhXiXtXtXtXtX3XiX_.`._.8XiX9X",
"iXtXiXiXiXeXfX^.O u.k.<.4.,.8.Y U.>X%X&X&X&X&X>X-X- L k.=.>.>.4.,.5.5.5.w.D._ q , fXkXfXqXiX7XaXtXtXeXiXiXtXyXbXmXMXk . # _.aX7X",
"iXiXsXtXiXeXMX^.$ | 7.4.O.,.%.Q p.H.P.C.G.Z.Z.C.y.* K q.>.O.O.@.@.@.5.,.<.;.;.L w V k S MXbXfX7XtXsXiXiXiXfXMX~.k l n u + ).gXaX",
"3XiXiXiXdXtXbX^.$ ] 7.,.5.1.7.h.p.F.C.C.C.Z.C.V.y.* J q.>.5.@.@.@.@.@.5.1.3.9.W r - * j (.'.`.dXiXiXiXiX2X/.oXn 7 9 _ ~ O ).fXwX",
"iXiXiXiXtXtXnX^.$ | 7.,.1.<.D.} .X:X&X&X&X&X&X-XjX- J q.>.,.@.@.@.@.@.@.,.,.8.T s r.] R $ o V NXpXgX5XCXM.& % / z.k.z.~ o ).bXsX",
"pXiXiXiXiXiXhX^.O u.0.>.9.c.x.i.}.:X=X=X&X&X>X#X{.= J 0.3.6.,.6.4.O.@.@.o.,.8.T t ' &.&.[ ^ z u 3 k C n u.} { :.2.c.q l `.qXsXsX",
"iXiXiXiXiXiXgX(.Z m ` k.A.z.' s H.%X=X:X=X&X$X}.H.g L W $.=.2.2.q.3.+.O.@.5.8.Q s ) %.8.3.=.^ y z m y.g _ 0.0.=.$.^ z s.NXqXiXiX",
"sXdX7XiXiXiXyXiXhX, M B.a.r.~ * ]  X%X%X&X$XY.D.-.z.z * / i.x.-.-.;.1.,.5.,.8.T t _ %.1.,.>.;.L.J.L.k.;.7.=.x.] f $ (.MXiXiXiXiX",
"yXtXiXiX7XtXNX/.2 k l p = a ~ * ^ G. XU.U.Y.0.0.x.6 $ $ % = 6 8 6 t  .X.,.,.8.T G ) Q  .2.q.v.v.v.9.7.0.:.W 6 $ h @X4XyXiX7XiX9X",
"dXtXdXiXyXyX~.n.^.t.y.u.s ) [ s g ^ L.D.S.D.0.` f g.m i g.m H K H U %.>.3.2.=.U H ' { Q ;.c.k.k.$.&.[ L d i A C !.bXyXyXtXdXeXgX",
"wXiXiXtXyXbX2 C cXt.B.lXF.i.i.] 0 7 i.&.-.} j.f O BX].t.BX[.a.l.l.j.-.-.-.} ^ f a / / ^ u.b./ ~ ^ ^ ~ 0 & k hXMXbXtXiXtXyXqXiXiX",
"iX9XtXyXyXmX4   @ . o o o O O o . . O O $ O O o .   o o . . o O O O O $ O O O O o o O O O & O O O o & oX6X3XiXtXyXsXiX9XiXiXyXyX",
"0X5XdXiXtXdX~.D D Q.Q.s.Q.R.Q.T.W.Q.n.n.D T.Q.W.Q.Q.s.Q.T.W.E.R.R.s.n.n.Q.D !.E.W.Q.n.n.R.R.R.R.E.R.Q.9XiXiXtXyXdXiXiX9XiXtXyXyX",
"pXpXiX4X_.4XfXMXmXmXzXzXMXMXMXMXMXMXzXhXMXMXwXwXdXMXMXzXMXMXnXMXnXMXMXmXmXMXnXMXmXmXkXkXMXMXMXMXnXMXfXaXtXiXtXtXsXsXiXiXiXiXiXiX",
"iXiXiX1X_.@XpXeXtXtX9X9XtXtXtXiXiX3XiX7XiX3X<X_.wXtX5X5X7X7XqXeXeXeXtXtXtXtXeXeXqXtX7X7XtXtXtXiXeXiXiXtXtXiXiXiXsXsXiXiXiXiXiXiX",
"yXyXiX3X4X3XiXiXsXiXpXpXiXsXsXiXdXiXiXtXiXiX4X3XtXtXiX9X8XuXyXiXpXpXiXyXyXyXiX9XiXiXiXtXtXiXiXiXiXsXiXiXiXiXiXiXsXsXsXiXiXiXiXiX",
"yXyXiXiXdXiXiXsXsXsXiXpXiXiXsXiXiXiXyXtXtXiXiXdXtXiXiX9XiXtXyXiXpXpXsXyXyXyXiXiXpXpXiXiXiXiXiXiXsXsXiXiXiXiXiXiXiXsXiXiXiXiXiXiX",
"qXsXiXiXsXsXtXtXyXsXiXiXiXiXtXtXiXiXuXyXiXiXiXiXyXsXiXiXsXsXiXiXiXiXsXsXsXsXiXiXiXpXiXiXiXiXiXiXiXiXiXiXiXiXiXiXiXiXiXiXiXiXsXsX",
"iXiXiXiXiXiXyXdXtXtXiXiXiXtXtXtXiXdXdXsXiXiXiX9XsXsXiXiXiXiXiXiXiXtXyXyXsXiXiXiXpXpXiXiXiXiXiXiXiXiXiXiXiXiX9X9XiXiXiXiXiXiXsXiX",
"iXiXtXiXiXiXiXiXiXiXiXiXiXiXiXiXdXdXiXiXeXiXiXiXsXsXtXiXiXiXiXiXiXiXiXiXiXiXiXiXiXiXiXsXsXiXiXiXtXiXiXiXiXiXiXiXsXsXtXtXiXiXiXiX",
"tXiXyXiX5XgXiXiXpXiXiXiXiXiXiXdXdXiXtXiXsXiXiXiXsXiXtX8XtXiXiXtXiX9XiXiXiXiXiXiXiXtXiXyXsXsXyXyXyXiXiXiXiXiXsXsXsXsXtX7XtXiXiXiX"
};
