/* XPM */
static char *dragon[] = {
/* columns rows colors chars-per-pixel */
"64 64 209 2 ",
"   c #020202",
".  c #0C0202",
"X  c #050906",
"o  c #0A0A07",
"O  c #060608",
"+  c #090609",
"@  c #050B0A",
"#  c #0C0C0C",
"$  c #140203",
"%  c #130B0C",
"&  c #1C0B0E",
"*  c #1A0504",
"=  c #0D110D",
"-  c #04100E",
";  c #11110E",
":  c #1C100F",
">  c #0C0E11",
",  c #120E12",
"<  c #1A0E11",
"1  c #0D1312",
"2  c #0A1917",
"3  c #131413",
"4  c #1B1315",
"5  c #161916",
"6  c #1A1B17",
"7  c #171518",
"8  c #1A1519",
"9  c #151A1A",
"0  c #1B1B1B",
"q  c #2B090C",
"w  c #241213",
"e  c #231A1C",
"r  c #2A1818",
"t  c #36191C",
"y  c #2D0E11",
"u  c #1C211D",
"i  c #2F201E",
"p  c #1E1E21",
"a  c #261E22",
"s  c #1E2121",
"d  c #142422",
"f  c #232323",
"g  c #2A2224",
"h  c #262927",
"j  c #242529",
"k  c #2B262A",
"l  c #262A2B",
"z  c #2B2C2B",
"x  c #35292A",
"c  c #2E302E",
"v  c #2E2E30",
"b  c #392E33",
"n  c #2E3233",
"m  c #333333",
"M  c #343935",
"N  c #36393A",
"B  c #3C3C3C",
"V  c #3C3538",
"C  c #442A2B",
"Z  c #4A383A",
"A  c #563739",
"S  c #582A30",
"D  c #663133",
"F  c #3B423C",
"G  c #3F3E40",
"H  c #423F43",
"J  c #483F42",
"K  c #3E4041",
"L  c #434344",
"P  c #4A4345",
"I  c #454A46",
"U  c #4A4649",
"Y  c #464A4A",
"T  c #4C4C4B",
"R  c #484747",
"E  c #4D514E",
"W  c #544F52",
"Q  c #535454",
"!  c #585556",
"~  c #5C5C5C",
"^  c #575858",
"/  c #4E4F4F",
"(  c #6A4D4D",
")  c #63494B",
"_  c #675857",
"`  c #765959",
"'  c #764E51",
"]  c #5B625C",
"[  c #73605F",
"{  c #5E5E60",
"}  c #7F5E65",
"|  c #5E6361",
" . c #636464",
".. c #6B6C6C",
"X. c #676767",
"o. c #746A69",
"O. c #6E706D",
"+. c #736D71",
"@. c #6E7371",
"#. c #737373",
"$. c #7C7C7C",
"%. c #797777",
"&. c #83585D",
"*. c #8A6E6D",
"=. c #83696B",
"-. c #946A6B",
";. c #986A6C",
":. c #8C6D72",
">. c #867372",
",. c #8C7373",
"<. c #8E7679",
"1. c #8D7A7A",
"2. c #887A79",
"3. c #927675",
"4. c #937877",
"5. c #93767A",
"6. c #94797A",
"7. c #997D7C",
"8. c #997475",
"9. c #8C706F",
"0. c #77817A",
"q. c #9C807F",
"w. c #817C81",
"e. c #987C81",
"r. c #7D8182",
"t. c #848484",
"y. c #858C8A",
"u. c #8B8C8C",
"i. c #878887",
"p. c #988788",
"a. c #8C908D",
"s. c #929293",
"d. c #9B9C9C",
"f. c #979798",
"g. c #8F9191",
"h. c #A18584",
"j. c #B48383",
"k. c #A78E94",
"l. c #A29C9D",
"z. c #A59696",
"x. c #B3939A",
"c. c #9EA39F",
"v. c #9F9FA1",
"b. c #9CA3A2",
"n. c #A4A3A4",
"m. c #A6A9A9",
"M. c #ACACAD",
"N. c #A9A6A7",
"B. c #B5A8A8",
"V. c #ABB0B1",
"C. c #B3B2B3",
"Z. c #BCB4B6",
"A. c #BBBCBC",
"S. c #B4B8B9",
"D. c #B3AEB1",
"F. c #C7BBBD",
"G. c #D0B1B6",
"H. c #BCC2BE",
"J. c #BDBEC0",
"K. c #C1BCC0",
"L. c #BDC6C5",
"P. c #C4C4C4",
"I. c #CACBCB",
"U. c #C8C7C7",
"Y. c #D3C6C5",
"T. c #D6CCCC",
"R. c #D8C4C7",
"E. c #CDD2CE",
"W. c #D3D0CD",
"Q. c #D2CFD1",
"!. c #D3D3D3",
"~. c #D5D6D8",
"^. c #D4D9D9",
"/. c #DCDCDC",
"(. c #D9D5D3",
"). c #CFD4D0",
"_. c #EDD5D6",
"`. c #E3DBDC",
"'. c #E9D8D9",
"]. c #E8C6CE",
"[. c #DEE2DF",
"{. c #E3E3DF",
"}. c #F8E0DE",
"|. c #E1DFE2",
" X c #DEE4E2",
".X c #E3E3E4",
"XX c #EBE3E6",
"oX c #EAE5E9",
"OX c #EBECEC",
"+X c #E7E9E7",
"@X c #F5ECEC",
"#X c #FEECEC",
"$X c #F8E5E6",
"%X c #EEF2EE",
"&X c #F3F2EF",
"*X c #FDF0EE",
"=X c #F3EEF1",
"-X c #FDEFF1",
";X c #EDF3F2",
":X c #ECFAF6",
">X c #F3F4F4",
",X c #FEF5F4",
"<X c #F4F9F6",
"1X c #FFF9F6",
"2X c #F5F5F9",
"3X c #FEF6FA",
"4X c #F6FDFD",
"5X c #FDFDFD",
"6X c #EFEFF1",
/* pixels */
"D j.-.8.7.>.,.6.5.e.5.5.5.5.8.5.5.e.<.<.>.2.p.o.Z p.5.*.p.>.<.1.3.7.` ) -.q.3.4.8.,.,.4.4.7.7.,.4.4.4.6.5.5.e.5.e.>.>.7.8.;.j.D ",
"j.,X#X,X1X1X1X5X3X3X3X3X3X3X,X3X3X3X#X3X5X>X3X@X) G.3X3X#X1X1X5X,X1Xz.( 1X1X$X1X,X1X1X1X#X*X1X1X1X,X,X3X3X3X3X3X3X3X1X1X,X#X-Xe.",
"-.*X,X*X1X5X5X,X3X3X3X3X1X1X1X1X3X3X5X3X,X5X,X1X$Xr ,X$X,X5X5X,X1X1Xz.b '.5X1X1X1X5X#X*X1X1X#X1X1X1X1X5X3X3X5X5X,X5X1X,X,X,X-X;.",
"8.,X1X1X,X5X5X1X5X5X5X5X5X1X5X5X5X$X5X5X@X1X,X5XY.V $XR.-XB.=X5X@X5XB.. [ 1X1X1X1X1X5X,X,X5X1X5X5X5X1X5X5X3X5X5X3X5X5X,X,X,X,X8.",
"4.1X1X1X5X5X5X5X5X5X5X5X5X5X5X5X5X5X1X5X5X3X5X5XoXZ Q.< g.a Z.5X5X{.O.z n.1X5X5X4X+X5X5X&X1X5X>X5X5X5X5X5X5X5X5X5X5X5X5X1X3X,X4.",
"1.*X1X5X5X4X4X4X5X5X5X5X5X5X5X5X5X5X>Xg.n.5X5X5Xy.v Q.p # + J 5X5X]   | <X%X5X).a.I.4X5X5X5X4X5X5X5X5X5X5X5X5X5X4X4X5X5X5X,X,X4.",
"1.1X5X5X5X4X4X4X4X5X5X5X5X5X4X5X4X<X<X#.7 d.OXs.  Y r.O a 1 H d.^ 1 N A.4X4X[.N s U.4X%X<X5X4X5X4X5X5X5X5X5X5X5X4X4X4X5X5X5X,X4.",
">.1X5X5X4X4X4X4X4X4X5X5X5X5X5X4X4X4X5X5X% 7 =XO 1 O @ 2 > > > > 1   / b.a.c.K c b.u.P.4X5X4X5X<X4X4X4X5X5X4X4X4X4X4X4X4X5X5X3X>.",
"<.3X5X5X5X5X5X4X5X5X3X3X5X5X>X4X:X5X%X5X3 f $.f > 2 - d > > j > s 1 @ >   > j m.G 9 I.V.J.2X5X4X5X5X5X5X5X5X5X4X5X4X4X5X5X5X3X5.",
"5.3X5X3X5X5X5X4X2X5X5X5X5X5X5X2X5X%X5X2.g e + + p - 2 d d j > a   j 7 O f U ~.u.> v.4Xf.A.5X6X2X5X4X4X5X5X5X5X5X4X5X5X5X5X5X3X5.",
"5.3X5X5X5X5X5X4X5X5X3X5X3X3X5X5X5X5X%.: w $ w 8 p - 2 - O p p % a 0 , # + G .Xd.  W w.|.5X5X5X5X5X5X5X3X3X5X5X3X5X5X5X5X5X3X3X5.",
"5.3X5X5X5X5X5X5X5X5X5X5X5X>Xs.!.1Xq.: $ y A r e > 2 2 d > O < + O O # 7 4   U u.V ,   V %..X2X5X5X5X5X5X5X5X5X4X5X5X5X5X3X3X3X5.",
"5.1X5X1X5X5X5X4X5X3X5X5X5X5Xm !.1Xr r q A D * q 7   - 2 g.f.w.D.M.D._   z @ = L C.Y   0   Z OX>X5X>X>X5X5X3X3X5X4X5X5X5X5X5X3X3.",
"<.1X1X5X5X5X5X4X5X5X5X>X5X5Xz T.z.w q A &.y y y e y.c.L.4X>X4X+.w.X.u.| # z u   v m.E 3 # X ]  .^.<X5X5X4X5X5X5X5X5X4X1X5X1X,X5.",
"1.1X5X5X5X4X5X4X4X4X5X5X1X<XY E r * S &.&.S q t Z.4X:Xr.OX5Xb a { # t.H.  # 3 5 # L f.E # u     ] U.5X5X>X5X5X:X4X4X5X5X5X5X3X,.",
"1.1X1X5X5X5X4X4X5X2X5X5X5X1Xm.6 $ t } ' S C t r ~ E ] 0.#.J < /.5X .0 y.O.X s 3 3   F c.M   z u   ] ^.5X5X2X4X5X4X5X5X5X1X1X1X3.",
"4.1X5X1X5X5X5X5X5X5X2X5X4X4X<XF o : r Z $ & < g B.M.m.Q   5 /.5X5X2XQ X.P.  f   ^ I.c s.4Xc 0 # u X F +X5X5X4X5X4X5X5X5X1X1X*X7.",
"4.1X5X1X5X5X5X5X5X4X5X&X>X<X0.= 3 i p.< < k < < ! ..N   z U.>X5X>XU.$.c.f f   3 n.5XoXT U.%.  5 o X   F XX5X5X5X5X5X5X5X5X1X1X4.",
"<.1X5X5X5X5X5X4X5X5XoX3X5X%.= ; % . ,XX.< . , Z.n.l.A.A.I.5X5X2X5Xu.O.N.  8 X.O.0 B C.^.OX_   f f = h O H OX3X4X4X4X5X1X5X1X1X4.",
"5.3X5X1X5X5X4X5X2X5X5X5XO.l.h ; n.Y.>.V e Z.Q.5X5X5XoX<X5X4X5X5X5X&Xs.G f O E V   X.>X5XOX@.  =   o s #   U 6X4X5X5X4X5X5X1X1X4.",
"5.3X1X5X5X4X5X4X5X4X5X>.& x x k.3Xf.a % K.5XXX5X>X5X5X!.m N T L E E V   , 3 O 3   D.n.5 Q 0 # 0 u f % f 3   Q .X5X4X5X5X5X1X1X3.",
"5.5X1X5X5X4X4X4X4X5X3XJ q k.K.-Xz.B.b + J -X5X>X1X5X5XoXI.s.@ # O 3 O 3 z 5   $.%.O u.^.L # f O = = 3 0 7 m O ^.4X5X5X5X1X5X,X3.",
"5.3X1X5X4X4X4X4X4X2X3Xx k.x.-.=.x b Z.`.P.3XoX5X/.L Z z Q N 3 h 8 s 8 6 + O $.t.u.~ q.4X~   0 3 = 5 h   4 + p Y OX4X5X5X1X5X3X3.",
"5.3X5X5X4X4X4X4X4X5X3X'.3X} G._.R.`.,X2X5X`.U B B   @ 3   # 0   3 1 % 3 5 # f.i.%.;X:X$.3 0 # 0 6 X 6 3 8 0 + > .X<X5X5X1X1X,X3.",
":.3X3X5X<X4X4X4X4X.X5X3Xe.G.-X3X5X3X=XU g z % O 3 1 3 3 # # 5 3 6 ;   #.d.  u.4X#.u.5XX.  # 5 = 6 0 # 7 , > 7 1 .X;X5X5X1X1X,X3.",
"5.#X1X1X4X4X:X4X:X5X5X$X].k.].3X5X.XU   8 # a # 3 . 0 0 3 9 # Q ~.!./.~.@XH.|.1X~ i.v.  f 3 3 f X y.Q   , a 7 1 N /.5X5X,X*X1X3.",
"e.,X5X>X4X<X4X;XoX=X-X3Xk.) ( _.XXQ   8 f # # 0 f 3 # # 3 e   f m f L 0 z L z z z 5 0 # 3 5 3   3 f K.Q > + p > @ :X4X5X5X,X1Xh.",
":.5X1X5X5X4X4X..j G w B.k.F.e._.X.  f 0   h # # # # # z     %.d.# O   ; # # # # . 3 # 0 O % O h X u S.b + j , 7 s :X>X@X5X#X#X,.",
":.5X,X5X5X>Xu.  m.=XW a x.3X{.*Xg 3 0   3 1 f 3 e # 3 0 0 T M.5 3 0 % 0 3 # 0 # 0 3 f O 0 0 3 ; = X ).E + , I.v 9 S.5X5X1X1X1X3.",
"e.3X1X@X5X>X%.i.3X3X3XJ & K.1X1XL 5 # 3 M   0 = 5 1 f     X.M.# 3 3 3 5 0 e 5 5 5   , 0 5 ; = h z 3 C.^ + # I.Y   I %X1X,X1X,X3.",
"<.3X1X,X5X5XoX5XoXXX-XJ . W.OX+Xc X f 1 3 5 s h 7 f # 0 5 3 h # 5 3 3 O 8 3 O 8 . m # 5 3   h f.5XF o W.U 7 0 I.n 2  X5X5X1X,Xh.",
">.5X5X5X5X2X2X~ + a a 4 . U.5XM ; 6 ; = 5 # z M.T D.f 3 3   # % % m f   3 5 z z z 3 O # s B f.T M.X.O P./ O s ^.n 5 >X3X5X1X,X3.",
"4.,X,X1X5X4X..  , I.+.. = U.[.I 5 O 3 3 8 0 # m !.X.(.  e B N h #.5XM.m c u.5X5X4Xu.b m a.oXQ ; !.E # (.H > , ^.l p oX5X1X1X,X4.",
"4.,X1X1X5XOX{ 1 I./.5X..  S.F I.V z # 3 3 # 6 m I.U.A.0 h ~.{.>XI.^.!.I.!.`.U.!..XI.U./. .  o V.>XE   H.W   p /.N 1 >X5X,X1X,X4.",
"6.,X,X5X5X>Xb.a.5XoXP.~.m o 6 E.T N...# # 0 # # 3 3 ~ A.T   ~ s.. 3 0   3 # j # 3 # 9 3 3 # c N.E   # [.G   s P.n 9 OX5X@X1X1X4.",
"4.,X1X1X5X5X;X5X^.m f L z 0   E.F # n.E f % f 3 3 $.f.v d.5 8 1 p # 1 f 3   3 # 7 o 3 0 3   u.^   s   U.H p f ^.s n  X<X5X1X1X3.",
"9.1X1X5X5X5X<X4X{ f /.2XB = z I.B # 0 A.f   f # m f.# z   3 3 e 3 3 3   # ..f ; f 9 3   k 3 % @ M u h .XJ   p ^.n u +X1X5X*X1X,.",
"9.1X1X1X5X5X<X<XG m.|.2XX.    /.%.# O 3 6 0 # 7 f , 3 5 3 0 # 0 # f 5 8 C.4Xi.e   z # e # X s M !.#./.`.m + p  XF   %X5X1X,X,X7.",
"3.1X3X,X5X5X5X4X$.U.W #.T   h c.@XR 5 5 # 3 8 7 # 5 e 3 0 3 0 8 s %    .5XX.R N.f . 3 5 5 8 # u.5X<XH.h , , V V.j Q >X5X,X,X1X7.",
"3.1X,X5X5X2X4X2X5X2Xu.7   0 X   s.v   , f , 3 5 5 3 3 3 # f # 0 1 f   #.5XP.f u.d.  0 3 3 3 3   #.).h M k , ^.v 9  X5X5X5X,X3X,.",
"4.,X1X5X5X5X5X4X2X5X5Xw.~ 3 = E 0 O 5 7   0 8 # 3 # # = # > # # % # # Q Z.P.~ 0.f.  # . O 3 o #     T /.H > |.l 2  X5X5X5X1X1X3.",
"4.1X1X5X5X5X5X4X5X<X2X5X5Xt.; [.F 3   # z   5 h 3 3 e f 6 3 0 f 5 f # O 3 3   f.s.+ M K 3 # 0 f  .~ /.5XG G d.v 3  X5X5X,X1X1X3.",
"3.1X1X1X5X4X5X4X5X5X5X5X4X4Xu.a.#.0 ..3 z _ # # 3     #     3 3 3 0     #   m d.~ k /.A.5 8 9   ..5X2XC.b Q.v @ p [.4X5X1X1X1X*.",
"4.,X1X5X5X5X5X5X5X5X5X5X@X5X&X0 U.z u.#.f s.$.8 $.$.t...~ %.Q   . z u.$.$.| P.u.  i.5X+XL   f 3 o ^ v.7 O ~.N > X. X4X5X5X1X1X,.",
"4.,X5X1X5X5X5X4X5X5X5X5X5X<X5Xy.!.l.  $...  u.X.u.i.A.2X5X5XE.$.I 0 n.$.F.5X5Xt.7 +X!.f   0 # #  .X.] 0 ! l.k > /.4X5X<X1X,X,X6.",
"4.1X1X1X5X5X5X4X5X4X5X=X>X5X5X5X5X+Xu.$..Xt.#.5Xi.X.f.@X5X<X2X:XOXi.#.Q n.5X5XN.I./.m 3 f # 6 3 0.%X5XR ~.k p  .5X4X5X1X5X,X,X3.",
"3.1X5X5X5X5X5X4X5X>X5X5X5X5X>X5X5X4X5XOX5X5X5X.Xd.d.f.i.$.u.s.q.t.d.P.5X4X>X5X!.f.L   # 3 0 , 6 o H.S.o I. .  ;X<X<X5X5X5X,X1X*.",
"4.,X1X5X5X4X5X5X<X5X5X1X5X5X5X5X5X5X&X5X2X5X4X$.      X #     X #   N i.u.t.u.L   3 3 5 7 = # Q 0.s.# X.s.7 ..>X5X4X5X1X5X*X,X6.",
"3.1X1X5X5X5X5X5X4X5X5X5X5X>X5X5X5X4X>X5X<Xa.#.  5 h o u f   u 9 5 u 0   =   = @ = 5 3 3 3 = ! %X<XI  .f.  +.4X4X4X5X4X5X5X1X1X1.",
"4.1X1X1X5X5X4X4X4X5X5X2X5X5X5XOX$.%.5Xa.#.  X 3 u   3 X   5 h = o u = u 6 0 3 9 6 u = 6   T {.5Xa.u ).F $.2X5X;X5X4X5X5X1X1X1X3.",
"5.1X5X1X5X5X5X4X5X5X3X5X5X1X5X5Xu.  Q 7   3 s o u = h n.w.# + j %.  0 # 5 # 7 3 #     ~ a..X5X4XF | q.u U.5X5X5X4X5X4X5X5X5X1X4.",
"5.1X1X5X5X5X5X5X5X3X3X5X5X1X1XOX5XV.  > s 0 e = % # I +X~   f .XF.3 3   W ]   7 ^ M.t..X5X5XoXi.a.y.X %.2X3X3X5X5X5X5X5X1X1X1X3.",
"5.3X3X5X5X5X5X5X5X5X3X5X3X5X=Xt.oXoXU.k , p   z 7 # H 2Xf.M.N.f.J.  > H =Xs.8   d.2X5X5XoX5X2XK.%.h %.OX5X5X3X4X5X5X5X5X5X5X3X5.",
"5.3X3X5X5X5X5X5X5X3X5X5X3X5X3XN.Q +.X.+ p , 8 v i.+ j W u.oXH p #.#., $.5X.XU   c H n.5X4X5X5Xn.= ~ 5X5X3X3X5X5X4X5X5X5X5X3X-X5.",
"5.3X5X5X5X5X4X5X5X5X3X5X5X2X5X5XC.    s 7 7 7 f 5Xt.O p K.U.  O ..5X{ O n.2X~.C.V.m..Xu.C.4Xs.  @.4X5X3X5X3X5X2X5X5X5X5X5X3X3X5.",
"<.1X5X5X5X5X4X4X2X5X5X2X5X5X4X5X4XI.m.p 3 9 1 m >X5XM.S.5XJ.  1 j U u.A.P.2X5X6XV. .{ ..2Xd.@ @.4X4X5X4X5X5X2X4X4X4X4X5X5X5X3X5.",
">.1X5X1X4X4X4X4X4X4X5X5X5X5X4X5X4X5X<Xn @ 1 u - X.4X5X<X<X5Xy.  9 O u | | Y Q E z   @ V.b.@ #.4X4X4X4X4X5X4X5X4X4X5X4X4X5X5X3X>.",
"1.1X5X5X5X4X4X4X4X5X5X5X5X4X5X4X4X>X4X3 l d.9 3 -  .5X4X4X<X%Xa.@ @ u     1 - - @   %.@.@.I.OX5X5X4X5X5X5X5X5X4X4X4X4X5X5X1X3X4.",
"4.,X1X5X5X4X4X4X5X5X5X5X5X5X5X5X5X4X1Xz 1 >XC.; 3 3 B I T M  .M s # 0 h 3 6 f   O.+X..i.4X<X5X5X5X4X5X5X5X5X5X4X4X4X5X5X5X3X,X4.",
"4.1X1X5X5X5X5X4X5X5X5X5X5X5X5X5X1X%X&XP.; Q %X[.N.;     ; o   I g.3 o   6 6 O ..&Xu.$.{.5X5X>X5X5X5X5X5X5X5X5X5X5X5X5X5X1X1X,X8.",
"8.,X1X1X1X5X5X1X5X5X3X5X5X5X5X1X5X5X1X5XT.(.5X*X5X{.'.Y.`.Y.`.n.x : r : . _ T.@X1X(.'.5X,X1X5X5X5X5X1X5X3X5X5X5X1X5X5X,X,X1X,X8.",
"*.*X1X*X1X5X5X,X3X5X3X5X1X1X1X1X1X1X#X*X1X*X*X1X1X$X*X1X1XY.Z C . $ w $ _ 1X1X#X$X1X1X,X#X1X1X1X1X1X5X1X5X3X3X3X,X1X5X,X,X,X#X-.",
"q.,X#X,X1X1X3X4X5X3X3X3X1X1X1X1X#X1X,X,X1X#X1X1X*X}.A Z C A q r i t o._.,X#X1X1X,X1X*X#X1X,X#X,X1X1X1X1X3X3X3X3X5X3X3X,X,X#X-Xj.",
"D j.-.8.7.>.>.e.<.e.6.4.7.6.6.6.8.7.9.7.*.7.9.3.q.*.( ( ( ( ` ` ` ( } q.7.*.3.6.7.=.h.3.6.3.4.7.4.6.5.6.5.5.e.6.e.>.9.7.8.;.j.D "
};
