/* XPM */
static char *grass[] = {
/* columns rows colors chars-per-pixel */
"64 64 124 2 ",
"   c #2F641E",
".  c #34651D",
"X  c #39661C",
"o  c #366A1E",
"O  c #3A691C",
"+  c #2D6625",
"@  c #2F6824",
"#  c #2F6A2B",
"$  c #336523",
"%  c #396622",
"&  c #356923",
"*  c #3B6C24",
"=  c #34672A",
"-  c #356B29",
";  c #3B6E2A",
":  c #357026",
">  c #3D7126",
",  c #35702A",
"<  c #3D722C",
"1  c #3F782D",
"2  c #366D30",
"3  c #367131",
"4  c #3D7432",
"5  c #3E7831",
"6  c #3D773C",
"7  c #3F7A3A",
"8  c #416E1D",
"9  c #416E25",
"0  c #416E2A",
"q  c #437226",
"w  c #497426",
"e  c #4D7826",
"r  c #43742C",
"t  c #49752C",
"y  c #46792D",
"u  c #4C7A2D",
"i  c #517C2E",
"p  c #437532",
"a  c #497633",
"s  c #457A33",
"d  c #4B7C34",
"f  c #427539",
"g  c #467C3A",
"h  c #4C7D3A",
"j  c #517E34",
"k  c #517E3A",
"l  c #4A7E41",
"z  c #53802D",
"x  c #468036",
"c  c #4D8136",
"v  c #46823C",
"b  c #4D813B",
"n  c #538135",
"m  c #5A8535",
"M  c #5D8836",
"N  c #53833B",
"B  c #5A853B",
"V  c #55893E",
"C  c #5B893C",
"Z  c #618837",
"A  c #61873A",
"S  c #618B3D",
"D  c #60903C",
"F  c #4E8241",
"G  c #548541",
"H  c #5A8643",
"J  c #568A42",
"K  c #5C8C43",
"L  c #578C48",
"P  c #5D8D48",
"I  c #5E9146",
"U  c #5E924C",
"Y  c #5C8C50",
"T  c #618C43",
"R  c #618F49",
"E  c #639345",
"W  c #6A9746",
"Q  c #63934B",
"!  c #6A964C",
"~  c #66994E",
"^  c #6C9A4D",
"/  c #729C4D",
"(  c #789F4E",
")  c #639652",
"_  c #6A9751",
"`  c #659A53",
"'  c #6C9C53",
"]  c #659C58",
"[  c #6A9D5A",
"{  c #729E54",
"}  c #719E59",
"|  c #6EA155",
" . c #6EA159",
".. c #74A355",
"X. c #7AA556",
"o. c #74A957",
"O. c #7DAA57",
"+. c #74A45B",
"@. c #7AA65C",
"#. c #76A95D",
"$. c #7BAA5C",
"%. c #7EB15E",
"&. c #72A761",
"*. c #79A661",
"=. c #76A962",
"-. c #7CAC62",
";. c #7DAF68",
":. c #7EB164",
">. c #7FB169",
",. c #82AC5D",
"<. c #88AF5E",
"1. c #83B05E",
"2. c #89B35F",
"3. c #81A663",
"4. c #82AE63",
"5. c #89AF62",
"6. c #80AE6D",
"7. c #84B264",
"8. c #89B464",
"9. c #8ABA64",
"0. c #84B36A",
"q. c #89B46B",
"w. c #85B96C",
"e. c #89BA6B",
/* pixels */
"j @.T a u 0.-.E s h = $ p $ 6 h } @.j a [ = r N 4._ a h j a j e 5.3.V d j ,.8.R p l = = p = 3 v ' 7.s c ' . 0 k 4.} f p k j m 9 ",
"a _ 4.u d 0.~ * r h L k ; = 2 = r -.0 d Y = N $.8.Q k = j q.,.i ^ 4.*.d u 4.! 9 p h l l < = 4 + s *.4 5 R * m q.4.Q g ; n 4.3.a ",
"* p +.r d +.w * T q.-.; = = f = K +.0 . 0 = T q.E a 0 P 0.4.....t ..-.9 n ..q 0 q < p < + = 7 + G *.p 2 = % T $.! r r J ,.4.( ( ",
"f p +.r r ..u j ,.4._ l l # # # s [ k * % d l 3.N % p ;.4.! n q a q } 9 d } d q y t r c l = = & d [ l 3 = d H $.N & < >.7.^ j w ",
"< ; ` * a E t B q.{ d h 4 g 7 4 g ) < J i a j -.N * r -.E b V B * r { % a ) s N 7.%.q x < f s < a ) g 6 g d j $.b < < :.W u m B ",
"< r Q c r n q V } d r r ; g 7 - 5 b s 7.O.M j _ b ; d #.: N 7.$.r * E j a h 4 G :.:.%.u > h r a t h < 5 < ; n E d - c +.o n 7.,.",
"$.n n =.s . < N k r r < . o > < g 5 > ' 5.1.j O s * r | > | | 0.$.N q r * * 4 h N -.0.$.. o n ..r y > r r q 9 w N < r ' 0 } @.;.",
"8.@.u -.#.d N g r *.r < r y y :.+.& < d / <.,.9 o r y d & > n { 7.#.r * 4 4 ; p r d -.o.q c 1.O.q n 7.o.r * j 7.=.< * r % 0 N } ",
"X.@.u d -.-.c a * } @.a t V 1.%.~ < p d m ( X.t H 0.-.r < G j j | =.c 1 c < o c h < s #.n O.9...z %.%.$.$.B ,.q.+.< d t > B N k ",
"9 O.u * I +.a N * a } @.B o.:.E r ; r N j A @.m 4.4.! j p h n 9 r #.y : x | r r p g h $.n 7...u y | q u ..u 7.@.c J :.O.j t d * ",
"9 _ a r N +.a 8.,.w j ,.n 7.I > j N d n j i ,.H 0.E B k d p d 9 r [ g : x 9.o.q -   < [ j ..t o o > * a @.j X.w r V $.w...i n r ",
"< E . r E $.w { 4.@.A { a #.> s -.4.' d . t @.B } V j r k G r d = ` , < x o.7.o.c ; r r r -.< < r < $ a @.C o.q & g y O.2.X.t s ",
"p p p d J +.q w { @.j ..r +.p s @.} 4.' o & d N m n k C ..*.p f p 4 < h & > :.w.#.> < * g [ 7 b b c < F *.V $.r < 1 > u 1.%.y 1 ",
"s g p p < c y d j } r ! r ' ; < 9 w @.$.< < p h p a B ..4.! p 4 p h p p & > d =.+.o > * < 5 4 g 1 < f h $.u -.N : s c > z / < x ",
"h f h g < b c < q Q H P r Q a t n j W o.< , ; f < t n 7.W t < 2 g 1 c p o p s N #.* o > 4 + 3 4 v 1 p N | u =.g < , r s d :.< # ",
"H k ; p 4 4 s p d h h h s d < N j n n | s , s g r u q ..8 a g 4 G s u r $ < p G $.c n b b , & = 1 : > c d t < 7 < @ p < d +.d : ",
"3.H k p l 6 < p N s p h h h N c h < t r c < > V h r q o.w d j 7.,.m B *.N r > V | q q n e.#.s r 1 > y u > < y < 4 4 3 7 r n B $.",
"} } a l 4 p < d r p f ; f s a H c < b c < . n %.*.k w $.n Q ,.,./ X.j 6.:.y a 9 q i u u ..e.o.a > n %.o.< 1 c p h 4 3 5 c C $.8.",
"k k k p < s < & 0 d d r k a E @.r y < h > a 7.1.[ p > +.B :.7.! j j m 8.$.r * n $.7...t d $.e.o.r :.w.o.1 , r V b r v < j q.4._ ",
"i a t 0 g b r c j k B m n S 7.O.n N H G a u 1.^ h * a d d 7.K * t j u O.-.B d 0.w.| > > r t -...u :.| > 1 : * w.#.u * > n 4.R $ ",
"d d * V c b d q T 4.8.W A <.8.O.n @.*.0.! j X.B g $ 0 r d #.* r N a X M @.m 4.0.| o y s b c j X.d *.* < 1 1 s o.e.O.u > u @.* p ",
"p N B -.$.c r d -.4.4.,.m 8.,.E j } a } ..r o.d 4 g h = s H . < p N n u X.q 4.=.r o x x c a i X.n #.> 1 v : < a @.8.o.. u E . ; ",
"N s k } 8.-.d a 0.! A X.Z <.W y q k > r $.d -.r f b g < y < < d c d y j ^ t $.< < 5 < g a y d +.V +.& : v 7 r * u 4.#.q y > r a ",
"b r q w } -.d d _ k A O.M X.n d * g * < +.d +.b c < < p c b :.=.B r 0 p 9 J #.y r < b :.w.' t } a c 1 < @ b d p r P +.d y c 0.#.",
";.G % q T 3.a % b d H @.a 7.n < r < . <  .- c & < < < g J =.~ w.$.N . r r s +.c h J >.>.$.d % & s 5 < : p d r p k L ;.< v #.| :.",
">.=.t a j ..h - G p k @.P +.h b g 5 - < #.> - o < 1 < - y r y ^ w...a h 5 p c   $ N 0.+.N r < s f s : @ < d 0 p p p ] + & v * | ",
" .*.t d d 0 g ; b + h =.a h G g < 5 h F  .x < p & v c - O q u a _ *.r b g 4 , s r c #.r * k N d g - & 5 q q y d p g ; < 5 - s a ",
"p +.* * k p d p g & h d * r g p c r p g 1 I >.=.5 < b < c o.t d r 4.< & g g g f y > $.n * r d f b f 7 d > I 0.#.h h g < , = s k ",
"r [ r < s r p r s ; < & c & B H s < g a G 7.=.Q p 5 - g %.O.w d 0 +.* * g ; 5 p c > ' O d % V B d p p p K :.*.E < r < < g 4 p h ",
"* d p p r ; d J r g < & ; b q.-.n q % a 0.$.r * ; f = p :.I a d 0 h r h < ; h b < b r & ; N 4.-.H 9 & d :.#.r * < < > > , , a h ",
"V y   p b s N  .o > < 1 J ..{ 5.8.n q k 8.T r g * b ; G +.r c V G g   p j d N &.& p p < V ../ 7.,.M > c :.Q a g ; k q r 5 < N L ",
"+.B < 1 & L w.=.y c : b  .r t ( 8.*.n B ..* r d I +.h d d q y #.+.N p r * J 0.=.f h ; J  .r a { <.O.c V +.= r h P $.u a b ; p @.",
"d -.-.t y :.;.Q p h - p r s a k _ -.u c ` o r s 4.R a j u c c > y w.+.d a 0.-.E p g ; 4 p s f b ^ $.c d ` = < b %.E t a c d b u ",
"p ..+.o c :.Q * 4 r b d * % < f d =.> p L 7 c J *.9 t * m 7.%.d t | +.X a 7.~ * r p h h < - ; g d #.* r Q p d H O.O d X c 7.-.d ",
"< > #.< d +.r t d t d < $ < s ; H +.r $ & 7 g h [ X r T -.$.+.' < ; -.r a +.r r c r a h $ = b & N -.p . % t n u [ * t K 4.4._ $.",
"s y +.; s ' d w C w...V b f - 5 a _ b < & v g 5 0 $ N 7.0.Q . r s p [ < d ..d r b > u < s h f h h Q d < * J $.t s $ V $.8.! o r ",
"- < _ < g Q r V 2.o.n | ; l G < y Q r b s y 5 < 4 r < :.Q $ B N * p ) > d P s d c N C y k G a t k s N b K 7.,.j k h T 8.T X T N ",
"r > ` s r v y 7.%.E > y 0 G 0.=.u n r r s > g - f p s =.* N 4.;.f ; [ a p h p g d 7.$.V j j B B k h t n $.9...B l h H } O m $.4.",
"-.G * f <   x :.U < - < . * ~ 8.4.h * * q y J h 7 4 5  .* @./ 4.4.h * s ; = p p a -.q.-.n j 8.O.k N j m 7...n a 3.A j { * X.} 4.",
"6.@.; ; 1 1 V #.@ < * & q n t ^ -.@.0 q w :. .< $ + s g * * i / 0.=.* 0 < a h h d a 4.-.M ,.8.X.q 0 9 m O.n d j 8.3.m j O O n / ",
"} 3.r < y s V | & g < o c 7.@.u j @.u C 7.$.r y g > h p r d u m { +.r > r d c d N a n O.M 4.,.i B B j A $.w j B <.2.,.t 9 j u M ",
"a } 0 r c r 1 , b  .& J :.1.' ' j +.i 7.7.I y c y x 5 h q S 8.@.w +.> < V u q y r d n @.A ,.i M 7.O.j B @.j j i M ,.X.i a K 7.3.",
"l ) = r c d > d 7.o.c %.7.Q y * d ..e -.Q p r y c c N n M -.q.T a ~ o N 7.%.%.m n t w { M @.0 T 1.9.$.m a t M M e D ,.j B 4.-.! ",
"h Y 0 a n k * K 7.O.e %.E 1 < ; u n n | $ ; y N :.#.m O C 7.Q % d I < 7.%.O.9.O.n u M u j @.k N ,.8.$.j t j 2.X.e m o.q B 0.Q . ",
"< p N ;.;.j t a ,.D n / * c < s >.O.s ` * = G +.^ 9.o.m u +.= p r s N @.j w O.,.u z 4.4.j n b G m O.7.d B 8.8.,.-.B 4.a n +.= < ",
"s d r } 6.*.k S @.X u ..o - s :.-.I d U p 4 4 s u ^ 8...j +.; f s s ; N u t M 4.M 1.8.+.d G b d q i $.M 8.7.{ Z ..P ..d d +.; s ",
"a p d % ' 7.@.j +.. G R o c 7.#.q y ; 4 < , r p 9 e ..@.t ] + - h a k j d j T X.B 7.X.j r p N r 9 T X.m 2.O.t k B k N g s ) * $ ",
"B j k 9 r ' #.a R 0 h r < B :.~ > : < 5 5 < s d C j 8 ( r ) c < L g h N a j H @.T X.t r h G h b N H X.n X.j j q j k N h ; ) d < ",
"*.P a b - < =.5 = g p p a r  .s r d s r c > 9 T 7.X.q ! d j k -.@.J h b j j T } T -.k k l l B k b J ..K @.j t j a n N d p h n 4.",
"+.' y N o <  .5 = p p * ; > ` < K +.$.B q * a 4.,.E j _ m C 8.$.{ ..g h t j j i m @.n k k H k k h k k J ;.n t k h V b d V B 8.4.",
"k G d q > > ] - s g k j n c ; b | < | -.B d $.0.R % q j m 0.$.! m d d N k B j i i 0 B j a g j k N q d N +.N t t H k n c n 0.;.! ",
"a h 9 j n r f c h a j 4.$.V < < h r b [ o.* 7.E 0 d n j u $.E * t j a h T 0.,.j j i t n N a k m t t r a k n d J @.B N u d -.R * ",
"l d j 5.,.H y p N a w ^ 8.O.a > < b < p +.c  .* k 6.;.* u $.X q j j j k q.q.( A 8.,.A k d V 8.,.i m j N N h N G 8.3.m 8 i O.& < ",
"f H } _ q.@.r > d 9 u w ^ 7.#.o & : ; d +.b ' r 6.6.P X d $.  > t k k H 4.@.k A ,.5.X.m a d ,.8.,.i k j d * k d o.q.@.X j +.. < ",
"k h % 0 ! 6.+.q o n 4.X.w { +.y < < o v | < #.< ;.K < < d P r c j j a P 3.n j i m 4.,.m j q A 4.,.9 w H d k d d B 4.3.9 0 Q r s ",
"k 0 a k 0 { o.q V %.0..._ t #.< g 4 < < ` < U s ~ * a p $ s 7.O.m 9 p P @.t j t j i 3.k h t i A X.m A 3.0...d t d B -.r . s ;.-.",
"=.N 0 -.V n o.> :.%.Q N r 0 } * h p h s ) s & u I . s p f +.| 7.4.n $ J -.N n j j V -.n h h k m $.B 8.8...M } B d n #.d 4 &.' 6.",
">.&.r 0.} a | q :.~ > y a h  .r g s h 5 - p g > o a d & b r * ' 0.+.& L  .c b N j K -.k h p q k @.C ,.X.B j M d c K +.* h N 9 ^ ",
"+. .* | *.y T y  .& 1 > g g Q s G g h d . q c v - h u & > r V t { @.< g N N d b h N +.b g p j B ..H O.j i n z M k G =.& r N n t ",
"y +.r * ' d P d #.o g < 0 0 k k r < s d r V w.#.4 b < r I :.*.d q +.< c c r d r h * b r ; 4 k d * c 4.i t S 8.O.p h ; p h k k d ",
"r +.> r a ; a a R * r x d h H B k t h * K :.-.U p p d c -.7._ a r +.r - g r < r r * r c h b V m j d Q u K 4.X.E 0 r d s V c d N ",
"o d < s p * d T j s p x < N 6.4.N 0 . t w.$.q o & G  .a 0.E * y X d p g p & b N g d < d p h 8.7.m w X d w.+.t * * N =.0 N a ; g ",
"V B % s k h k 5.@.q p 5 d +./ <.4.B 9 n -.E q u a w.+.N } r j V C k & 4 g d N >.$.t r < V  ./ $.,.C q u :.Q s r a 0.@.j p s h K ",
"8.+.- 3 = Y q.4.! N < F =.9 e ( 5.4.j M +.o q u 7.$.' r % 9 d @.8.=.= 4 * L >.;.' a > V  .y w ( 8.o.n V +.* < h $.7.! 0 ; ; h =."
};
