/* XPM */
static char *tree[] = {
/* columns rows colors chars-per-pixel */
"64 64 256 2 ",
"   c #020400",
".  c #0B0301",
"X  c #010C00",
"o  c #0C0B01",
"O  c #0D0009",
"+  c #140400",
"@  c #1B0500",
"#  c #140B01",
"$  c #1C0B01",
"%  c #18090C",
"&  c #021401",
"*  c #091403",
"=  c #011B01",
"-  c #0A1A04",
";  c #061809",
":  c #191803",
">  c #290B02",
",  c #291608",
"<  c #3C1504",
"1  c #391809",
"2  c #39140B",
"3  c #012300",
"4  c #022C02",
"5  c #0C2D0A",
"6  c #0A2906",
"7  c #152B04",
"8  c #033302",
"9  c #0A3405",
"0  c #043C03",
"q  c #0A3C05",
"w  c #0B350A",
"e  c #063D09",
"r  c #0B3C0B",
"t  c #063509",
"y  c #12340D",
"u  c #163908",
"i  c #0D3A11",
"p  c #0D3610",
"a  c #133B12",
"s  c #1A3B12",
"d  c #382616",
"f  c #283813",
"g  c #262F0C",
"h  c #431A06",
"j  c #431B0A",
"k  c #441707",
"l  c #481E10",
"z  c #492816",
"x  c #47210D",
"c  c #4E2A21",
"v  c #034202",
"b  c #094206",
"n  c #054903",
"m  c #0B430A",
"M  c #0A470A",
"N  c #15470B",
"B  c #0D520C",
"V  c #0A5304",
"C  c #14540E",
"Z  c #0F4711",
"A  c #1B4C19",
"S  c #174914",
"D  c #1A5717",
"F  c #0A5510",
"G  c #284A1A",
"H  c #354C17",
"J  c #25571C",
"K  c #1D631B",
"L  c #1F711F",
"P  c #27651E",
"I  c #35651D",
"U  c #39681D",
"Y  c #39701C",
"T  c #2B4822",
"R  c #324C23",
"E  c #285A25",
"W  c #38582A",
"Q  c #3A5931",
"!  c #286725",
"~  c #336423",
"^  c #3B6524",
"/  c #356923",
"(  c #3B6C24",
")  c #356A2B",
"_  c #3C6D2B",
"`  c #39652B",
"'  c #247323",
"]  c #2C7729",
"[  c #3C7325",
"{  c #3D722B",
"}  c #36772C",
"|  c #3D6D33",
" . c #3D6D3B",
".. c #346D34",
"X. c #3C7431",
"o. c #3C723C",
"O. c #387A35",
"+. c #2E7F33",
"@. c #475827",
"#. c #426E25",
"$. c #436E2B",
"%. c #43662A",
"&. c #427325",
"*. c #43732C",
"=. c #49752C",
"-. c #457A2D",
";. c #4C7B2C",
":. c #497726",
">. c #517A2C",
",. c #436D32",
"<. c #486836",
"1. c #526D38",
"2. c #447433",
"3. c #4A7433",
"4. c #457934",
"5. c #4C7C34",
"6. c #447A3A",
"7. c #4C7C3A",
"8. c #48743B",
"9. c #527D34",
"0. c #527D3B",
"q. c #557839",
"w. c #41671E",
"e. c #3F6C43",
"r. c #487A43",
"t. c #577944",
"y. c #4C6942",
"u. c #607D43",
"i. c #2D8A2C",
"p. c #328C2E",
"a. c #2F8D32",
"s. c #3A8535",
"d. c #348C34",
"f. c #3A8C36",
"g. c #3C843C",
"h. c #358C3A",
"j. c #3C8C3B",
"k. c #378435",
"l. c #349234",
"z. c #3A9235",
"x. c #3A933B",
"c. c #3C9B3D",
"v. c #359437",
"b. c #2F902F",
"n. c #4B812E",
"m. c #448134",
"M. c #4C8135",
"N. c #4D823B",
"B. c #42883D",
"V. c #538235",
"C. c #53823A",
"Z. c #5A843B",
"A. c #56893A",
"S. c #5B8A3D",
"D. c #5A8535",
"F. c #43983D",
"G. c #52842D",
"H. c #628B3D",
"J. c #3C8D41",
"K. c #3D9B41",
"L. c #3CA040",
"P. c #448C42",
"I. c #478746",
"U. c #548341",
"Y. c #5B8344",
"T. c #5B8B42",
"R. c #568846",
"E. c #429342",
"W. c #489948",
"Q. c #5C934C",
"!. c #558656",
"~. c #549655",
"^. c #4F9B50",
"/. c #638A49",
"(. c #63934B",
"). c #6B954E",
"_. c #689748",
"`. c #668B57",
"'. c #738C58",
"]. c #6C9C54",
"[. c #6C955A",
"{. c #679855",
"}. c #729E53",
"|. c #74995A",
" X c #73904E",
".X c #45A243",
"XX c #4DA94A",
"oX c #4AA448",
"OX c #5BA859",
"+X c #5AB85A",
"@X c #4FAE4F",
"#X c #6DA35B",
"$X c #67A257",
"%X c #73A354",
"&X c #7AA557",
"*X c #74A45B",
"=X c #79A65B",
"-X c #75AA5C",
";X c #7BAA5C",
":X c #79AC56",
">X c #61B75C",
",X c #78AB57",
"<X c #669F6A",
"1X c #7B9966",
"2X c #66A966",
"3X c #7AA562",
"4X c #7DAC63",
"5X c #7CAD69",
"6X c #76A763",
"7X c #62BA63",
"8X c #69B867",
"9X c #7EB263",
"0X c #76B76B",
"qX c #71B072",
"wX c #5EAF60",
"eX c #5CC75A",
"rX c #63C75F",
"tX c #64C464",
"yX c #6BC565",
"uX c #65CC64",
"iX c #6ACB65",
"pX c #6CC66B",
"aX c #66CC69",
"sX c #6BCC6B",
"dX c #66C668",
"fX c #71CB6C",
"gX c #72C66C",
"hX c #66D265",
"jX c #6AD16A",
"kX c #71D26C",
"lX c #6DCB71",
"zX c #6EC576",
"xX c #74C473",
"cX c #73CB72",
"vX c #7BCC76",
"bX c #7BCC7A",
"nX c #7AC679",
"mX c #75D075",
"MX c #6CD070",
"NX c #5FC363",
"BX c #82AC5E",
"VX c #80A659",
"CX c #83B45A",
"ZX c #83AD63",
"AX c #82AC6B",
"SX c #87A86A",
"DX c #84B164",
"FX c #84B26A",
"GX c #8AB56C",
"HX c #89B365",
"JX c #89B476",
"KX c #91AF70",
"LX c #839968",
"PX c #81D37F",
"IX c #7FCB80",
"UX c #83CA81",
/* pixels */
"0.=X/.;.;.FX5X(.4.4./ ! X.Q y.Q y a 5 5 w 3 4 5 s y 5 5 5 <.t.9./.N I.E.P.E.J.x.P.O.4 4 6 3 4 E |.AX8.7.].( #.0.DX$X4.3.9.9.D.#.",
"5.{.4X5.M.FX).( #.N.R.N._ N 9 J o.2.y. .r. .o.o. .o.o.e.e.E G u J R.nXnXmXcXmXbXIX8Xo.o. .8.o.G q $.,.8.`.I 0.GXDX(.6.) q.ZX&X>.",
"( 2.*X*.;.%X&.#./.JX5X| S D D P.PXvXPXvXcXbXbXbXPXxXbXbXIXo.6 & D nXcXsXiXyXpXsXlXlXlXbXbXnXPXW.P E J  .~ ^ /.&X(.*.2.R.ZXHX%X=X",
"2.2.3X( &.%Xn.V.3XJX`.W S $XPXcXfXyXrXyXpXsXaXsXyXsXaXsXmXIXT = O.cXsXiXrXkXfXfXsXaXjXjXsXiXyXgXvX~.Z T ~ 5.H.:XC./ $.FXZX).9.*.",
"{ { ].Y ;._.*.D.FX{.W q 2XbXyXsXaXsXpXsXiXuXhXeXyXuXfXgX>X0XS E zXtXjXsXfXyXyXfXsXuXjXaXtXfXiXkXfXnX2X3 ) 4.n.9XN.( { AX).>.Z.C.",
"{ ( Q.M.&.M.&.T.*XI q qXvXpXaXaXuXjXpXcXiXhXhXhXhXuXrXrXF.m.b S h.L.NXfXyXiXkXrXaXsXMXsXpXiXuXrXrXfX2X= / &.M._.M.( N.*XU D.DXZX",
"5XV.V.4X*.^ *.7.J v 8XgXdXsXjXuXuXhXaXlXpXcXtXuXuXeXz.B.B.8 D J.h.d.c.yXkXrXrXiXuXsXdXsXmXuXjXhXiXcX2X3 / #.&.*.C.[ *.].&.%X&X;X",
"GX*X-.9X=X0.N.J N >XgXyXsXsXsXsXaXaXlXsXlXlXXXc.c.v.j.g.8 ! O.J.J.j.z.z.c.c.+XkXuXsXsXfXpXsXiXuXiXvX<X= ` $.9.ZX=X*.( *.^ ( D.%X",
"&X%X5.9.3XAXJ D OXgXfXiXuXhX+XF..X.X.XW.L..Xv.h.g.J.I.8 = ..' B M m I.j.d.b.K.L..Xc.XXfXsXfXsXsXaXzX2X3 ].Z.4XGX*X#.5.*._ C.C.M.",
"&.;X*.^ [._ E ~.bXfXtXjXjX@Xc.z.f.B.f.f.F.z.P.g.! b q A D o.D 0 9 t ! g.h.d.i.a.l.d.z..XXXXXXXXX7XIX<X= /.V.BX;X9.R.9X9X9.;.5.$.",
"&._.5.2.t.9 6.UXcX8XmXsX@Xv.i.f.} D d.k.C C G ) ..n C N...! B 0 8 3 m P h.x.a.d.z.l.f.z.d.d.f.' ] P. .= [.D.%X&.&.V.-X9X%X9.0.3.",
"&.T.I 2.`.u O.bXcXdX+X+Xv.l.z.f.! n j.g.v 8 8 E I.j.] ! b 0 0 M 8 4 8 0 ! ' h.i.] P ] ' ' ] ] C 0 q 6 & [.C.9X[ Y m.n.:XCX&X3.3.",
"*.3.2.7.U.q X.xX7X+Xl.p.b.v.d.d.f.j.a.j.O.O.O.} } ' v v n q q q q 8 & q b 0 D P 0 v b e m 0 0 0 9 6 6 & t.u.AX%.( } [ :.CXCX;.*.",
"=.4.2.8.,.8 m.2Xd.z.p.f.c.a.j.j.f.d.h.+.n v n 0 n v 0 8 8 t u 9 e 8 = w 4 r b q r w w r e e 0 Z q 3 3 = 3 ` 1Xr.2.4.m.Y G._.*.5.",
"3.8.U.6.8.8 X.2Xd.d.l.p.d.d.g.O.d.] v M b t r e i 4 = = = & X = i e w & 3 4 w w y a 9 r v v v J.8X7X8X8X8Xm = A | 2.} -.V.9X{ ! ",
"/.0.2...2.8 D W.h.a.l.d.l.j.B 0 V n v r b r 3 = 3 A ..o.o.y.y X 3 S r.<X2X0 4 4 = & = 3 0 ~.wX8XMXsXsXcXxX2X2XE m ~ 4.{ 5.%X4.} ",
"LXZ.t.X.6.) r D J.h.h.a.z.h.} C v v v w a w = 8 J.OXwX7X8X8XI.8 & = ! xXgX@X^.~.^.B.! J 4 r.8XmXiXjXsXyXxXcXbX2XP N | 2._ 9.A.-X",
"VX|.*.r.4.8.y S I.h.h.d.B.P K B v 0 r r 3 = J ~.7XjXjXuXsXcX8XB.A S 8 JXfXiXcXvXxXgX+XOX= 4 P.8XkXsXsXsXlXpXsXMX$X! N o.C.T.4XDX",
"q.Z.6.8.$.8.7 3 ! j.F.s.D q 0 0 0 q 9 3 E ! OXbXMXjXiXiXyXsXcX7XOXm.3 ..8XfXsXpXcXsXjXyXD = 4 E ^.lXlXlXlXaXuXsXvXQ.3 ,.0.HXAX[.",
"5.-.2.{ 0.0.s 3 C P s.P B 8 t r r 8 8 D qXIXpXpXiXyXsXsXaXaXMXsXmXOXZ = wXmXiXsXpXsXjXtXOXA & & F wX7X+XlXsXaXeX7XO.3 %.Y.AX/.%.",
"m.m.( Y.0.,.S 8.~.v ~ v qX! 8 8 Z M v 0XlXsXsXfXsXsXyXsXuXuXuXsXsXzXqXF +XyXkXiXsXsXuXjXpX^.S 4 V x.p.h.+X7X+XXXh.~ 3 %.7.-XI *.",
"} B.C.ZXSX9 ..IXnX$X0 qXzXxXJ 3 F P.h.yXuXaXiXyXsXsXfXyXaXhXiXaXMXzXzXzXfXkXrXiXuXiXiXMXaXW.g.k.s.s.d.d.x.l.d.d.j.P 4 W 2.Q.Y / ",
"V.-.9.VXKXu O.vXsXpX0XxXpXbXE & M j.f.z.rXiXiXiXuXuXyXaXaXsXaXsXdXjXaXaXuXyXiXfXjXuXiXtXpXK.f.f.z.d.z.l.a.h.d.j.g.! 8 <.2.[ [ -.",
"C.=.#.1.LXu } cXsXiXgXcXsXpX~...+.f.f.z.z.+XkXiXhXuXsXsXsXsXdXlX+XL.v.v.uXsXgXiXiXiXrXW.c.x.p.p.f.z.f.g.h.J.g.I.I.~ 3 t.8.C.0X-X",
"6XC.#.%.`.u } vXsXsXlXlXaX@Xv.v.x.d.d.x.d.E.W.+XsXaXsXpXsXgXgX>XP.P.f.p.K.K.7XsXkXrXc.l.d.h.z.p.f.j.B.I.I.M 4 5 6 3 6 y.t.SX].9X",
"FX6X:.q.8.q k.cXpXlXlXcXOXF.h.J.B.E.E.k.J.h.l.x.+XtXXXpXcXOXXXs.C 0 V j.h.h.K.XXXX.Xi.b.d.f.k.f.B.O.v q r & = 3 & X = 6 7 <._ ].",
"#X*X;.7.r.4 ] bXmXsXpXP.D N A A S S D 6.j.j.d.d.K.oXl.@X@XK.] B 3 X 4 P g.d.i.b.i.b.l.f.d.h.f.k.D Z 3 3 3 3 w a p 3 3 3 & R 7.2.",
"X.4X/ ^ Q S ~.mX7X^.J.0 3 = = = = & = E g.] L i.v.d.f.f.' ' B 0 6 & q 0 k.x.v.b.l.p.l.p.f.F.] C 8 3 a a q r q w e i i r & R 8.7.",
"*.].&.,.3 !.IX8Xg.0 0 b v b t i w w = = ! B v D ] ] O.] n 0 v v 4 3 0 M ! k.j.d.p.l.f.B.O.+.F 0 r r i t b v q q N 8 q w & Q ,.q.",
"U V.3.%.3 !.nXk.v 0 r b 0 0 e r r e w r e b 0 0 M v 0 b 0 v b 0 q q 0 q n ' k.s.f.d.f.] v b b e 9 w t b q q q m 0 m w 9 & W 8.5.",
"T.=.I 8.3 !.6.v 0 q v v m e e e 0 0 m e r q 9 q 8 0 m r 0 b e e r 4 = w q q n K g.j.] n v 8 0 m 6 X = r r b 0 0 q 0 q a X Q Y.U.",
"*XV.$.,.= 4 r q q v q q e r r e b 0 0 b 0 q 3 & 4 t w r t 0 m e r 8 & y a q 0 M Z M B 0 b q r 4 X = w w r t b 0 0 q 3 w & W 2.5X",
"5.5XAX<.= & = 4 r t e v e e e e b 0 0 b q q 9 = 3 i i e r b 0 0 i i 4 & & 5 a w w r w r 3 8 m 3 = 5 r b m e e i 8 3 = 3 W 3.C.-.",
"*.].=X^ = & 3 = w r m e b e r r r 0 0 0 0 b a 9 3 3 i i q 0 q b e e r 4 3 3 3 = = 3 3 9 4 w w 4 w y 9 q e i t 3 3 = & X 1.FX9X;.",
"[ -.3X%.G 6 & = = 4 4 q 8 9 a 4 4 e m b v q q q 4 = e r e 0 b 0 v v b r 9 4 3 3 3 4 4 r w w r m r u q q 4 4 = = = ; X * 1XZX].3X",
"X.} ].| t.7 & & & = = 4 = w 5 3 4 t 0 0 q q q q 4 4 w r e b b 0 0 v 0 b b r q r q w 0 e m q w 9 9 4 8 9 = = = = ; ; * X 1X X^ 2.",
"} [ {.{ 8.G & & ; ; & = = 7 & = w r w r r q q q q 9 9 4 w r e v v v v e 0 e r r r q r e e 8 w 4 = & = = = = * * * X = f /.U /.q.",
"} [ {.6.2.t.u & ; & ; & = & X & 4 w w w i r q q u 9 = & w t e r e 0 e v e e r r w 9 q 9 3 = = = = = = = & ; * & = & 7 1Xw.q.4XHX",
"6XU.) 5.#.^ u X = & ; - & X & & = = = 3 5 p i w 6 = & X = = 4 i r e m r m w r w 4 3 = 3 = = & X X & & & ; & & X H /.3.|.#.%X}.9X",
"JX3X` _ *.=.Y.W X X X & X X = = = 3 = = 3 = 3 3 = & & X X = = 4 a w w w i i 4 = = = = = & ; X X X - ; & * & G <.SX3XY.;.U Y D._.",
"[.5X,.*.*.5.U.`.R Q R & & & - & = = = = = = & = ; ; & X X & = = 3 3 3 3 3 = = = = = & = * *   X & = = = & X @.u.ZXAX4X=.#.V.;.D.",
"3.|.#.*.M.-.2._ 8.3XW Q 6 & & = & & * & = = = ; ; & & * X X & = = = & & & = = 3 & = - * * X   X = = = & & T 1.q.D.BX=X5.3.S.DX:X",
"q.]./ [ M.m.{ N.JX3Xq.SX= & & ; - & = - & = = = = & = * * X X ; = & = * ; = ; = & - X * *     ; & = & & X Q t.H.>.H.9X5.Z.ZXBX).",
"7.`.#.;.N.M.) R.HX;X:.ZXH & & ; ; & & * = & = ; = = * * = X X & & = = = = ; ; = ; & X *   * ; ; * * * = 7 1.ZX&X;.D.,X&.C.FX).^ ",
"$.*.C.9X9X5.X.4.4X(.>.&X` f & & & - - & & = & * & & & = - &     & = & = & = = ; & X       X X o X * * 7 t.KXHXDX9XA.;X;.9.*X/ ,.",
"8.4.[ %XFX6XC.T.;XU ;.}.U %.S = = & & = & = ; * ; & X X X       X & & ; = = ; & X & 6 - - - = = - & 7 /.KXHX}.S.%XS.%XG.9.*X| 8.",
"5.2.5.U ).GX&X>.%XI T.T.( q.JX6XR & X & ; & * * ;         O @ , #     * * ; & X X g 1Xy.,.| t.,.<.Y.=XZ.DX&X*.q.Z.9.C.5.2.{.) ! ",
"C.N.0.#.*.].;X;.(._ 5.2.[ A.5X{.%.Q W & X X X X X       # , 1 2 2 + + .     X   s 1X<.8.t.N.5.N.r.Y.%XG.:XG.9.=.9.0.9.5.{ {.5.X.",
"6XT.4.N.( { 6XX./ 6.*.*.2.{ 6X2.*.0.3.Q ` W R 1.`.<.  # , , < l j 2 d $ . R 1.u.0.3XC.C.t.0.U.C.C.R.*XS.&XV.=.0.3.C.C.5.2.C.C.5X",
"=X].-.C./ { $X2.) 3.2.[ { { {.[ S.=X4X0._ %.q.ZXAX1.O d 1 < k k < l z @ f 1.q.q.C.3XC.M.7.U.7.5.7.N.C.T.4XC.;.9.5.C.N.5.C.S.HXZX",
"0.U.5.*.[ [ {._ 2.6.C.5.V.M.) N.$X[ %X5XR.m.5XAX/.H $ c < < h x k < z $ 1././.>.9.:.A.;.=.5.M.A.C.*.5.C.=X7.=.*.T.C.V.7.C.DX5X_.",
"3.5.&.5.C.*.X.6.7.3.V.DX;XT.[ { M.*.7.$X#X[ 9X(.( @.+ c h h x x k k z # t.FXVX>.q.>.:.V.q.5.V.D.=.=.*.*.C.C.5.T.=XC.C.;.5.ZX(./ ",
"7.7.9.ZX;XT.-.-.7.5.:._.HX;X5.[ [ N.{ 4.-Xm.*X( 9.'.@ c j z < < z j z o LXGX}.H.HXVXH.D.5.Z.DX:X>.D.9.C.C.7.C.C.FXZXD.w.9.=X/ { ",
",.R.|.}.HX=X-.[ 7.#.>.:._.HX-XI / _ ) 6.#XM.$X( SXu.@ z h z < h l l d o |.=X9.D.VXHX&XV.5.;.BXHX&X9.9.5.5.( C.5.=XHX=XU 5.=XI { ",
"0.7.^ $.].FX=X&.Y M.ZX&X=.%X*X-.{ X.~ I.#XX.3X*.SX1.@ c < < z x h d z o '.q.q.>.D.ZX=XZ.9.{ S.BXBX#.:.S.5.N.4.4.S.ZX4X#.&.(.*.2.",
"C._ *.0.#.].-X[ S.;XFX%X).*.6X[ 7._ _ X.{.{ Q.5. XH $ z 1 < h j < x z # '.>.9.=.9.9.4XC.6.4.G.S.&XD.H.ZXHX%X>.;.9.C.4X*.I 4.5X5X",
"6XN.#.4XC.M.%X[ 9X9X).0.*.*.].[ 7.4.6.7.Q.6.) 6./.H # z < < k < < k z # '.Y.q.V.C.C.4XZ.0.7.M.D.;XD.ZXHX&XS.}.Z.5.C.=X5.{ #X].FX",
"9X=X*.AX*X;.%X[ 9X_.[ *.2.7.}.*.6.4.5.4.( 6.2.{ ` @.# c j 2 k < k l z : '.q.C.C.5.(.3XC.0.$.&.V.=XH.DX=XD.V.D.;.V.R.6X) N.C._ ].",
"*X*X/ #X4X-.(.-.#X/ X.[ 7.2.(.8.C.N.M.-.I { 7.t.W g 2 2 k j k < k k j , g 1.t.q.0.5.*XC.6.2.M.A.%XS.;XG.>.V.9.S.5.C.6X/ { C.C.=.",
"2.#X-.( ].5./.5.6XI m.-.{ -.0.7.*.[ [ m.{ Q.JX`.7 , d > > < < j < > 1 d 7 g 1.3.7.( 0.#.[ ( D.>.( 5.BX>.:.H.GX*X*.5.{ 4.N.7.V.q.",
"*.*X[ -.4.{ =.3.Q.( -.M.5.M.U.Y.q.*.M.[ R.AX'.f : d # @ $ > 1 1 > @ @ , d - f <.t.~ *.C.m.N.A.Z.9.5.(.;.T.DX=X(.*.*.6.4.U.N.5.0.",
"( 5.[ 2.2._ 5.T.9.2.-.m.{ C.HXZXZ.#.I -.JX'.7 : d # . @ # > 1 , , @ + # $ d : g <.t.$.V.X.N.ZXZXD.:.U ;.HX;X-.( ( C.=X#.C.5.{ 6.",
"S.C./ 2.7.7.Z.ZX=X$.2.O.5.%X}.BXZXC.$.0.LX7 o : # . % % # $ @ $ > $ % %   # : X f q.=._ W.).}.ZXBXA.&.;.4XQ.-.*.5.AX=X9.*.4.7.R.",
"HX*X) X.` Y.GXZX).9.{ N.6X#.>.}.HXHXq.q.g . . . . . O O .   . + . # O O O   .   X 7 %.R.#X4.;.}.HX;XV.S.*X( { 5.6XHX).*.( { 6.5X"
};
