/* XPM */
static char *wall[] = {
/* columns rows colors chars-per-pixel */
"64 64 191 2 ",
"   c #1C1800",
".  c #1E1814",
"X  c #211E0D",
"o  c #221E13",
"O  c #241F1A",
"+  c #232203",
"@  c #29280C",
"#  c #252116",
"$  c #2C2B11",
"%  c #26221A",
"&  c #2A251C",
"*  c #2D291D",
"=  c #292617",
"-  c #312E14",
";  c #322D1B",
":  c #343313",
">  c #383610",
",  c #3B3B17",
"<  c #36331C",
"1  c #39361E",
"2  c #3B3A1B",
"3  c #272121",
"4  c #2A2522",
"5  c #2E2923",
"6  c #2F2929",
"7  c #332D23",
"8  c #332D29",
"9  c #363125",
"0  c #3A3425",
"q  c #3D3A24",
"w  c #36312B",
"e  c #3B352C",
"r  c #3E392D",
"t  c #3C3632",
"y  c #3E3932",
"u  c #403D1E",
"i  c #413E26",
"p  c #413C2D",
"a  c #433D33",
"s  c #483F36",
"d  c #453E3A",
"f  c #4C4B1E",
"g  c #43431F",
"h  c #454424",
"j  c #494525",
"k  c #4C4A26",
"l  c #45432B",
"z  c #48462D",
"x  c #4C4B2C",
"c  c #504E27",
"v  c #514E2F",
"b  c #4F5321",
"n  c #55542B",
"m  c #58562F",
"M  c #5A582F",
"N  c #525425",
"B  c #464134",
"V  c #494435",
"C  c #4D4A33",
"Z  c #46413A",
"A  c #4B453B",
"S  c #4E493C",
"D  c #514D34",
"F  c #514C3C",
"G  c #535135",
"H  c #585534",
"J  c #5C5B33",
"K  c #55523C",
"L  c #59563C",
"P  c #5D5A3B",
"I  c #605E37",
"U  c #615E3D",
"Y  c #5E6230",
"T  c #64633D",
"R  c #68673B",
"E  c #696E38",
"W  c #656836",
"Q  c #6D713F",
"!  c #4B4641",
"~  c #4E4941",
"^  c #524D44",
"/  c #584F46",
"(  c #534D49",
")  c #555145",
"_  c #5A5545",
"`  c #5D5A44",
"'  c #56524A",
"]  c #5A554B",
"[  c #5D594D",
"{  c #5B5651",
"}  c #5E5A51",
"|  c #615E44",
" . c #625C4C",
".. c #635D53",
"X. c #645D5A",
"o. c #656344",
"O. c #696644",
"+. c #676840",
"@. c #6C6A44",
"#. c #66634C",
"$. c #69664C",
"%. c #6D6A4C",
"&. c #706F43",
"*. c #706E4D",
"=. c #6E7049",
"-. c #737443",
";. c #73724C",
":. c #78774B",
">. c #7C7C4D",
",. c #76794E",
"<. c #666154",
"1. c #6A6455",
"2. c #6E6A54",
"3. c #67635A",
"4. c #6B655A",
"5. c #6E695D",
"6. c #726D54",
"7. c #726C5C",
"8. c #757255",
"9. c #797656",
"0. c #777856",
"q. c #7C7A54",
"w. c #76725C",
"e. c #7A755C",
"r. c #7D7A5C",
"t. c #6C6561",
"y. c #6D6862",
"u. c #736D62",
"i. c #756E6A",
"p. c #767164",
"a. c #7A7464",
"s. c #7E7964",
"d. c #77726A",
"f. c #7C756A",
"g. c #7E796B",
"h. c #7D7673",
"j. c #7F7971",
"k. c #817E5D",
"l. c #817D64",
"z. c #817B6D",
"x. c #837C72",
"c. c #867E7A",
"v. c #7B804A",
"b. c #7F8253",
"n. c #7F8061",
"m. c #818249",
"M. c #838354",
"N. c #84835D",
"B. c #878A5F",
"V. c #8B905A",
"C. c #858264",
"Z. c #888565",
"A. c #8A8963",
"S. c #86816C",
"D. c #89856B",
"F. c #8C896B",
"G. c #878962",
"H. c #918E6C",
"J. c #8F916A",
"K. c #95936F",
"L. c #878174",
"P. c #8A8474",
"I. c #8E8975",
"U. c #878178",
"Y. c #8B847A",
"T. c #8F887D",
"R. c #918D74",
"E. c #928C7D",
"W. c #959373",
"Q. c #999675",
"!. c #9C9A75",
"~. c #96917D",
"^. c #9A957C",
"/. c #9F9D7D",
"(. c #8B8380",
"). c #8F8882",
"_. c #938D83",
"`. c #968E8A",
"'. c #969084",
"]. c #9A9483",
"[. c #9E9A84",
"{. c #97918A",
"}. c #9A9489",
"|. c #9D998D",
" X c #9F9892",
".X c #A09A8E",
"XX c #A39E93",
"oX c #A5A28D",
"OX c #A9A588",
"+X c #B0AD8A",
"@X c #AEAB9A",
/* pixels */
"i.P.e.l.x.f.u.| z.W.D.z.k.;.F.l.n.d.n.n.h.h.h.h.n.h.h.h.7.l./ D `.c.x.x.l.l.z.l.z.z.z.z.z.4.6.l.l.z.z.7.x.4.u._.x.c.x.k.x.l.k.k.",
"f.x.a.l.z.h.a.| k.^.x.l.k.N.I.e.n.n.n.n.h.h.n.i.n.h.h.n.k.k. .s `.c.z.z.z.z.x.l.z.z.z.z.l.4.1.w.l.z.z.z.c...] .Xc.x.x.l.l.l.l.k.",
"g.g.s.l.f.z.a.U F ].x.z.k.k.e.z.a.n.n.n.n.h.n.h.h.h.h.c.l.l. .s }.c.x.z.l.l.l.l.z.z.z.i.z.u.w.l.w.l.l.l.z. .s E.T.z.l.l.k.k.k.k.",
"g.p.l.r.f.f.l.K u ~.x.c.l.9.2.x.n.J.n.b.n.h.h.n.j.h.h.h.e.l./ s _.c.c.x.u.7.l.z.l.z.u.z.z.l.k.l.k.l.k.4.l.1.; c.E.z.l.c.4.k.k.l.",
"g.7.Z.r.f.z.l.F l ^.z.x.D.H.7.z.n.n.b.=.p.h.w.p.a.n.h.h.d.n. .d ).x.z.z.l.l.z.z.z.z.u.z.z.a.7.9.l.k.k.k.k. .i ~.R.x.l.c.9.l.l.z.",
"e.6.A.8.a.f.e.L v .XY.g.l.D.z.a.n.n.b.v.n.n.n.0.j.d.i.h.p.g.] s  Xc.z.z.z.z.l.a.u.z.z.u.z.l.9.9.l.O.k.l.k.D c .Xz.l.k.l.k.l.l.F.",
"6.*.N.T 7.7.*.U U D.z.g.6.*.s.w.n.v.v.v.w.p.n.5.w.w.i.i.5.e.) d ).x.z.z.l.l.u.1.l.z.u.u.7.7.9.k.k.I &.k.$.H O.x.k.l.k.2.k.k.k.k.",
"%.&.M.n %.%.@.U k.6. .p.9.U 7.2.o.Y W v.#.#.2.$.5.5.t.t.1.7.^ a t.t.t.l.4.7.7.7.t.u.4.1.1.$.%.:.k.M R O.U $.l.$.1.2.6./ $.%.$.U ",
"M Q m.f u j U &.H.v V  .H h z z h b E Q g l l l s s s s s s p p p s ! s s p s s s ! s / s i H l.k.u u i O.k.k.U U P v i u i D D ",
"R m.m.Y R | ;.:.k.k.l.7.O.I L D +.,.V.b.L  .K ` / X.X.X. .../ { { 1.7.1. .1.#.1.1.s 7 1.k.$.%.l.k.I I U %.6.k.k.6.6.2.#.#.2.2.k.",
"A.M.m.k.k.*.&.&.T F.I.l.H.!.~.oX/.G.b.E w.@X~.[.^.'.`.`.c.^.).).`.`.'.E.).'.`.).`.t.s z.XX^.l.k.k.Q k.k.%.%.k.z.x.c.R.~.R.E.E.R.",
"k.k.Q Q C.k.q.>.:.A.a.6.k.k.7.z.w.,.b.x #.|.5.n.z.x.c.x.z.l.z.z.z.z.z.l.l.z.z.z.z.X.p 7.I.l.k.@.*.k.k.k.k.k.l.l.k.k.k.l.l.l.u.k.",
"k.k.m.R l.l.C.k.k.e.f.x.D.C.z.z.a.r.J.x  . X4.i.z.z.x.x.l.l.z.z.z.z.z.l.l.z.z.i.i.u.d i.T.z.F.A.k.k.7.k.l.z.l.l.l.z.z.l.z.l.z.7.",
"k.A.A.-.a.s.l.k.l.l.c.f.2.w.z.7.S.0.b.<  . Xx.c.z.x.c.x.z.l.z.x.z.z.x.z.z.z.z.z.x.t.p z.I.k.l.F.O.k.z.l.z.z.l.l.z.k.7.u.z.z.z.z.",
"l.k.k.*.z.z.P.S.s.z.x.i.1.7.c.x.w.s.R.C ..).z.z.z.z.x.z.l.k.l.z.z.i.d.u.u.z.z.u.c.u.p z.~.k.l.l...z.z.l.l.z.7.l.7.7.7.l.u.z.l.z.",
"z.l.k.k.x.z.l.e.s.z.f.i.l.l.d.g.z.7.9.i ..`.x.z.x.z.x.x.z.l.l.z.z.z.7.a.z.x.z.z.u.t.a i.E.l.l.k.7.z.z.l.z.z.z.z.z.z.u.z.z.z.z.t.",
"l.z.k.7.l.k.l.l.k.z.7.l.l.l.2.l.l.l.6.F x.~.l.l.f.f.f.z.z.d.a.d.z.z.z.z.i.z.z.z.x.1.i c.x.l.l.k.l.l.u.z.4.7.x.l.t.z.z.z.t.z.z.z.",
"l.l.1.6.z.z.k. .k.k.6.k.7.l.k.k.l.7.#.H R..Xz.z.z.z.z.x.z.f.d.z.t.z.t.z.z.i.z.z.z.1.p x.c.z.l.%.1.l.c.c.l.%.l.l.z.z.l.l.l.z.z.{ ",
" .6.2.6.k.k.z.l.%.%.%.8.%.k.6.6.k.6.#.D 7.l.2.4.a.a.p.p.u.u.u.a.t.l.l.t.t.t.z.t.4.{ p F 6.k.2.$.k.k.R k.k.k.*.O.| O.%.*.k.k.1.%.",
"2.6.%.%._ H 6.k.6.| U U U k.k.U F /  .s _ / 1.l.1.1.1.1.X...X.4.X.{ ..X.X.X...{ 1./ p p / k.O.@.M I R k.k.@.U I U O.k.k.I P H U ",
"I s u H O.%.8.%.&.U H c H ;.k.U | / s ; u ; s s p p s s s p 0 * p p p 7 p p s p p p u 5 v | s s M R J J R k.R n n M R k.U J m c ",
"^.l.k.K.^.R.l.U s k.!.R.l.l.K.R.6.L u u 7.l.x.l.z.x.x.x.z.i./ a c.x.x.z.x.x.x.z.z.z.z.x.c.^.z.k.K.!.K.k.M u k.+XK.l.K.!.l.k.P u ",
"l.F.z.l.l.x.l.H   #.OXQ.F.k.z.K.z.6.p s c.c.T.c.Y.T.Y.Y.c.a. .p .X}.c.c.c.E.E.c.c.x.x.c.x.x.x.z.z.k.l.z.H ;  .'.x.z.x.x.c.x.1.p ",
"k.l.k. .H 1.k.u u %.c.k.z.l.l.k.z.z.F D x.l.l.l.z.z.a.i.z.l...S c.x.z.z.l.x.x.x.l.l.l.c.z.l.x.l.F 1.z...u 8 l.(.x.x.z.z.x.x.l./ ",
"u.l.u.4./ s s / p F z.l.1. .z.c.z...s ..a.l.c.7.z.z.z.z.z.f...A c.c.z.z.z.z.z.x.z.z.z.z.u.u.z.z.t./ ! s / d / c.z...X.c.x.(.X.t ",
"z.z.x.z.z.X.4.z. .p ~ s ..t.z.t.l.F 2.c.c.z.4.x.z.x.z.z.x.f...A }.^.x.z.z.z.z.z.z.z.z.z.z.z.z.z.z.4.t.z.z.s s / / { z.c.t.{ ( x.",
"z.z.u.z.z.i.z.z./ p / 4.z.x.c.x.i.l.x.l.z.c.z.z.z.i.i.d.f.d. .a ~.x.x.z.z.l.l.z.u.l.z.z.z.z.z.7.x.z.z.x.t.8 s / z.z.z.z.c.c.t.x.",
"t.u.t.u.z.z.t.z.! / ).`.x.t.t.t.z.c.1.4.z.t.z.i.z.z.l.z.z.z...s `.x.z.z.z.z.z.z.z.z.z.l.z.t.t.1.7.1.1.l. .s z._.l.z.t.{ l.x.t.z.",
"u.4.4.7.7.u.t.4./ { c.z.X./ / s ..x.u.t.z.u.x.z.i.z.a.d.z.a. .s `.x.z.z.z.z.l.l.l.7.4.1.4.t.l.4.z.l...6. .s k.l.l./ s s s z.l./ ",
"1.....1...1.1.1.s s 4.X.X.t.t...p / ..s / x.l.1.i.u.a.a.i.u. .s c.z.z.l.z.t.k.X.z.k.t. ......... . . .1.{ s ..4.4./ l.X.s s  .X.",
"/ |  .` / |  .` ~ s  ./  ...4.] { p s / ..4...t.1.4.X.....X.| s t.t.l.1.1.k.X.1.2.7.1. .]  .{ { / / 1./ / p ! X.X./ X.{ X.s s a ",
"s s s i s p s p s & p p s s s p a a p s a p s p a s p p p s p * p s s s p s s p i s s s s s ! d s a s p s t 8 s s ! ( t d d t d ",
"7 7 6 s z.{ l.X.t.u.u.] 4.] p ] a.a...r 9 x.u.p.p.p.5.p.p.p.y.p.l.t.l.u.l.l.l.t.1.s u 7 p 8 t d X.1.X.l.x.t.X.X.t.{ 8 / z.x.z.8 ",
"7 s / s X.x.c.c.c.x.z.x.c./ / _._._.P...] oX_.)._.T.T.'.'.E.T.)._.c.~.c.c.c.^.c.c...p 5 6 a / d t.x._.(.(.h.h.(.(.X./ c.`.(.x.z.",
"s / z.X.{ x.z.z.z.c.u.x.z./ 4.c.a.d.u.) B T.g.g.g.g.g.j.g.g.g.g.z.l.z.t.l.l.l.l.l...6 p 8 / c.X.{ X.x.z.z.z.z.t.z.( t.x.z.z.l.X.",
"p s z.x.l.z.z.x.l.z.u.z.x.] ..z.g.z.g...S '.L.L.x.g.g.x.x.g.g.g.x.x.z.z.z.z.z.z.t. .p s p ! x.x.z.z.l.z.x.x.t.z.x.( t.x.X.z.l.X.",
"/ s / c.z.z.z.x.x.z.z.z.x./ / x.x.a.f. .A T.L.g.x.g.g.j.g.g.g.g.z.z.z.l.z.z.l.z.z...p s / / / x.l.z.z.z.t.t.z.x.c./ s z.c.z.z./ ",
"z.l./ t.z.x.c.X.x.t.z.X./ s s u.x.i.p. .V T.Y.g.L.L.x.L.L.L.g.j.z.z.t.t.t.z.z.t.z./ s 4.z.l.s z.z.x.z.z.x.x.z.X./ s s X.x.l.z./ ",
"z.t.X./ t.z.x.z.t.x.z.{ / X.4.1.z.7.u.[ V _.Y.g.g.f.f.f.g.d.p.d.z.i.z.z.l.z.z.l.l./ s x.x.z./  .l.z.l.X.z.x.t.! / z.t.l.t.l.z./ ",
"X.l.x.4.z.t.X.t.l.z.X.z.z.x.z...d...4.] B T.Y.f.x.g.g.g.j.s.a.f.z.z.i.z.z.t.z.z.l.] s z. .X.z...X.t.X.l.l.t.l.l.x.z.t./ z.l./ / ",
"{ 4.z.X.../ / / 4.4./ t.x...{ t...4._ ^ A Y.z.z.d.d.d.d.a.a.s.d.X.l.t.z.l.t.l.l.X./ F l./ k.1.$.1. ./ s z. . .7.X. . .4.1. ./ L ",
"/ / / A s s s s / / ^ s s F ~ / ^  ._ A p ....4.i.i.u.5.5.3.5.3.X.X.X.X.X.l.{ { ..s p s L $.F F p s p /  . .F / / s F / / / / F ",
"s p e 3 7 7 p s a p s p 7 p 8 p e p a 7 * e p A t Z y t B Z r y t a p p e p s s s p * u s u & ; - ; u p p p u ; ; ; p p u p p ; ",
"x.x.z.z.z.x.x.z./ p u.c.z.x.z.x.z.g.z.u.z.z.x.z.h.n.n.n.n.y.B B x.z.l.z.c.x.{ t 7 p / k.l. .$.k.l.4.l.1.1. .k._ k.l.l.z.l.l.z.t.",
"c.x.c.c.c.x.z.z.4.7 z. XY.c.z.c.~.x.c.x.'.Y._.x.c.c.n.).).v.y y  X`.c.x.x.c.x.z.p p l.x.l.k.l.l.x.t.x.l.1.l.^.l.x.l.x.c.x.x.c.x.",
"z.l.l.X.z.l.z.X.i.s z.c.u.z.i.i.d.d.l.p.z.5.f.7.n.3.{ ' { ~ w y z.z.z.z.l.x.x.z./ s l.l.k. .k.1.l.l.t.l.L z.c.l.k.1.k.l.l.t.l.z.",
"z.X.z.z.z.z.z.z.4.p 4.x.u.z.z.z.u.z.a.d.f.5.f.5.n.y.{ ! ~ ( Z w z.t./ / l.x.z./ s F k.1. .%.k.k.t.l.l.l.D l.z.k.l.k.t.l.t.l.z.t.",
"X.z.X.z.t.t.t.X.4.s 7.T.i.u.u.u.7.z.7.i.a.u.f.5.3.y.n.3.y.n.3.w 3 s { 4.X.z.{ / ..z.z.4.$.$.%.k.l.X.l. .s  .z.l.t.k.l.k.t.l.l.k.",
"z.l.X.t.p.u.5.5.3.w 3.U.u.u.5.y.n.3.3.3.3.n.n.y.X.3.n.3.n.n.! w { { n.n.3.n.n.3.n.3.{ n.n.v.3.{ ..l.1.#.i L n.d.p.d.5.} =.n.n.,.",
"X.t.t.X.y.5.5.5.5.r y.n.u.p.5.5.3.n.n.X.y.{ { v.X.3.X.{ 3.} ( Z c.j.3.) Z ! X.n.{ 3.y.} { } v.v.7./  .k.i ) n.i.5.p.y.n.n.0.W G ",
"4.1.X.X.<.<.<.3.<.r } d.5.w.5.5.3.} { n.3.{ ' } } } { { { { ! t X.3.' K ( y y ' ( ( } n.3.[ o.v. .$...| g #.P.2.5.5.#.#.=.=.=.=.",
".. . . .<.[ [ [ [ r ) <.<.3.3.3.3.3.} 3.{ ( ~ ) ~ ~ ! ( ' { ! w ~ ~ ~ ' 3.~ y y ! y Z 3.#.` ' v.j  .| v G $.#.[ #.[ #.o.#.o.W E ",
"p p a s p p r B y = 9 y B Z l B Z Z Z y y z Z z Z y w y y y 6 6 y y Z Z y Z Z 4 6 w ! Z 2 x v.Y u i x H %.L h G C q q l l b N N ",
"! s s s s s Z A S Z l Z ~ S Z Z y Z y w 5 w 5 5 = w Z Z Z Z d t y y ! y 4 y ( Z w 6 Z ~ Z x K K D < G ` | ` | ) ^ y l B z G o.Y ",
"x.z.t.u.i.p.p.d.n.d.y.d.n.d.u.p.n.n.v.) w = % % * w ) } n.n.y.n.X.3.{ Z Z { n.n.X.w Z n.n.o.v.` $.S #.K G $.w.| 5.#.w.n.2.8.o.h ",
"u.X. .} ....} ..' X.] ] X.} [ } { { ' K w % = y [ ) ) [ { } { { { X.( Z { X.{ { { w Z n.[ K K Y $._ <.L $.#.` [ 5.} } #._ [ Y , ",
"n.3.} } } } { } } } } } } } } [ ' } [ ~ w = = w { } } { { X.{ ' { X.( y ( } } ' { y ! X.} [ K x ` [ [ [ ` ` ) [ [ [ } { ` #.K @ ",
"} 3.[ } } } [ } [ [ } } [ [ [ [ [ [ [ ~ w w y Z Z ( { { ' { { ' { X.{ y Z ' } 3.{ w ! n.[ ` v.K [ [ [ [ [ ` [ [ ' ] } [ ' [ S $ ",
"} } [ ' } [ ' { { ' ' ' ' ' ' ' [ ) [ ~ w y ) ) y Z ( { { ( ' { ( ! t 6 y ~ { ! { w ! 3.) K +.K [ ' ) ) ` ` ' ) ) ) ' { ' ) z < ",
"} } ' ' ) ) ) ' ) ) ' ) ) ) ) ) [ ~ ) ~ < Z [ ~ Z Z ~ { ' ~ ( ' ( ! y Z Z ' { y ~ 6 ! y.[ K K z ) ) ) ) ) K K ) ) ) ' { ' ~ z r ",
"} ' ' ' ) ) ) ) ) ~ ) ~ ) ~ ) ~ ) ~ ) ~ 8 y ' Z ( ! Z ! ~ ! ! ( ~ ~ [ [ Z S ~ Z Z 6 Z X.' K K z K ) ` K K G K ) ) K ) ) K C z z ",
"! ~ ~ ~ ~ ~ ~ ~ ~ ~ ! ! Z ! ! ! ~ Z ~ Z 5 w Z y Z y w w y y Z Z y y z Z y y y y y 6 w ! ~ Z z K z ~ K K x z z x C K S S S z q l ",
"w w y w y y y y w y w y y w w w y w y w 5 5 w w 6 4 6 4 4 6 w w 5 5 = = q y w y 6 6 3 w Z y w x y z x x h 2 , , z x z r l 9 $ : ",
"o = 5 = & & % # % = % % = = % = 5 % = % = o % 5 O % 3 % O % % = o = o X = = o 4 O 4 . % Z < X 2 q q g g g , , $ q z r 1 q : + + "
};
