/* XPM */
static char *exit_full[] = {
/* columns rows colors chars-per-pixel */
"64 64 256 2 ",
"   c #0B0500",
".  c #151109",
"X  c #261419",
"o  c #28130E",
"O  c #162605",
"+  c #143D1C",
"@  c #1B3C1C",
"#  c #173B18",
"$  c #13330C",
"%  c #2B3019",
"&  c #3A1D33",
"*  c #391B29",
"=  c #1D2C2B",
"-  c #1B3423",
";  c #1B3B24",
":  c #1C342A",
">  c #1C3C2A",
",  c #163A25",
"<  c #242C2C",
"1  c #272927",
"2  c #382629",
"3  c #22342B",
"4  c #223C2C",
"5  c #253726",
"6  c #383828",
"7  c #262B32",
"8  c #392635",
"9  c #253632",
"0  c #3B3437",
"q  c #421D36",
"w  c #4C2B3B",
"e  c #462836",
"r  c #542C38",
"t  c #473538",
"y  c #5A353D",
"u  c #45352C",
"i  c #62383E",
"p  c #19580B",
"a  c #0E4416",
"s  c #154A14",
"d  c #1A4B14",
"f  c #14431C",
"g  c #1C441C",
"h  c #154B1C",
"j  c #1B4C1C",
"k  c #144314",
"l  c #1A5414",
"z  c #1C5B15",
"x  c #1C541C",
"c  c #1D5B1C",
"v  c #155517",
"b  c #104A0E",
"n  c #23481B",
"m  c #225D1C",
"M  c #24561B",
"N  c #375C1A",
"B  c #1D660C",
"V  c #1C6616",
"C  c #1E7108",
"Z  c #246C0B",
"A  c #25760C",
"S  c #236B13",
"D  c #23641C",
"F  c #2B631C",
"G  c #256C1C",
"H  c #286A17",
"J  c #36671D",
"K  c #2B741C",
"L  c #2D7A1C",
"P  c #287617",
"I  c #33741C",
"U  c #327C1C",
"Y  c #367A1A",
"T  c #1C4324",
"R  c #1C4C24",
"E  c #1D4329",
"W  c #184824",
"Q  c #1C5322",
"!  c #1D5825",
"~  c #214C23",
"^  c #23452B",
"/  c #234C2B",
"(  c #284828",
")  c #3A4529",
"_  c #245324",
"`  c #225B23",
"'  c #2A5B24",
"]  c #24532B",
"[  c #2A572A",
"{  c #345A29",
"}  c #274733",
"|  c #285732",
" . c #365835",
".. c #31463C",
"X. c #1E6221",
"o. c #246423",
"O. c #2B6625",
"+. c #266B24",
"@. c #2B6C24",
"#. c #2C632A",
"$. c #2D6C2C",
"%. c #226A28",
"&. c #346524",
"*. c #356A24",
"=. c #3B6C24",
"-. c #34652B",
";. c #356B2B",
":. c #3B6D2A",
">. c #3A6427",
",. c #2C7423",
"<. c #2C7527",
"1. c #3D7225",
"2. c #347D23",
"3. c #34742C",
"4. c #3D722B",
"5. c #347C2C",
"6. c #397827",
"7. c #396736",
"8. c #3D7432",
"9. c #397734",
"0. c #2C6532",
"q. c #46721F",
"w. c #494838",
"e. c #485B38",
"r. c #4E4F34",
"t. c #61523F",
"y. c #426E24",
"u. c #426D2B",
"i. c #486B2B",
"p. c #437225",
"a. c #43742C",
"s. c #4A752D",
"d. c #447A2D",
"f. c #4C7A2D",
"g. c #497625",
"h. c #517C2D",
"j. c #52752C",
"k. c #456936",
"l. c #526837",
"z. c #437433",
"x. c #4A7533",
"c. c #457A33",
"v. c #4C7C34",
"b. c #4C7D3B",
"n. c #46763A",
"m. c #527D34",
"M. c #527D3A",
"N. c #557837",
"B. c #63763F",
"V. c #4F2A42",
"C. c #583346",
"Z. c #512A44",
"A. c #633B47",
"S. c #3A7340",
"D. c #575049",
"F. c #674349",
"G. c #694452",
"H. c #6A5755",
"J. c #476B43",
"K. c #4C7944",
"L. c #587948",
"P. c #576844",
"I. c #667849",
"U. c #6A6B4E",
"Y. c #34841C",
"T. c #368719",
"R. c #358719",
"E. c #3B8423",
"W. c #3C8B23",
"Q. c #3B842B",
"!. c #3D8B2A",
"~. c #358326",
"^. c #3D9227",
"/. c #3C8332",
"(. c #3D8835",
"). c #2F8324",
"_. c #43931D",
"`. c #428C2B",
"'. c #45872B",
"]. c #53802E",
"[. c #44932B",
"{. c #4A952D",
"}. c #489929",
"|. c #448234",
" X c #4C8235",
".X c #4D813B",
"XX c #488A35",
"oX c #538135",
"OX c #53833B",
"+X c #5A853C",
"@X c #5C8A3D",
"#X c #588838",
"$X c #4A9432",
"%X c #4C9C32",
"&X c #4E9B39",
"*X c #489337",
"=X c #529D35",
"-X c #539B3B",
";X c #56973B",
":X c #51992D",
">X c #618C3D",
",X c #4EA32C",
"<X c #53A62D",
"1X c #4EA136",
"2X c #54A434",
"3X c #54A33D",
"4X c #59A839",
"5X c #5CB338",
"6X c #63B73D",
"7X c #61A33F",
"8X c #4B8444",
"9X c #538441",
"0X c #5B8B43",
"qX c #588747",
"wX c #589846",
"eX c #51914A",
"rX c #638A48",
"tX c #63934B",
"yX c #68994B",
"uX c #639552",
"iX c #6C9C54",
"pX c #689957",
"aX c #739C59",
"sX c #6E9053",
"dX c #5BA645",
"fX c #5DAA4A",
"gX c #65A749",
"hX c #65B446",
"jX c #6DA257",
"kX c #72A354",
"lX c #79A456",
"zX c #74A45C",
"xX c #7AA55B",
"cX c #75AA5D",
"vX c #7CAA5D",
"bX c #77AA55",
"nX c #77B557",
"mX c #789B67",
"MX c #748D62",
"NX c #7CAB63",
"BX c #7CAE6A",
"VX c #77A764",
"CX c #7DB266",
"ZX c #7AA472",
"AX c #72C44C",
"SX c #83AE5F",
"DX c #83B15D",
"FX c #829067",
"GX c #82AD63",
"HX c #82AC6B",
"JX c #86A167",
"KX c #83B264",
"LX c #83B26A",
"PX c #89B569",
"IX c #88B673",
"UX c #8FA574",
/* pixels */
"m.xX@Xv.v.CXCXwXz..X*.&.8.&.8.b.jXCXz.n.pX0.8.K.LXiXv.v.OXv.m.j.DXSX#X|.h.DXKX0Xa.b.>.>.n.-.3.|.yXGXc.b.pX=.a.M.KXpXc.c.b.M.M.i.",
"f.iXGXs.c.LXuX=.a.v.9X9X:.-.8.*.a.zXd.b.uX>.9XBXCXuXv.>.v.CXlXh.yXPXcX'.g.nXuX:.a.b.K.b.8.-.8.J v.vX8.z.qX:.M.PXKXyXc.*.OXGXxXj.",
"=.z.zXa.v.lXg.=.tXPXVX:.*.-.8.#.0XcXp.J F J OXLXyXa.z.qXCXVXtX7Xq.gX;X'.].gXz.a.x.u.4.4.-.-.8.&.8XjX8.3.&.*.@XvXuXp.d.@XSXKXlXlX",
"z.a.zXa.a.kXv.oXvXGXiXOXb.O.3.;.c.jXd.J I  X;X;X X*.z.BXBXv.|.|.'.{.7XgX7X$Xd.:.n.z.6.c.8X-.;.-..XpXK.9.-.v.@XvXoXI 1.CXKXyXm.i.",
"4.=.pX=.f.tXg.#XKXiXv.v.c.c.9.9.b..XS *X&X!.!.[.dX'.I cX0Xz l K 3X%XgX_.^.^.;XXXCXBX2.'.3.8.z.i.n.uXn.9.b.v.oXSX X1.4.BXyXv.OX+X",
"a.a.tXm.p. Xp.@XlXv.a.z.4.8.8.8.3.;.F `.L 2.C C [.`.E. X|.|.O.K [.A A A T.%X4XH 6.wX-X!.,..X:.g.z..X3.8.4.4.].rXv.=..XzX=.OXHXNX",
"vXoXm.vXf.J 1.oX Xa.a.4.J *.8.6.eX.XeX(.v ).~.A 2X2X$XB |.wXQ.Q.}.^.`.R.}.=XwXZ p 7X6X<XP H #XSXg.d.1.d.y.p.y.g.OXp.a.iXa.aXVXCX",
"PXxXh.NXVXv.OXc.a.VXz.4.4.d.a..X8X%.! h v <.dX%X`.A E.Z P P V L $X%X=X`.[.wX4.p E.T.<X<X4X'.7XbXq.oXKXcXp.q.m.KXxXa.y.a.J =.OXjX",
"lXxXf.v.NXVX.Xv.=.zXVXz.:.@XBX.Xn d T E W o.eXdX1X1X}.W.fX(.V p S Y.[.).3.Q ! D &X2XR.,X}.}.=X;X'.KXCXvXcXoXKXPXaXz.M.s.y.#XoX X",
"p.zXf.=.tXVXc..X:.4.OX.Xm z.BXpX-.[ ~ > > R ' m V wXfX1X^.P V V ~.).T.2.h + f s Q.%XL %X}.gXgX;XI *Xd.'.kX XKXzXOXqXBXvXh.s.f.1.",
"y.yXv.g.oXVXx.HXVX>.:.>.' M 0.` K.7.^ ; - - ; g Q ` 6.`.W.W.4X%X1X}.4XgXn W ( ' 6.eX! V *XfX*XP XXgXXXS gX'.cX4.4.9XVXPXlXh. Xp.",
"4.tX&.z.wXVXz.mXHX{ n $ d _ Q [ K.[ ~ ; > : 5 ; E f h @.!.%XgX$X`.3XhXwXk ;  .7.8.v Q W V wX9.p !.&X!.A 2X`.;XI ,.b.d.NXPXlXg.d.",
"8.8.:..X9XaXk.x.mXmXJ.K._ R ] W ] f ^ ; ; 4 E , E R a a x c x v c @.6.M M @ @ ; ~ T | k s x m M 2.[.3X{.hX=X:X'.I 1.6.g.DXDXd.g.",
"z.9Xn.z.-.M M [ [ J. .J./ f R , / ~ } / , , W T [ Q x h Q Q Q f b z z l z.[ # , ( _ M s Q g + _ 3.~.wX[.Y.[.{.$XE.Q. Xp.h.yX1.|.",
"n.z.b.-.d j _ ] f f , W / / / T ^ 5 T E R E W Q c v c ! x $.d.K K !./.D V V z M l 4.8.B x h / + Q V V /.gX-X,.`.wX3.1.d.oXNX4.@.",
"qXv.z.-.M _ ~ R T W E E E E } ^ }  .} E | ! Q %.Q.K G 5.+.z 6.XX$X[.*X~.!.^.fXfX6.*XfXwX8.R E , , Q h ! F m m m 3.@.z.4.c.zX.X4.",
"NX9Xn.7.[ T T + W E , , , > | } , > } / E ] $.+.~.S S ,.|.z l ,.[.$X2X{.,X4X=X=XXXdXP wXqX7.R W + + + W h ~ h [ 8.z.4.8.a. X+XGX",
"xXaXz.K. .^ E E | } E , > > ^ , , : 4 ^ R _ <.<.`.XXE.$X*X,.D c 9.*X{.4X6X,XZ Z E.-XS z _ + W W W h , ! { d d k c.4.3.6.|.@XHXHX",
"b.qXn.7.W , } > , > > : : } } , : : = , W ! 0.o.=.*X-X3X*X(.$.` j x 2.4XT._.`.D V fXwXd k f v Q x x ` G  X6.#XZ Q.4X;X6.'.KXvXaX",
"n.n.7.R T / , , , > } : : > E + , } > > + W h Q b b S S Q.+.! Q T j *.gXwX;XK.M x K.8Xd j 8.3.9.@.D *XwXhX:X=X=X2X=X=X[.{.wXrX&.",
"K.:.R / / R E E , E } : - @ j x / R T R R j h R R W a h _ k f ^ E + g [ ^ 4 4 - ; T g k x 9.(.Q.Q.!.4X}.}.^.[.^.,X}.,XhX4X$XJ x.",
"v.{ g f # n ( + , ^ } 4 4 | ;.;.x R x h x x O.0.! | h x d ^ ; ^ > T ; @ : = < ..^ k R Q s c X.<.!.T.R.T.W.4X4X}.2X^.R.}.$X'.&.u.",
"v.x.] ( 7.MXk.| ; ....4 ^  .$.3.%.c ! c V <./.+.V O.XX@._ g E ^ > > > } ..9 > / _ v D %.! c D -X3X[.T.<X,XhX<X,X5XW.A Y.I I y.x.",
"+Xi.k.J.VXJXK.{ ; > 4 : ; / x $.+.c X.9.G Q.^.L 5.K K K D j ~ ^ ^ 4 : - @ ^ / h z (.).~.+.V p L *X,X}.T.6X}.R.W.dX1XS wXgXd.LXNX",
"NXL.{ 7.qXZXJ.^ - > : = : ^ R x c +.G /.~.*XdX-X,.S L Y.U 6._ @  .l.5 - W ! X.P Y nXhX^.~.~.Y.fX{.Y.T.2X2X%X^.T.^.C B Q.XXkXkXvX",
"HXuX~ ] _ n n T } 4 : : 3 4 > R x 3.<.L P Q.,.K ,.|.(.wX&XuXK.~ n ( - ) 7.9.,.Q.7XhXhX,XU P 1X%X).L [.T.T.=X2X}.A P -XS H '.I kX",
"ZXeXR / f + + ; ^ > 4 5 9 < 9 } ] 8.V ,.D b k R 9.V <.<.D z.L.} 5 1 3 } ! $.G P *X&XU B P U [.*X).C ).S B S A Y.5X2X<X<X{.Y d.d.",
"J.K.] ] W W E ^ ^ ^ ; - 5 < 9 5 T j m @.O.x + R X.b v v l s # ; 7 1 9 ^ j ! o./.,.P U U T.`.U P ).*XgX*X9.D [.fX,XhX,X,X6X=X*X|.",
"[ _ h Q Q ] R T T E / } : = 7 9 - + f j Q a s ` +.V S D H M ; : 7 7 7 9 ^ ~ -.8.V E.3XT.,XAXAX6X^.W.}.2XeX$.P W.^.2X6X<X4X7X7X{.",
"@ g f R [ R / / / R E E > = < < 4 R / 0.9.x ! 3.!.[.`.*Xv.{ : 7 7 7 7 7 = - g k eXXX&X%X6X6X6X<X<X5XhXgX8.p p L R.[.4X,X:X<XhXT.",
"4 > R ! Q Q ] / ] ! ] W , > < < }  .8X(.9.<.H 2.U T.2XgXk.% 7 & & 8 < < 8 7 1 { 8X0.o.J {.2XhX6X,X:X3X.Xx a ,.*XT.T.1XY.U 4X%XT.",
"> > R ! x ! _ j Q W ! f > } 4 5 @ 5 m D ,.(.|.S Y.%X5XoXJ.0 8 V.V.D.O < & 8 V.6 ( / g j S W.2X-X-X6.l l f s |.&X!.%XY.A U %X$X4X",
"} | R ` c l o.o.! Q h ! R W E / ^ # @ R V /.(.V 2.I P F P.D.& q V.0 X 0 8 C.w * 7 < 5 ( N S a.tXK._ # @ ~ #.3.^.!.dXW.W.%XhX{.1.",
"R W Q Q c +.XX9.X.` #.` ! Q W R | ( ~ ~ v $.+.B I K 3.#.k.0 8 q Z.  8 2 V.G.e 8 8 8 <  .b.c.M M n ( ( 6 | ;.Q.<.A L ^.Z Y.!.#X].",
"| ' g v l l ,.|.6.D $.c v ` ` h x [ ` ! v v v V H H z [ 4 1 * q e . G.e V.Z.& t 0 = < ^ [ b.J.( @ J. .n ~ d 9.eX*X*X[.S I wXyXbX",
"z.n n.;.x x +.9.c.G m c 8.4.! o.$.%.$.+.$.$.%.<.2.2.*.#.e.6 u r w X Z.& V.C.e 0 7 7 : @ n n n @ @ e.7.' k Q j v G ).2.B c.yXI 6.",
"u.:.pX7.| R _ ! ! h h ! 0.! V (.5.P U K S I 2.).!.L L Q.=XkXB.r.Z.& q Z.V.e & 1 0 7 < 3 5 @ g ; ; @ Q M |  .g [ c +.D :.&.>.0Xv.",
"z.:.iXK.S.7.f f h Q x ! a v %.5.G P $X2X;X!.).^.1X^.<X}.5X4Xl.u 8 & Z.Z.* X X . 7 7 < < 5 } ^ W T T g R J.k.g ~ ` ` o.' N M.NXIX",
"vX@XJ a.>.0.| f Q #.o.c X.X.V V V V S U $X[.A ).^.^.,X5X<X7Xl.2 q C.C.X   . 5 5 < 9 7 7 9 4 , E E T | [ ZXL.f g j _ d z.i.aXaXNX",
"KXlX=.=.n.8.eX7._ #.3.3.5.V V (.+.G S B C &X^.~.P ,X,X,X,XkXP.8 V.A.e   . e.P.J.} : 7 9 : 9 E E R R _ _ uXk.k.7.k.7.>.b.y.J M.aX",
"iXNXa.:.c.K.9XuXx x O./.,.S P ~.).[.=XW.B P !.3X{.E.A W.{.a.w.e C.C.o   e.n.K.K.( @ 5 5 < : ^ ~ _ _ M i.aXN.M.+XHXIXNXs.y.oXf.@X",
"z.VX:.8.M.z.z.;.7.s x F '.K ,.!.&XY.{.&X,.+.~.^.T.T.E.wX0Xn 2 V.A.r . O rXM.u.z.{ k.(  . .J.k.L.ZXmXM.+XvX].h.j.+XHXxXf.g.@XCXvX",
"v.pX;.4.oXv.4.b.ZX0.k ` z |.!.<.C P *XQ.%.v eX1X=XE.I x.l.6 6 C.C.t   r.UXGXGX].N.j.s.rXrXHXx.rXPXIXKX#Xj.q.>X>Xs.rXGXm.OXKXvXuX",
"v.0X4.b.OX|.*.0XIX9Xs ` D XXXXQ.<./.<.+.! X.%.~.'.H F n ) 2 w F.y 2 . FXIXGXPXSX+Xg.>Xa.f.xXm.N.NXPXlXh.q.].DXlXs.@XlXa.OXLXuXJ ",
":.4.OXBXBXc.d.g.VX0Xb.z.s x 8.@.D O.s x h ! ! c m M y.l.D.e y F.t.o O JXM.g.vXbXj.].DXKXXX Xm.@X+XSXGXh.@XKXDXDXGX9XGXb.OXVX&.8.",
"v.b.4.jXLXVX+X0XzXy. XpXM x x o.M #.7.j a h m ! M ' L.U.w.w y A.F.. % qXN.g.@XvX>XDXKXlX|..XOXs.i.h.SX@XPXKXkX@XaX0XaXM.M.zX:.z.",
"b.z.v.=.uXIXVXv.xXN OXrX=.OXBXpX-.z.4.;.' ' *.4.u.k.mXFXw r G.F.i o ) I.N.m.>XlX#XSXSXx.6.8.@Xa.y.>XxXM.KXVXd.oX#Xh.OXv.x.uX=.J ",
"9Xb..X=.a.iXVXn.tXy.M.a.4.0XBXuX8.=.4.a.z.u.x.m.rXN.l.D.8 r A.i G.r u B.l.oX+XSXrXlXi.j..X.X.XOXm.+XlX+XvXOXv.p.f.oXOXv.4.uXf.y.",
"VX0Xx.XX*.d.VXz.*.b.z.a.z.a.zXz.4.v.c.c.b.a.q.>XUXJXr.6 w A.A.A.i t.u U.N.B.>XlXrXSXM.oXOXb.K.M.OX0XkX0XxXm.a.m.x..XOXv.z..XoXGX",
"zXiXz.OX*.4.pX9.-.z.a.a.4.1.uX4.0XcXNXOXu.y.B.UXUXU.t e w r G.i r t.H.U.P.l.>Xj.+XlXOXoXv.+XOXM.M.b.M.0XNXOXv.m. XOX.Xv.+X+XKXKX",
"M.9Xv.g.1.1.pX;.z.z.OXd.oXv.3..XjX1.iXNX9XN.UXUXU.e e e C.C.F.A.A.i i t.U.U.B.j.j.s.+Xx.x.v.m.+XOXa.v.OXzXOXa.a.0X.XoXOXOXLXNXyX",
"x.b.y.v.oXd.8.b.9Xz.OXKXvX@X4.z.c. XOXiXaXl.MXt w e q q w w F.F.A.i i i t.t.FXB.M.f.s.OXM.v.M.@Xx.s.g.a.oXOXv.0XxX+XOXs.v.NXrX=.",
"b.b.N.SXvX@Xd.z.b.v.g.yXPXvXd.1.3.d.a.a.FXl.w.6 t t 8 e w w C.C.i r i r u t.U.B.PXvX@X+Xm.+XHXvXf.+Xm.M.OXv.OX@XPXGXM.y.oXzX=.4.",
"i.qXaXiXPXvXa.p.v.a.j.g.yXKXcXJ 1.*.4.M.sXy.r.w.6 . X 0 8 q C.C.r i i G.2 % O l.xXPXxXm.x.m.GXPXlXh.+Xx.v.=..Xv.xXPXlXJ m.zXF 4.",
"K.v.>.u.yXKXcX1.J oXKXlXg.aXzXd.1.4.J K.mXu.sX# % r.w.t u X w 2 y u u o w.5 O N +XGXNX+XM.u.+XSXSXq.s.+Xv.oXx.x.+XGXSXy.:.yXa.v.",
"OX4.a.M.u.aXcX1.;XvXGXxXyXa.cX4.x.a.8.:.pX8.qXv.MXe.w.w.6   6 w.w.6 w.% O ) k.N.j.m.NXM.v.f.v.>XxX#X>XSXLXkX Xg.v.+XNXa.J v.CXVX",
"NXOXu.VX+X XkX1.CXvXyXM.u.u.pX1. Xa.b.b.uXc.J v.tXN e.e.O O MXI.r.. ( L.qXK.K.+XM.+XVXM.b.b. XOXxX+XKXPXkX>XaXOXv.m.VXc.4.zXpXLX",
"CXzXa.KXzXv.jXp.CXyX1.a.v.b.zXa.|.c.|.9.*.z.f.I J L.K. .n ) i.sXmXO O qXVXb.b.+XM.rXNX+XOXp.a.oXxX>XKXlX#X].#Xf..X0XVX*..XOX=.iX",
"zXzX=.jXVXa.tXd.jX*.a.4.v.n.tXz.OXc.b.n.O.8.|. X*.v.n.:.y.x.rXi.N.l.u.x.OXOX.Xv.m.M.VXM.x.g.v.+XlXOXSXh.h.m.oX@Xm.OXVX*.4.OXOXg.",
"d.jXa.=.jXv.0Xv.cX*.|.a.:.a.b.M.y.a.x.b.a.0XPXcXa.OXu.u.uXGXvXv.s.VXu.x.v.1.f.v.b.=.b.a.=.a. Xm.1.oXSXh.g.>XPXxXa.v.4.c.OXM.M.m.",
"a.zX1.d.v.4.a.s.0X=.d..Xv..X9X@XN.s.m.=.eXBXNXtXp.g.v.v.NXPXtXv.u.xXu.y. Xy.g.1.a.*.a.OXv. X@X#Xv.m.yXg.@XKXvXtXa.a.v.z.9X.Xv.M.",
"=.v.4.z.z.=.v.rXOXf.8.|.4.OXHXGX#Xi.J x.IXVXg.J =. XzXg.IXtX*.c.J v.x.b.z.>.v..Xv. Xa.v.z. XCXDXoXg.J f.LXNXg.=.=.+XzXu..Xb.:.b.",
"@XOX*.z.K.b.M.GXxXa.z.8.v.kXkXSXSX#Xy.oXNXtXa.s.x.IXVXOXiXg..X;X0X X*.8.K..X.XLXcXa.a.4.+XzXkXcXcX@Xp.f.CX0Xd.a.v.LXxXm.a.c.b.eX",
"LXzX*.8.>.rXPXGXyXM.4..XzXq.j.lXKXSX].+XxXJ p.v.KXJXuXz.*.=.|.bXCXcX-.8.;.8XIXCXyXv.p.0XaXa.g.kXKXvXoX@XzX*.4.v.NXHXyXa.=.:.b.VX"
};
