/* XPM */
static char *exit_empty[] = {
/* columns rows colors chars-per-pixel */
"64 64 256 2 ",
"   c #0B0002",
".  c #080700",
"X  c #150805",
"o  c #0C1401",
"O  c #0B1903",
"+  c #181706",
"@  c #1D1815",
"#  c #1E0211",
"$  c #280C15",
"%  c #291818",
"&  c #321718",
"*  c #29100A",
"=  c #0C2303",
"-  c #132202",
";  c #182708",
":  c #1B3309",
">  c #1D2814",
",  c #17330C",
"<  c #23370B",
"1  c #292A18",
"2  c #2D3B1A",
"3  c #273616",
"4  c #323B1E",
"5  c #292A14",
"6  c #2A1725",
"7  c #381A26",
"8  c #351228",
"9  c #332C22",
"0  c #392929",
"q  c #2E3925",
"w  c #353224",
"e  c #333C23",
"r  c #3A372A",
"t  c #3A2C35",
"y  c #3C3735",
"u  c #2B2827",
"i  c #471828",
"p  c #481E38",
"a  c #511E3B",
"s  c #42282B",
"d  c #45382B",
"f  c #482837",
"g  c #542738",
"h  c #433332",
"j  c #4D3B33",
"k  c #463A38",
"l  c #54373B",
"z  c #522A28",
"x  c #6A2D3C",
"c  c #40341E",
"v  c #1E450C",
"b  c #2B4618",
"n  c #34491C",
"m  c #2A541A",
"M  c #34581C",
"N  c #224F0C",
"B  c #2E631B",
"V  c #34651D",
"C  c #3A661D",
"Z  c #35691E",
"A  c #3C6A1D",
"S  c #344D22",
"D  c #3A4728",
"F  c #3C532A",
"G  c #3B5B2B",
"H  c #365726",
"J  c #3E5630",
"K  c #39462C",
"L  c #2F6725",
"P  c #346524",
"I  c #356A23",
"U  c #3B6C24",
"Y  c #34662A",
"T  c #346B2A",
"R  c #3C6D2A",
"E  c #3C6428",
"W  c #3D7126",
"Q  c #3D722B",
"!  c #37742C",
"~  c #3C6A31",
"^  c #3D7432",
"/  c #3C7736",
"(  c #43442C",
")  c #434A29",
"_  c #43542C",
"`  c #435C2E",
"'  c #47562A",
"]  c #434433",
"[  c #4A4533",
"{  c #4E443B",
"}  c #484C37",
"|  c #534639",
" . c #445334",
".. c #4B5333",
"X. c #435D34",
"o. c #4B5D34",
"O. c #4D533B",
"+. c #495B3B",
"@. c #5A5C3C",
"#. c #535938",
"$. c #60433F",
"%. c #426E25",
"&. c #42642C",
"*. c #436D2B",
"=. c #48682C",
"-. c #437225",
";. c #43742C",
":. c #4A752C",
">. c #45792D",
",. c #4C7A2D",
"<. c #4A7726",
"1. c #517C2D",
"2. c #456433",
"3. c #4B6335",
"4. c #436C33",
"5. c #4D6B34",
"6. c #4B683B",
"7. c #53623B",
"8. c #536C3C",
"9. c #57673A",
"0. c #437432",
"q. c #4A7534",
"w. c #457A33",
"e. c #4B7C33",
"r. c #4D743B",
"t. c #467C39",
"y. c #4C7C3A",
"u. c #407638",
"i. c #527D34",
"p. c #53743B",
"a. c #5A753D",
"s. c #527C3B",
"d. c #597B3C",
"f. c #527335",
"g. c #606D3F",
"h. c #581A52",
"j. c #5A1B49",
"k. c #582943",
"l. c #5A3744",
"z. c #55304A",
"x. c #632C47",
"c. c #683748",
"v. c #773848",
"b. c #6E2C51",
"n. c #6B3A53",
"m. c #743D55",
"M. c #601E4E",
"N. c #534A43",
"B. c #584546",
"V. c #4E5A42",
"C. c #545342",
"Z. c #5B5343",
"A. c #5A5A49",
"S. c #524D48",
"D. c #664847",
"F. c #645547",
"G. c #644354",
"H. c #7A455A",
"J. c #724F52",
"K. c #5A6543",
"L. c #536B43",
"P. c #5C6B45",
"I. c #596447",
"U. c #4C7D42",
"Y. c #4B7543",
"T. c #5C7B43",
"R. c #567744",
"E. c #58684F",
"W. c #636B4B",
"Q. c #656A46",
"!. c #667848",
"~. c #666953",
"^. c #766E59",
"/. c #6B7B57",
"(. c #757859",
"). c #71714D",
"_. c #777866",
"`. c #7B6869",
"'. c #7E4361",
"]. c #833C4F",
"[. c #884758",
"{. c #934F57",
"}. c #864A64",
"|. c #8F5566",
" X c #A05664",
".X c #936C6A",
"XX c #54822C",
"oX c #4D8136",
"OX c #4D813B",
"+X c #458037",
"@X c #538135",
"#X c #5A8336",
"$X c #53833B",
"%X c #5A853C",
"&X c #5B893D",
"*X c #57893A",
"=X c #4F832E",
"-X c #618B3D",
";X c #60923D",
":X c #548442",
">X c #598442",
",X c #5C8B42",
"<X c #588947",
"1X c #5E9349",
"2X c #568748",
"3X c #628C43",
"4X c #65894A",
"5X c #639346",
"6X c #63944B",
"7X c #6B964D",
"8X c #6B994D",
"9X c #67984A",
"0X c #749C4D",
"qX c #6B8953",
"wX c #75885A",
"eX c #659553",
"rX c #669A55",
"tX c #6C9C53",
"yX c #6B9D5A",
"uX c #6C9552",
"iX c #729E54",
"pX c #739E5A",
"aX c #759557",
"sX c #6FA25A",
"dX c #6EA253",
"fX c #74A255",
"gX c #7AA456",
"hX c #74A45B",
"jX c #7AA65C",
"kX c #76A95D",
"lX c #7BAA5D",
"zX c #78AA57",
"xX c #7BB05F",
"cX c #788964",
"vX c #7A9966",
"bX c #76A962",
"nX c #7CAC62",
"mX c #79A765",
"MX c #7DB164",
"NX c #7FB368",
"BX c #6EA760",
"VX c #81AD5E",
"CX c #88AF5E",
"ZX c #83B05D",
"AX c #869969",
"SX c #838C6B",
"DX c #82AD63",
"FX c #85A968",
"GX c #84B264",
"HX c #89B466",
"JX c #84B369",
"KX c #8AB46A",
"LX c #88BA6A",
"PX c #8BB676",
"IX c #8FAB78",
"UX c #A0988B",
/* pixels */
"i.jX,Xi.e.JXnX1Xw.e.Y I 0.Y ^ y.fXlXe.q.yXY ;.@XJXuXw.s.f.i.i.1.CXVX*Xw.,.GXGX3X0.U.Y ~ ^ Y ^ / tXnXt.OXrXP %.i.DXhXw.w.y.i.#X=.",
"e.uXnX:.,.JX8XU ;.y.:XOXR Y ^ Y -.nX*.y.4XY @XbXGX6Xy.E i.FXgX1.8XGXlXe.,.VX7X%.0.y.U.U.R Y / L e.bXQ ^ 6XI #XHXnX7Xt.U @XDXjX:.",
"U 0.hX;.i.hX-.%.3XPXbXR T T / Y <XhX:.V T Y ,XJX6Xq.;.<XKXDXgXfX,.tXnX;.@XhX:.%.Q U ;.Q I T / Y >XBXu.T Y I 3XjXeX;.;.<XlXGXgXgX",
"u.0.hX;.-.fXe.i.lXDXuX$XU.L T L w.yXy.U P y.&XnX@XI *.JXJX7X@X-.,.:.iXU e.tXe.;.,.;.>.@XOXL T Y e.yXU.^ E w.,XnX@XI Q MXGX0Xi.%.",
"Q R rXU ,.5X-.*XJX0Xy.y./ t./ / w.eX! &Xi.:.@XjX$XR ;.nX1X$X$X*XU ;.iXA :.6Xw.*XGXxX<.+XQ / w.R q.eXt./ t.y.i.nXOXQ Q MX8Xi.@X#X",
";.Q 6XOX;.oX;.,XhXe.;.;.T t./ T ^ OXw.NXlX*X@XuXOXW e.kXI $XGXlX:.%.5Xi.q.t.^ :XMXMXxX>.W y.;.w.;.OXW ^ Q %.@X6Xe.I OXhXZ @XGXnX",
"lX@X@XkX>.V ;.OXs.:.;.Q Z I ! Q t.w.Q 8XCXCXi.A w.U ;.dXW sXdXHXlX@X-.;.R Y ^ OX*XbXJXzXV V @XzX:.>.W ^ Q -.-.-.$XW ;.tX;.iXbXDX",
"HXjX,.nXbXe.$Xw.;.bX;.W :.>.>.MXsXI Q e.0XCXVX%.V ;.>.e.I W @XtXJXnX;.U ;.Q Q ^ Q w.MXxXW oXZXzX-.@XNXkX-.%.@XDXbXQ W R C U >XpX",
"gXgX,.i.nXnXy.e.E sXmX,.:.*XGXxX7XQ 0.e.#X0XgX,.,XJXlX:.Q OXi.@XdXnXoX;.+XW I t.e.! oXkX@XzXLXzX=XxXbXlXlX#XVXLXhXQ +X:.-.#Xs.$X",
"-.jX,.U 6XhX:.@X%.;.iXjX@XhXGX5X;.U ;.$X#X-XjX#XDXMX7Xy.0.y.@X%.W hX^ Q oXdX>.;.w.^ OXkX@XGXfX<.<.dX>.,.fX1.DXhXOX*XMXlX1.,.e.R ",
"-.uX;.;.$XhX,.GXDX-.i.VX@XJX1XA y.*Xe.i.:.1.lX,XJX5X%Xs.y.0.y.%.~ yXt.W +XLXzX>.I L Q yXi.iX:.Z Z W R e.jX@XgX:.Q *XlXHXgX1.@X;.",
"Q 1XV :.1XlX:.iXDXlX-XiX,.kXQ e.nXGXuXy.C :.jX,XhX$Xi.;.$X$X:.w.Y eX! Q +XzXMXfX+XQ ;.Q :.bX:.R ;.Q V :.jX*XlX-.I +X>.lXHXzX-.>.",
"0.^ 0.y.:XkX-.:.iXlXi.iX;.hX0.w.jXiXGXdXV I y.@X@Xi.s.-XhXjX0.0.q.~ ^ e.I W MXLXkXW ;.I y.yX0.y.OXy.Q $XmX%XnX;.Q ! W <.ZXlX>.>.",
"0.y.0.Q Q oX>.e.i.pX;.7X;.rXR Q %.:.jXkXQ Q ^ y.0.i.*XfXVX7X0.u./ OXw.;.I U e.bXkXZ U U *.0.u.t.^ Q w.e.lXi.bX$XQ w.OXW XXfXW w.",
"y.q.OXy.;.OXy.Q ;.6X:X1XR 6Xw.:.@X1.5XzX! ! ! u.R :.#XDX9X<.R ~ t.Q OX;.I 0.w.$XhX%.U U Q Y ~ ^ OX^ w.OXdX:.kXt.^ ! ;.>.oXMX! L ",
">Xy.Q ^ ! ^ w.0.y.y.OXy.r.s.;.OX@X@X@XfX^ ! q.y.0.,.-.gX%.y.r.4.2Xe.e.0.P Q 0.:XbXi.i.s.:X~ G M Q W ;.+Xy.>.W Q ^ I ^ W e.sXOXQ ",
"mX>Xy.0.t.w.Q w.OXt.0.y.y.y.OXoXoX%.;.w.s.*.*.>Xs.:.<.gX=.q.d.aXFX!.d.FXi.=.%.&XiX-.&.a.IXFX' 5.V Y >.e.W U ;.W ^ ^ T / >.+X*XVX",
"hXpX~ :X^ >.Q e.w.;.0.4.r.6.y.$Xs.*.i.r.&.` q.DXmXy.%.DXd.T.).AX!.4Xa.KXFX%.:.=.5.5.=.5.qXAX!.n m >XMXkXW w.oXw.OX! ^ / OX,XVXHX",
"s.>Xr.0.Q w.;.Z Q +Xe.:.R.f.4XFX&.2.7.P.' 7.FXaXrXw.*.hX$XaXQ.Q.' 5.f.KXjX:.n g.AX!.uX' ..~.F.) 3.mXPXhXQ Q W OXOX;.OXQ y.JXFXuX",
"q.y.0.*.e.OX;.oXe.@X&Xd.9.!.aXaXp.T...O.#.n aX:.r.E q.p.s.FX#.d ' 8.M aXFXT...(.).(.' 2 ....).( P.qXvXU Q W W JXkX>.U W @XDX7XM ",
"y.y.R >Xy.@Xe.Q ;XlXDX4Xg.AX-Xg.P.(.#.SXg.n 4Xp.2.` 3.5.f.AX[ d P.n v &XvXP.| F..XS < ' o.W.5 > ) !.&.&.R ;.w.kXLXzX,.W e.kXI ^ ",
"q.$X$XnXbX@X;.oXVXVXpXAX' SXSX' #.A.@.!.< < AXR.X._ K.F P.P.} 5 < m q.f.SXD F.{ F = ..@.P.b : K.#.g.n 5.Y.m U e.kXHXzXB >.5XB W ",
"s.w.@XfXGXbXoX>.CX7Xd.qX@.).wX#.c | #.; R.p.mX6.o._ ..( { { C.; < s.f.a.W.{ ~.o o ( #.@.4 : 8.wX@.!.n G Y L u.U ,.DXjX:.:.W >.e.",
"$X;.-.:.fXnXw.e.0X#Xg.g.9.#.#.Q.c | d e vXU.qXR.7.) b O.s B.A.> p.=.5.7.d ~.e O  .#.@.@.2 cX9.Q.9.2 b m H 2Xy.u.:.,XgXe.,.i.GXlX",
"nXOXA -.3XnXe.I y.i.4XqX .....Z.Z.h j j AX~ 6.G  .) F 2 1 h 1 cXFXT...) #.D O o.Q.@.W.; ~.I.] } J 2 2.2.~ U.4.0.y.<XnXQ $XbXiXDX",
"MXkX-.e.s.hXw.R @X>.R.AXP.O.w y C.} d | /.2.4.b +.K X.7.[ s 5 /.IXvX[ { K O X. .#.} C.> C.[ N.} q V.+.b G 4.2.q.0.0.rXL I OXU iX",
"hXjX:.i.r.*.y.E OXI y.vXL.V.w u J J 9 & { @.L.L.K } 4 #.Z.w 1 #.vXcX] Z.0 K  .L.O.Z.1 r [ F.V.O > e e F o.5.5.f.q.y.! ! ! I w.w.",
";.pXU %.p.r.y.0.t.M r.6.~  .k u 2 n < + * [ ~.SXS.r 9 Z.F.O.w } E.W.{ 1 h { ~.} { | 0 ] ..4 O e } }  .o.o.9.p.4XU.s.w.! ! T ^ OX",
":.tX;.*.q.2.~ r.L.G V.S ~ S A.q q 6.P.#.D 5 } Z.G.h 0 Z._.Z.s h Z.F.l 0 l.0 h f x D.k } r o  .7. .+.+.X.` !.vX4X*.;.! ! +X/ ^ y.",
"U y.0.^ 4.~ L.L.V.V. .K H L.~.u u A._ 7.IXK.& s l l l h ^.Z.s s F.| h & N.0 l D.D.g * % + } K.wX/.S < = n 8.n b =.;.W I T / r.y.",
",X:.L w.4.E X. .y y y } S vXqX~.u t K E.wX).[ % % l l.l.^.j f s D.$.@ + 0 h D.`.s X X 7 @.^.SX(.S : 2 J R.P.7.8.E p.W >.0.Q $X<X",
"jX>XI ;.P 4.wX~.k z.u y K L.#.SXS.t k O.g.#.@.j 0 @ i k.l j l.g J.F.  5 | c.l * X 0 | l.F.| 3 3 (.AXP.P./.F X.&.r.vXe.e.OXR w.jX",
"w.nXMX>.,.mXqXF > > @ t y A.A.S._.> 0 t _.) Z.k `.z.6 # g J.n.g $.j + A.c.H.g & | | | | { d k O.Q.~.#.K.cX` S H pX1X-.y.e.y.@X-.",
"0.sXkXV e.JX5X&.J K > o u u z.y S.~.# t A.k { k S.t B.$ & g n.k.l   r k l.H.p D.D.@.9 X   @ K A.} (.7...o.b b E s.N 0.U @XGXMXoX",
"R Q bX;.e.gX-.q.Y.L.7.K O u  .q q A.t 6 t S.u w u y f f _.s x.v.s   `.B.l.x.c.B.d o + w r 5 - = 2 D < : b 5.T.q.qXE ;.,XnXlX8XjX",
"t.w.sXW ,.tXe.-.<XmXU.6.~ = O > . S.~.y @ t y r @ @ t D.UX| g m.f & J.k.k.k.l d + r | O.I.L.J J ' < D o.G p.aXq.t.P >XlXHX8XA :.",
"I Q rXQ +X1X<.&XJXhX:.s.m 4.L.b 3 3 1 u u 6 t t z.t t k.J.| i m.g p g c.G.& & 1 K V.C.F.V.b ` 5.R.2.b &.R.FXuX:.s.e.3XGX3XC -Xi.",
";.Q rXe.^ oX>.MXJX6X-.0.q.p.PXvXL.L.K K z.t 6 6 y l.z.t f z.a k.g g b.m.*     X q /.W.r b 3.T.!.p.d.4.R >X$Xi.i.@Xi.&XlXA @XDXHX",
"NX%XU Q ! B +XNX1XR U ;.M %.qXIXcX+.} S.N.S.u X @ # $ 7 k.b.h.h.j.x.'.$   o 3 > , ` n : F r.FXCXs.$Xi.$XFXhX@X:.jX%X1.iX%.jXiXVX",
"JXjXI R >.! <XBXI R U P 5.f.=.qXvX/.K u 1 r y { k [ N.G.n.h.h.h.j.'.f   O +.R.2XR.R.JXqXm *.3X3X,.U -.%XfX$Xq.i.GXCXd.,.U C i.0X",
"uXnX;.R w.w.2XdXI ^ ;.P d.aXa.5.6.L.4 ] ~._.y K N.{ W.Z.7 j.h.h.b.m.$ X F s.s.y.%Xf.e.nX%XaX7Xf.&X*X1.%XlX:.i.*XVXHXjX:.%.i.,.%X",
"q.pXR ;.OX0./ Q OXdXW &XJXFXp.=.2.wX+.J = ; > w w r - ; X 6 k.b.}.k.  > <XoX-.,.%.i.i.lX3XgX1.-XHXlX@X#XgX#X1.1.#XVXgXi.e.3XGXbX",
"y.eXE 0.$Xy.Q w.xXzXXXxXDX7X0.M E p.b b H H V., 1 r F o.9.F.a b.}.l . X.FXxXZXXX1.<.,.0X-XFX:.&XDXHXVXi.<.<.#X-X,.3XDXi.*XMXnXeX",
"y.6XR w.:Xy.U ,XHXzX=XxX1XW 0.U q.@X$XvXH 6.4.8.D 7.S S P.^.x [.|.i o vXHXlXLXCXXX<.-X<.i.hX@X@XVXHXVXi.<.1.CXgX1.#XjX-.@XJX7XP ",
"R 0.:XnXmXy.:.:.lX;X=XdXW oX! w.NXkXw.rX~ L :XbXr.T.4X7.Q.J.x.v.|.% ; vXoX<.jXzX1.XXVXDXs.$XOX*X@XgXHXi.%XHXHXZXDX&XnXe.@XhXI 0.",
"0.w.0.hXJXmX@X&XkXA =X8XB B >.MXMX1Xw.1X/ / ! ^ %.i.4XwXW.$.x  X|.* b >Xw.>.,XDX#XZXKXjXw.:XOXe.-.i.VX&XHXGX0X&XiX&XhXy.e.sXR u.",
"y.;.e.I eXLXhXs.bXM $X6XW @XJXnX! >.Q Q Y W >.>.-.<.jXAXF.l v.{.J.* 4 p.s.s.,XhX#XCXgXi.Q Q :XR -.&XgXd.GXnX-.@X@X@X$Xe.w.6XU P ",
">Xi.i.W ;.tXbXw.6X*.y.0.W *XnX9X-.W Q w.;.W >.=X&Xd.=.SXl.x.[.{.{.z ) T.5.s.>XnX-XVX:.:.OXOX$X$Xs.&XgX@XjX@Xi.-.y.@X@Xy.R rXq.;.",
"lX,Xw.@XU Q bX^ I y.0.0.0.Q BX0.;.e.>.>.oXQ U -XHX0X9.~.z.b.].{.{.].c Q.a.i.-X0X3XjX@X@X$XU.s.>X$X<XhX,XlXi.:.i.e.OX$Xe.w.OX@XDX",
"hXrXw.$XI Q sX/ Y u.0.R ;.U rXQ ,XhXMX@XQ R s.FXFX.X| k.k.b.]. X{..X{.).g.a.!.1.&XhXOXy.y.:Xs.s.y.@X@X%XnX@Xq.@Xy.@XOXy.@X%XJXGX",
"y.>Xy.-.W W rXT 0.w.@Xi.@XoXR OXsXW dXzX$Xs.FXIX).| l g j.n.c.[. X Xv.$.).).d.1.i.-.$Xe.q.e.s.d.s.:.y.@XhX@X:.;.,X@X@Xs.@XJXDX7X",
"q.e.%.e.@X;.u.t.y.w.@XGXlX*XQ ;.+Xw.oXfXfX=.AX#.[ k z.g a l.x [.].].x v.$.@.SXd.d.1.e.@Xi.e.#X#X,.;.:.0.s.@Xy.,XjX$X@Xw.e.nX6XI ",
"Y.s.e.DXlX,X>.>.y.e.<.8XHXzXe.W ! / >.-.DXa.9...A.`.G.6 z.k.a b.x ].{.i s @.).T.HXVX-Xi.e.%XGXlX,.#Xi.@X$XOX@X:XJXDX*XA i.bXU R ",
"0.>XfXaXHXjX>.W e.%.1.:.8XGXbXV T ! W y.pXp.AXF 2 o o % G.6 8 l.z * x m.& @ + :.VXCXgXd.,.i.VXHXlX1.s.e.e.U OXe.jXGXVXC i.hXM ;.",
"OXy.C *.uXJXhXW Z @XDXgX:.fXkX;.Q R B OXpXR rX, < ' } N.l.    % c.& X @ { D - M d.DXlX*Xi.-.*XVXVX%.:.%Xe.oXe.,.*XDXDX%.U 7XQ t.",
"$XR :.s.;.tXkX-.*XxXGXfX7X;.kXQ t.0.;.I eXu.<X>.8X=.9.O.q . K ] d j k ; = H 3.f.1.1.nXs.e.:.i.&XgX#X-XVXHXfXe.:.i.%XnX;.V w.MXnX",
"bX$X*.mX%X@XfXW MXxX7Xy.:.:.yXU OX! OX+X1X+XI e.<XB Y.Y.; : aXAX) O m R.2XU.U.s.d.#XmX$Xy.y.@X*XlX%XHXHXgX-XiX*Xe.i.bXy.;.hXyXJX",
"NXhX;.NXhX+XdX-.MX9XW >.0.e.yX;.+X>.e.^ I >.+XW I t.Y.H v H *.aXAX; , :XBXU.y.>Xs.5XmX:XOX;.;.@XjX&XDXgX#X1.%X,.i.<XBXY y.@XU uX",
"hXhXU dXmX-.5X>.sXI ! Q y.w.6X0.$Xt.OXw.V Q oXOXR t.u.R T u.*X:.@X=.R e.OX*XoXe.i.s.BXOXw.>.oX$XhX*XlX1.1.XX@X&Xs.$XbXI Q @X*X:.",
"^ hX;.U sXe.,Xy.kXI oX;.Q ;.s.s.*.Q q.r.;.<XLXsX0.OX;.;.1XnXlXe.:.hX%.y.+XW >.e.s.E s.^ I Q y.@XU i.GX,.<.-XHXjX-.e.Q w.OXs.s.e.",
"-.hXW >.w.;.:.q.3XU ^ oXe.OX>X%Xd.:.y.*.<XNXnX5XQ ;.e.+XlXGX9Xw.R hX:.U oXW >.W ,.I ;.OXt.OX&X*Xi.e.9X,.&XDXjX6X;.;.e.0.<X$Xe.s.",
"U oXW w.0.R q.,X@Xw.>.+XQ $XJXDX#X-.C :.KXbX;.V U @XkX<.LX5XI e.Z e.:.w.;.I oX@X,.y.;.e.>.oXDXGX@X<.C ,.LXbX-.R U $XhX;.OXw.R y.",
"%X*XP / y.y.d.GXjX;.^ ^ e.hX0XVXDX@X-.XXnX5X:.:.y.LXhXoXtX;.$X,X,X@XY ^ y.U.s.JXkX;.;.Q $XhXdXxXVX&X-.<.MX1X;.>.e.JXhXi.;.w.y.<X",
"GXkXY Q Y ,XKXDX7Xs.Q OXbX%.1.0XGXnXXX*XgXA -.e.DXbX8X;.Z W e.hXGXkXY / ~ 2XPXnX8X=XQ &XyX;.<.0XGXzXoX,XhXU Q e.nXFX7X:.Y Q OXbX"
};
