/* XPM */
static char *owl[] = {
/* columns rows colors chars-per-pixel */
"64 64 256 2 ",
"   c #020101",
".  c #0B0C0C",
"X  c #080906",
"o  c #181917",
"O  c #0F100F",
"+  c #3D290B",
"@  c #3D370C",
"#  c #3B3812",
"$  c #272F11",
"%  c #2F302F",
"&  c #1B211F",
"*  c #491D0B",
"=  c #581E05",
"-  c #432C0C",
";  c #4B2B0D",
":  c #492707",
">  c #5C2403",
",  c #5B2C02",
"<  c #53230C",
"1  c #5B240B",
"2  c #542A0B",
"3  c #5C2B0B",
"4  c #532703",
"5  c #47350B",
"6  c #57350A",
"7  c #4C2B12",
"8  c #472814",
"9  c #572712",
"0  c #443311",
"q  c #483915",
"w  c #5A3617",
"e  c #632303",
"r  c #642A0C",
"t  c #6C2C0C",
"y  c #662807",
"u  c #742E0D",
"i  c #762C09",
"p  c #6B3509",
"a  c #74310C",
"s  c #7C340D",
"d  c #773703",
"f  c #642C13",
"g  c #6B2D12",
"h  c #6A2B19",
"j  c #6B3214",
"k  c #653717",
"l  c #733313",
"z  c #7B3512",
"x  c #7B3814",
"c  c #7C391C",
"v  c #773718",
"b  c #742E12",
"n  c #573925",
"m  c #653925",
"M  c #641B00",
"N  c #394816",
"B  c #35651D",
"V  c #39681D",
"C  c #2F621B",
"Z  c #326624",
"A  c #356924",
"S  c #3B6C24",
"D  c #3B6D2A",
"F  c #386728",
"G  c #3D7126",
"H  c #3D732B",
"J  c #37732B",
"K  c #3E7431",
"L  c #3D7931",
"P  c #306826",
"I  c #474818",
"U  c #534516",
"Y  c #44591E",
"T  c #6D4E07",
"R  c #4A4924",
"E  c #574A27",
"W  c #4A5B27",
"Q  c #57592A",
"!  c #595B32",
"~  c #5E4736",
"^  c #6B502D",
"/  c #426D25",
"(  c #426D2B",
")  c #4A672A",
"_  c #53652C",
"`  c #437226",
"'  c #43732C",
"]  c #4A752C",
"[  c #447A2E",
"{  c #4C7A2E",
"}  c #4C7627",
"|  c #517A2D",
" . c #4B6C34",
".. c #486A36",
"X. c #546B33",
"o. c #596834",
"O. c #437432",
"+. c #4A7432",
"@. c #457A33",
"#. c #4C7C33",
"$. c #4C7D3A",
"%. c #467839",
"&. c #537333",
"*. c #527D34",
"=. c #537C3B",
"-. c #597539",
";. c #646535",
":. c #65773B",
">. c #6D7233",
",. c #597642",
"<. c #4C7E40",
"1. c #697944",
"2. c #72794C",
"3. c #6E6D49",
"4. c #797A7B",
"5. c #686769",
"6. c #70594C",
"7. c #863506",
"8. c #8A3506",
"9. c #8B3906",
"0. c #85350C",
"q. c #8A360A",
"w. c #85390C",
"e. c #8B390A",
"r. c #843906",
"t. c #943A0B",
"y. c #833612",
"u. c #843913",
"i. c #8A3912",
"p. c #823B1A",
"a. c #8A3816",
"s. c #943C15",
"d. c #873D23",
"f. c #994316",
"g. c #925310",
"h. c #AE531E",
"j. c #A74C19",
"k. c #AC6B18",
"l. c #974B29",
"z. c #9A5434",
"x. c #8D512D",
"c. c #A85124",
"v. c #B65626",
"b. c #B95E37",
"n. c #AA532E",
"m. c #B86339",
"M. c #AE6D2A",
"N. c #856626",
"B. c #CD6635",
"V. c #CD6936",
"C. c #CC663B",
"Z. c #CC6A3A",
"A. c #C36538",
"S. c #D16636",
"D. c #D26935",
"F. c #D26639",
"G. c #D26A3A",
"H. c #CE642F",
"J. c #C25F31",
"K. c #8E6654",
"L. c #B16C48",
"P. c #835842",
"I. c #CC6C42",
"U. c #C66644",
"Y. c #CB7047",
"T. c #4C8236",
"R. c #4E813A",
"E. c #4B883B",
"W. c #538135",
"Q. c #53833B",
"!. c #5A843C",
"~. c #5B8A3D",
"^. c #588638",
"/. c #628A3D",
"(. c #538542",
"). c #5C8C43",
"_. c #598944",
"`. c #5E9448",
"'. c #4C8040",
"]. c #638A46",
"[. c #64934A",
"{. c #69964B",
"}. c #798B57",
"|. c #6C9C53",
" X c #699855",
".X c #769B57",
"XX c #73934C",
"oX c #6EA358",
"OX c #73A254",
"+X c #74A45C",
"@X c #7AA55C",
"#X c #74A95E",
"$X c #7CAB5D",
"%X c #79A655",
"&X c #7AB05B",
"*X c #76AA62",
"=X c #7CAB63",
"-X c #7AA864",
";X c #7DB266",
":X c #7D9F63",
">X c #B38D06",
",X c #D19634",
"<X c #E3A22F",
"1X c #F3D937",
"2X c #FEEE2C",
"3X c #FCED16",
"4X c #878F5A",
"5X c #83AC5E",
"6X c #81A656",
"7X c #83B35E",
"8X c #8C9967",
"9X c #AB8C7A",
"0X c #AF8975",
"qX c #82AD64",
"wX c #86A966",
"eX c #83B264",
"rX c #84B26A",
"tX c #89B469",
"yX c #86B671",
"uX c #8EAC72",
"iX c #B39252",
"pX c #CD8E43",
"aX c #E59A44",
"sX c #E6A74A",
"dX c #F3D74E",
"fX c #FFE749",
"gX c #868789",
"hX c #8C8D91",
"jX c #908B91",
"kX c #AA8E84",
"lX c #AA9286",
"zX c #B19488",
"xX c #B1948D",
"cX c #B9A598",
"vX c #A1A1A3",
"bX c #CCAC9B",
"nX c #CEAD94",
"mX c #CCAEA3",
"MX c #CAB2A7",
"NX c #D1B3A8",
"BX c #CDD3AD",
"VX c #CFCDCB",
"CX c #F1DCD5",
"ZX c #FCE9D8",
"AX c #EBE4D0",
"SX c #E8E7E6",
"DX c #FAEDE8",
"FX c #FEF5ED",
"GX c #FCF7EB",
"HX c #FEF6F2",
"JX c #FEFBF4",
"KX c #FFFDFB",
"LX c #F6F6F7",
"PX c #EEF1F4",
"IX c #DBDCE0",
"UX c #BFC59F",
/* pixels */
"*.@X_.#.{ eX&X{.} #.F Z K Z K T.oX$X&.&. XF ' Q.eXXX%.%.$.*.*.} 7X&X^.T.} wXyX[...'.P P K F J <. X;X%.$.{.V ) =.rX|.O.@.W.*.!.( ",
"#. X=X{ { eX{./ ` =.(.<.F P K P G *X/ &.].F Q.$XtX[.#.F =.rX%X| {.7X$X| } =X{.F O.$.$.'.K P K P K -XD O.[.S *.tX;X X@.S *.wX@X&.",
"D ' +X' #.OX} ` [.yX-XK F P L P `.#X..F J Z _.tX{.] +._.;XqX@X@X} OX5X/ !.@X` ` ' ` O.H P F %.P (.#XO.D Z F ].=X XH ' ~.5XeX+X@X",
"@.' #XG ' OX{ W.-XwX X,.<.F F P L  X<.D P <._.8X:.)  .uXuX}.:._ -.X.8X) o..X-.X.X._ -.:.,.F F F $. X<.K F &.~.5XQ.F H qX7XXX*.` ",
"( S |.A [ `.[ E.yX}.X.N # W ..%.%. X+.(.$.&.W N + - - + 0 - 8 7 7 8 8 8 7 - + + + 0 - + + N .. .O. X<.<.! # $ :.<.H G ;X{.| ^.^.",
"' ` [.T.[ T.J _.#X-._ # # Q ......X.-.8X8X:.^ 4 4 4 2 9 < 9 1 9 9 9 9 = 9 9 9 9 1 1 < < ; q Q -.) ,.W o.! # # ,.-.G T.OXV W.rX=X",
"wX=.Q.#X[ C G E.$. .! q - q n % R R I Q ;.^ U l t a u u x t u a u t u d u d a a i s a u j w U ^ U R I R n 8 # R ,.K H |.` .X@XqX",
"tX@X+.=X#XT.E.{ ( wX_ 0 ; 7 7 7 2 : ; : : 4 r x u.i.q.i.w.w.w.r.w.w.w.r.w.r.r.e.e.q.i.i.y.x 4 4 : : 7 7 8 8 8 2.wX' S ` V S _..X",
"+X@X{ T.=X$XW.+./ .X4X5 : < 9 9 f g e y p y a w.0.q.q.q.7.e.r.w.w.q.0.e.0.7.q.7.7.q.q.q.a.y.y t t r f 9 9 9 q 2.:XD #.} ` Q.=.Q.",
"/ @X{ S `.+X{ W.) X.}.5 5 : = h z z z p.x x s y.a.q.q.q.7.e.r.r.w.7.7.e.q.7.e.q.q.0.y.a.y.y.p.z p.c j 1 = 7 q :.-._.$X5X*.{ #.D ",
"` |.+.[ W.#X#.;X=X) X.W q 7 7 f c y.u.b a x x v b y.0.y.e.w.r.r.r.t.e.7.a.i.u.y.z z c l l v v p.z c j 1 9 0 I Y ( ~.-XeXOXT.W.' ",
"D [.B ' ).$X+..XwX5X].}.o.E 8 f p.u.y = r > 1 4 1 = e l y.s w.7.7.9.7.q.u.a.b y e 1 1 1 r 1 = e x v j 1 w ;.4X) S #.] $X7X%X' @.",
"H H ' T._.+X` ] .X-X+..X) ! ; f b p.f m m m m m m m j v p.u.0.7.9.r.0.y.s p.b g k m w m m k m m v c h ; q :.5X` H H G ] 7X&X` ` ",
"O.T.O.O.H $.+.#.*.@X[  X) Q ; 9 t ^ nXbXmXNXMXMXmXbXnXK.e u 0.q.r.w.q.u.z r ^ nXbXmXMXMXmXMXmXnXK.f 9 ; R o.wXQ.J O.E.G W.OXG T.",
"%.O.$.$.K R.T.G G [.Q.].) Q 7 < * ~ ZXKXKXKXKXKXJXHXFXzX* 1 a.0.7.9.0.y.b = ~ ZXJXJXKXJXKXKXJXJX9X* 9 7 q o.-X@.H J L L T.;X` V ",
"(.$.( O.K L L L #.{ W.-.o.R : 6.kXcXLXLXVXgXhXgXvXHXFXVXzXK.v s 9.7.s b P.0XcXHXJXVXgXhXgXvXLXJXVXkXK.9 q !  .K K P L J T.oX#.H ",
"=X_.$.O.%.@.K O.R.#.O.$.X.R + 9XDXKXKXLX4.. . . % IXKXHXHXbXm e 0.s g 8 9XDXHXKXPX4.X . . % SXKXJXHXbXn # W +.( ' K J L L T.!.=X",
"@X.XO.R.L %.H @.+.' O.O...R 8 kXHXKXSXIX4.o O   O VXSXPXJXMXm = s y.f * lXHXKXSXIX4.O .   O VXSXLXKXmXm # ) =.+.$.H J L T.~.qXrX",
"*.!.+.' H @.K S ' #.+.+.,.R + zXHXSX% & hXPX4.. X o % vXKXMXn 1 z y.3 9 lXFXZX% & hXPX4..   o % vXKXNXn q W ( (.R.O.T.H #.eXqX X",
"+.+.[ H @.R.' R.+.^.^.!.-.E + lXJXSXo O 4.KXgXX     . jXKXMXn f y.z r 8 lXHXSX& O gXLXgX.     . hXKXNXn # W  .;X*X@.D G W.qX[.B ",
"$.#.S ~.T.R.#.( ].eX$XXX:.Q + lXHXIXo   % 4.% .     O jXKXMXm e b c h * lXGXAXo   % gX%   X   O hXKXMXn # ! =.*XyX*X#.S | %XS ( ",
"+.Q.Q.qX$XW.' #.$XeX7X5X:.! - kXHXSXo   X           . gXKXMXn 9 p.p.3 < lXGXSXo       X       . gXKXMXn # ..( @.*XrX+XV { {.B S ",
"R.@.*.OXeX$X*.+.rX{./..X/.;.+ xXHXLXgX5.%       O ,.4.VXKXMXm 9 g t f * 9XJXDXgX5.%       X 5.4.VXKXMXR # ! ..S #.qX*X` ] ` ' { ",
"'.O./ } OX5XT.+.{.| /.wX:.;.+ xXHXKXKXIX5.      O IXGXGXGXmXw 6 > > , : 9XGXJXLXIX5.      o VXHXGXHXMXn # ,.%.O.' ).+X+.#.T.;X*X",
";X'.S ) ].qX+.A R.R.~.@X-.2.~ xXZXDXKXKXgXo & o % SXKXGXCXsXT T T T T T iXAXGXGXLXhXo & o % SXKXFXZXmX3.! ,.O. .=.(.*XG Q.*XoX;X",
";X-X` *.| +X#.F R.' #.-X XBXZXmX6.K.DXKXDXSXSXSXSXKXGXbX^ iXdXdX1X1X1XdXiX>.K.GXHXPXSXIXSXSXKXFXcX~ zXZXBX}.( %.#.' |.Z A T.D oX",
"|.$X] *.*.D %.D R.Z @.=X1.cXGXbXm ^ CXHXHXLXHXHXHXHXDX0X4 M.dX2X3X2X2X2X,Xp ^ CXHXKXLXHXJXDXFXDX9X* 9XZXAX1...%.+.@.S H K P %.L ",
"@.+XS S $.+.$.O.@.F $.+...4XlXK.v x.K.kXxXkXkXkXxXkXzXK.l.k.>X>X3X3X<X>Xk.c.z.0XkXkXkXxXzXzXlX9XP.k 6.9X8X}.yX-XR.R.#.H K J O.$.",
"H |.' H @.' K K @.H H Z &.I + 9 p.b 1 : * 8 * 9 8 8 1 x.Y.f.> T 1XfX>X= T L.m.r = * 9 * * 9 * < h c k 8 @ }.rX[.' H ` H %.O.K $.",
"S #.@.H O.F R.(.@.@.S S ) R - h y.y.t f f h t f 9 9 h l.I.n.f.g.,X>Xk.f.h.Z.m.l.d.d.d.c b y g t a y.j ; U }. .F D H H S F J @.#.",
"E.{ B O.'.%.'.+XS G G ' ,.Q 9 t y.0.y.y.c z y.y.c M y l.I.C.m.m.T d c.A.A.Z.C.A.Z.A.A.c.y.y.y.z q.u.l 4 U 2. .@.G T.` ' O.K '.(.",
"#XE.G K A `.yX*X` R.S -.2.U , t 0.q.e.0.i.i.8.e.b y y l.I.S.G.b.s i c.G.F.B.B.V.D.D.G.v.f.a.q.q.8.i.t 3 5 W +.@.`.*X#.+.<.G @.=X",
"{ ;X;XL @.;X;X`.H *.W I 5 k l 0.0.e.e.q.7.8.8.q.z y y l.Z.D.B.Z.v.m.A.S.F.F.S.S.V.V.H.V.A.v.t.8.8.q.l 9 I W ( T.=X{.] { #.T.E.[ ",
"[ oXoXZ T.rX`.F ' ] o.5 4 p x w.8.q.q.q.7.8.8.8.z 1 r l.I.G.Z.B.V.V.S.S.S.S.S.S.B.V.V.G.Z.A.t.8.8.i.l 7 q _ +.~.@XV *.V T.;X=X#.",
"S ' *XH #.+X` ' #.X.! 5 6 a u.q.q.8.q.y.e.8.8.8.z 1 y z.Z.B.B.F.Z.Z.D.S.S.S.S.F.D.D.S.B.Z.m.t.9.9.w.b 9 - _ /.+.|.S ' ).eX=X|.@X",
"[ [ +XD #. X*.] [.uX4X5 , i q.e.q.q.q.i.e.e.8.q.p.M e z.U.Z.F.F.V.V.B.Z.B.Z.F.D.S.B.S.B.Z.m.f.8.9.s j < q 1..X] +.B _.=XeX{.V ' ",
"S H  XD #.[.] )..X:.E k t s e.7.e.q.0.0.q.q.8.q.y.y r l.I.S.F.F.F.D.V.V.Z.Z.V.B.S.S.F.J.v.h.t.q.9.r.t 2 q 4XuX*.T.$.).tX].Y /.^.",
"' ( |.+.' #.+.wX2.I 5 k p.y.0.7.8.q.0.q.a.q.8.8.z M y l.Z.S.F.F.F.F.Z.Z.Z.V.Z.B.F.S.S.v.t.q.8.q.9.w.l 4 U 8XXX*.(.#._.+XV ^.5XqX",
"-X(.D O.H B #.wXo.@ 6 l y.q.7.e.7.q.e.0.q.q.q.0.i i b n.G.G.S.S.S.F.V.A.V.Z.Z.D.S.F.F.v.t.8.8.q.7.i.l 2 U 4X*.*.=XQ.T.|.V %XOX5X",
"rX*XF G ' [ _.@XI 5 , x i.q.e.7.7.e.e.q.8.a.i y b z.L.b.S.S.D.D.S.S.V.Z.V.V.F.S.F.S.F.h.8.t.q.q.q.u.t 2 I ;.| | rX;X^.T.V V ^.XX",
".X-XO.D O.@.~..XI 5 3 z a.8.e.7.7.7.e.8.e.q.b e t b.U.G.C.C.D.H.S.D.D.S.V.F.D.D.D.V.V.h.9.e.8.q.0.c k : U _ | ^.5XtX5X` ` *.| ~.",
"O.*XD O.E.H ' ) ! 6 r a e.8.e.7.e.7.8.e.e.y.h e f b.U.F.C.G.D.H.S.S.S.S.F.D.S.S.B.h.j.f.9.9.q.q.z j w ;./.&.| | /.5X6X| { /.wXwX",
"%. XP ' R.#.` &.3.q r z q.8.8.e.8.8.8.8.0.z j e b b.F.F.B.D.D.V.D.H.S.D.S.S.D.D.H.j.9.r.e.e.e.u.y < ^ :.| } /./.} /.7X| !.rX5X{.",
"@.`.D #.^.*.S ].2.5 3 z q.8.8.e.e.e.8.e.s l c d.f.A.F.F.S.S.D.H.D.S.D.D.B.S.H.v.h.f.8.r.r.w.i.x g : ! :.} | 5X6X} /.%X/ =.rX[.B ",
"J ' <.wX=X{ ' &.2.0 3 a 9.9.7.0.q.q.8.a.i M a.b.A.I.F.S.H.B.V.V.V.V.B.F.F.G.J.f.9.t.q.0.0.w.u.x 3 5 Q &./.tX5X5X$X~.=X#.W.+XA J ",
"[ [  ..XrX#XQ.].3.- 3 z 7.9.9.q.q.q.b s u i f.U.G.F.B.S.D.D.V.Z.V.D.V.Z.B.A.v.t.9.8.q.q.w.y.x a w 5 >.:.tX7X%X/.OX~.+XT.$.oXJ L ",
"T.' *./ {.;X+X-.3.0 r y.q.7.e.w.0.0.f f l.b.b.C.D.S.H.H.G.Z.Z.V.D.F.V.Z.v.f.f.9.8.8.8.e.u.x y 6 U >.XX~.eX&X} *.^.*.(.%.%.[.J B ",
"~.*.Q.` G |.#X=.;.- 1 z 0.r.w.x s s y t l.I.C.G.D.D.D.B.B.Z.F.S.V.A.V.Z.c.9.8.8.e.0.i.y.x x , 5 Q ].@XW.%XW.#.' #.=.=.$.H  X+.` ",
"@X].{ *.G L *X .R q 3 v p.a r r t t l.n.v.I.I.C.F.I.F.S.F.V.Z.A.h.j.j.j.f.w.0.e.u.u t p f k E ) &.(.+X].+X*.] W.+.R.R.$.@.$.W.wX",
"OX|.@.Q.B H  X .R 0 6 v v y = > = z b.G.F.F.B.Z.C.F.F.S.V.Z.Z.A.t.7.7.0.s w.u.y.v f 4 4 ; q ;.-.$.=.Q._.=XW.{ *.#.Q.R.#.^.!.eXeX",
"*.!.*.( S D  X( ) R E 6 b a.s.d.a.f.m.C.F.D.B.V.B.J.v.v.v.h.v.c.t.8.0.u j p l t j U U U I Y &.!.Q.' +.^.@XQ.' ' _.$.Q.=.^.eXqX{.",
"+.+./ *.Q.` O.$.%.X.;.6 > l.U.U.U.A.U.U.C.C.C.Z.J.t.8.7.e.t.q.e.q.0.i e e , M e , T _ :.-.&.-.~.+.] ` ' $.Q.W.).$X^.W.{ #.=X[.A ",
"*.*.*.=X-X).[ [ W.&._ U , l.Y.C.I.C.b.b.b.L.m.m.n.f.y.z z z s s z s r.d 7.i d i p N.>.:.} ^.yX@X| !.#.Q.!.$.R.!.rXqX^.V *.@XS H ",
"( _.+X XrX+XL G | } _ 5 , l.I.F.F.J.y.u r f f y r > r e M e e , = y c.,XpXaX,X,XpXN.I Y { #.wXtX@X| W.*.#.S R.#.@XtX6XV #.+XC H ",
"=.#.B `  X;X#XG V :.4Xq 3 l.Z.F.S.b.g < 7 - 6 5 w 8 = e t i y p y d k.aX<X<X,X<X,XN.5 U X. .^.5X5X/ } ~.$.R.+.#.~.qX5X/ D [.' @.",
"(.( ' *.H oX#XG /.qX8Xq , l.I.S.F.b.h 8 E Q ;.E ! q 1 x.M.M.k.M.M.k.k.g.g.g.g.g.g.p 4 R :.&.| /.%X/.!.5XrXOX#.} #.^.=X' B +.;X;X",
"*XQ.S -X^.T.OXG eX5X2.5 2 z.m.D.I.m.r 5 o.&./ X.:.5 6 M.sX<XsX<XsXaXg.6 4 6 4 : : : - I 1.=.W.W.5X!.eXtXOX~.OX^.#.=.*X%.H oX|.rX",
";X+X' rXOXT.oXG ;XXX_ q 2 z.Y.v.l.x.^ I B ] { / Y Y U g.M.k.k.k.k.k.T T Q U R W R Q Q _ ,.( } W.%X~.5X@X^.W.!.| T.).#XS R.Q.S |.",
"*X+X/ .X=X] `.[ OXB Q 0 6 z.Y.c.h 7 o.X.B ` *.Q.S =._ U d p , e p 6 U o.:.-.X.,.,.,..X=.%.+.#.^.OX~.5X| | W.W.~.*.Q.*XF ` W.Q.] ",
"' +X' D .X#.).T.#XS X.# 5 P.L.x.9 # X.#.( ~.yX+X' Q.) N @ 5 - - + @ Y W.+.' =. .,.F <.H F H T.#.G #.7X| } /.tXOX' #.H O.R.$.=.*.",
"` oXH +.%.( ] ] ).F O.=.-.:.>.>.:.) =./ ~.&X;X`.H O.$.!.wXwX}.-. .:XO.J Q.O.( ' H V H Q.T.T.~.^.*.#.{.{ ].eX+X[.' ' #.+._.Q.#.=.",
"S T.H O.O.D +.].Q.#.@.T.' Q.eXeX^.' B } yX&XG V S Q.oX@.qX[./ +.B @.H %.O.F #.T.T.T.J E.` T.;X5XW.} B { rX*X' / F Q.+X` R.@.D @.",
"^.E.P %.$.=.=.qX@X' L H T.%X{.tX$X^./ *.eX[.` +.T.;X+XQ.@X} @.).).E.P ..<.<.(.rX#X[ ( ' ^.OXOX;X&X^.` +.=X`.[ ' #.eX@X#.' @.$._.",
"rX+XP K F _.tXrXXX=.J E.oX/ } %XeX$X*.!.6X/ ( #.;X*X.X/ V / T.#X;X#XF J J (.;X;X|.#.( _.|.{ ' OXeX$XW.~.+XS H #.=XrX|.` F H %.;X"
};
