/* XPM */
static char *wood_stick[] = {
/* columns rows colors chars-per-pixel */
"64 64 246 2 ",
"   c #050301",
".  c #0A0501",
"X  c #050B01",
"o  c #0B0B01",
"O  c #0C0809",
"+  c #150808",
"@  c #0A1404",
"#  c #0C1906",
"$  c #141A09",
"%  c #191815",
"&  c #160D12",
"*  c #281917",
"=  c #341B1A",
"-  c #210A02",
";  c #13220C",
":  c #152B0A",
">  c #19270B",
",  c #1B350E",
"<  c #1A2C13",
"1  c #1C3513",
"2  c #1E3618",
"3  c #0D2107",
"4  c #23340B",
"5  c #272918",
"6  c #263918",
"7  c #2D3212",
"8  c #281C23",
"9  c #382728",
"0  c #3A3925",
"q  c #33362A",
"w  c #492A2D",
"e  c #492D33",
"r  c #542E37",
"t  c #4B3336",
"y  c #4B3938",
"u  c #533335",
"i  c #54343A",
"p  c #57393B",
"a  c #633C3C",
"s  c #29471B",
"d  c #34481B",
"f  c #35551C",
"g  c #2B531C",
"h  c #2E641D",
"j  c #34651C",
"k  c #35691D",
"l  c #3A691D",
"z  c #3A651B",
"x  c #3C701D",
"c  c #2C4B22",
"v  c #334D23",
"b  c #374425",
"n  c #2D5A24",
"m  c #3B5C2C",
"M  c #375727",
"N  c #395232",
"B  c #2F6827",
"V  c #336623",
"C  c #3B6523",
"Z  c #356A24",
"A  c #3C6C24",
"S  c #34642A",
"D  c #3C652C",
"F  c #356B2A",
"G  c #3C6D2A",
"H  c #3C7226",
"J  c #36722B",
"K  c #3D722C",
"L  c #3F792D",
"P  c #357125",
"I  c #3C6C30",
"U  c #3D7432",
"Y  c #3E7937",
"T  c #415019",
"R  c #41671E",
"E  c #484828",
"W  c #46582C",
"Q  c #494534",
"!  c #55453A",
"~  c #585637",
"^  c #4D5A33",
"/  c #68493B",
"(  c #66583E",
")  c #436323",
"_  c #426E25",
"`  c #43622B",
"'  c #426E2B",
"]  c #4A6A2A",
"[  c #52692B",
"{  c #437226",
"}  c #4A7426",
"|  c #43742C",
" . c #4A752C",
".. c #457A2D",
"X. c #4C7A2D",
"o. c #4E7927",
"O. c #517C2E",
"+. c #426B34",
"@. c #4B6B35",
"#. c #566938",
"$. c #437532",
"%. c #4A7433",
"&. c #457A33",
"*. c #4C7C34",
"=. c #467B39",
"-. c #4C7D3A",
";. c #47763A",
":. c #537532",
">. c #527D34",
",. c #527D3A",
"<. c #5B7A3B",
"1. c #577439",
"2. c #67653D",
"3. c #65773C",
"4. c #72763C",
"5. c #583D45",
"6. c #663D42",
"7. c #743D46",
"8. c #594649",
"9. c #524C41",
"0. c #63444A",
"q. c #6A4648",
"w. c #7B494D",
"e. c #76474B",
"r. c #685349",
"t. c #795847",
"y. c #674952",
"u. c #794A52",
"i. c #795658",
"p. c #566942",
"a. c #4C7545",
"s. c #547442",
"d. c #666948",
"f. c #667846",
"g. c #777949",
"h. c #777953",
"j. c #78674F",
"k. c #844945",
"l. c #83584B",
"z. c #854E55",
"x. c #885858",
"c. c #935A5A",
"v. c #8C6447",
"b. c #85774D",
"n. c #85635A",
"m. c #976959",
"M. c #887959",
"N. c #98785B",
"B. c #A1795A",
"V. c #955C63",
"C. c #8A5A62",
"Z. c #8C6662",
"A. c #986966",
"S. c #897766",
"D. c #9A7465",
"F. c #9D7A63",
"G. c #987667",
"H. c #9C6E71",
"J. c #A27563",
"K. c #A47C63",
"L. c #A47C6C",
"P. c #A8786B",
"I. c #A4736F",
"U. c #4D8135",
"Y. c #4D813B",
"T. c #468138",
"R. c #548235",
"E. c #5A8436",
"W. c #53833B",
"Q. c #5A853B",
"!. c #56893D",
"~. c #5C893D",
"^. c #5E903F",
"/. c #4C822F",
"(. c #618B3D",
"). c #648539",
"_. c #4E8142",
"`. c #548541",
"'. c #5B8443",
"]. c #558A43",
"[. c #5C8B43",
"{. c #5D8D48",
"}. c #5A8649",
"|. c #5E9248",
" X c #5D8852",
".X c #618C43",
"XX c #638C4B",
"oX c #66844A",
"OX c #77854B",
"+X c #649346",
"@X c #63934B",
"#X c #6A954C",
"$X c #6A994D",
"%X c #66984B",
"&X c #729D4D",
"*X c #638A52",
"=X c #7A8554",
"-X c #649552",
";X c #6A9552",
":X c #6C9C53",
">X c #6B9D59",
",X c #669952",
"<X c #739E54",
"1X c #769959",
"2X c #6DA155",
"3X c #6EA25A",
"4X c #74A254",
"5X c #7AA556",
"6X c #74A45B",
"7X c #7AA65C",
"8X c #75A95C",
"9X c #7CAA5D",
"0X c #74A856",
"qX c #7DB15F",
"wX c #75A04E",
"eX c #729562",
"rX c #7BA262",
"tX c #76AA62",
"yX c #7CAB62",
"uX c #7AAA67",
"iX c #7DB264",
"pX c #7FB169",
"aX c #76B26B",
"sX c #888657",
"dX c #97875B",
"fX c #86985B",
"gX c #848D4E",
"hX c #A4855E",
"jX c #82AC5E",
"kX c #88AF5E",
"lX c #84B05E",
"zX c #9B8663",
"xX c #8A9963",
"cX c #979564",
"vX c #A48464",
"bX c #A78668",
"nX c #A88270",
"mX c #82AD64",
"MX c #86AB68",
"NX c #84B264",
"BX c #89B365",
"VX c #84B369",
"CX c #89B56B",
"ZX c #88BA6A",
"AX c #87B471",
"SX c #85A774",
/* pixels */
">.7X[.>.X.VXuX@X| U.S V $.V Y -.4XyX,.;.eXS $.R.VX;X%.-.1.O.E.o.NXmX!.*. .jXmXXX$.a.F F $.Z U Y ,XiX&.-.>Xj _ >.mX>X&.&.,.>.Q._ ",
"*.;XyX .*.VX%XA | -.].-.I S U V | yX' :. XF Y.yXNX@X-.D >.MX4XO.$XNXyXR.*.mX#X_ ;.=.=._.G V U B *.yXU U |.A Q.BXmX%X&.A ,.mX7X:.",
"A $.6X| U.0X} A .XCXuXG S F Y S ].6X' j F A [.VX+X*.$.{.VXmX5X<X*.>XuXA W.6X} _ { A $.J F F U B `.3X$.F V Z .X7X,X| | ].9XmX<X5X",
"$.$.6X| | 4XX.>.yXmX;XW.a.B B B &.>X,.A V -.!.rXW.V ' pXVX#X>.}  .} <X_ X.:X*.| .. ...U.Y.B F S -.3Xa.U D &.'.yXW.Z K iXNX&X>._ ",
"K G ,XA ..@X .Q.CX;X*.-.Y =.Y Y =.-XK [.*.*.R.7XW.A | tX@XW.!.W.A | <Xl %.@X&.!.NXqX..X.K $.&.G ;.@X=.Y $.=.>.yXU.K K yX$X>.R.E.",
"| K @XW.| R.{ ].6X*.| | U Y Y F Y Y.&.iX9XE.>.:XU.G *.tXZ W.VX7X| A +X*.&.&.J !.iXiXqX..K -.| *.$.U.K U K ' W.+X-.K U.0Xk R.NXyX",
"yXR.U.8X&.j | W.W.| | | k k P K =.L K ,XkXkXO.l &.A | 4XK 3X4XZX8X!.{ ..A Z U _.W.yXZX8Xj j R.4X....H ..| } { { W.P K :X} <XyXyX",
"BX7XX.yX8X*.Y.&.' tX$.H | ....iX0XZ K X.&XkXjX_ V | ..&.Z A W.:XVX8X| H K K K U | &.yX8X{ U.jX9X{ R.VX8X{ A >.NXtX| K G C _ `.>X",
"4X7XX.X.uXyX-.*.A 1XtX*.} ~.NXiX@XK &.*.E.&X5XX.[.VXyX} K W.>.W.2X8XU.K &.P Z -.-.K U.6XR.9XZX0XX.qX8XyX8XE.jXCX0XK U. ._ E.W.W.",
"{ 7XX.A +X6X .W.A &.<X7XW.4XiX+X| A | W.>.(.7XE.yXyX;X,.$.-.W._ | 8X..J U.0X..{ &.$.-.tXR.NX0Xo.o.2X..X.4XO.NX6X*.`.yX9XX.X.*.G ",
"_ :X&. .W.6XX.mXjX} >.jXR.VX|.l *.!.$.R.O.O.7X[.VX@XQ.W.=.$.*._ $.>X&.J U.ZX5X..Z h | >X*.4X..k k H G *.7XR.7X} | !.8XZX0XO.W.| ",
"G @XV } +X8Xo.<XmXjXQ.<X*.8XH *.mXNX:X>.j X.7X~.4XE.*. .<.W.| =.D -XK K X.0XNX4XU.K | K | yX| G | K j } 9X~.9XA Z *...9XBX5X} ..",
"| $.$.-.!.6X{  .<X9X>.4X| 6X$.&.8X<XNX:Xk k -.W.!.R.R.~.4X7X| $.$.G K =.A { mXZX8XK K A -.>XU _.Y.U.K `.6X`.mX| K L H o.jXjX....",
"$.=.$.U K -...*.,.<X| %X| ,XG K _ } 7X9XK J $.=.| %.E.4XlX%X$.$.;.-.$.$.C A *.tX6Xk A A K U Y =.U K $.&.yX>.yXW.J &.U.H /.wXP &.",
"&.;.Y.=.| Y.-.K | @X`.XX' -X&.| <.O.+X8XL J U $.G  .R.lX%Xo.I S =.$.W.%.A $.;.W.7XA A K U B J U Y.K &.Y.<X .tX&.K F | &.*.iXL B ",
"'.,.G $.U U &.$.=.=.-.-.;.W.' W.>.R.R.2XL J &.&.$.*.{ 4XR *.=.Y `.-.>.1.C G $.`.yX>.>.U.Y.J B Z J K $.>.>.%.K L U B L K *.6X=.K ",
"MXQ.,.U =.Y K &.Y.&.$.Y.=.-.W.*.-.} | ..U.K G `.,.%.' 9X .X.*.CXmX<.=XsXs.' K !.>X} } R.ZX8X&.K L G #.p.#.@.%.| U U J Y | U.].yX",
"1X1X$.-.Y &.K &.| | &.I $.&.*.`.-.| >.*.| j Q.mXrX,. .8XU.+XyXyX<X7XM.cXxXG  ._ ] :.o.O.4XZXtX$.| <.h.j.h.3.<.' =.U J L U.[.uXVX",
"W.Q.%.$.J =.| Z | *.&.} W.*.+X7X| ..| *.A X.NXiX>X$.H 2XR.qXZX#X,.3.sXsXOX) T ).fXMX<X| *.9XCXMX@.h.j.j.S.S.d.3.1.| T.P >.BXmX;X",
" .*.$.| -.U.| U.*.,.Q.E.,.(.NX7X-.W.Q.!.*.&.iX,XT.B /././.qX[._ #.[ b.dXOX3.4.sXfXfXC C :.[ xXfXh.M.n.x.Z.G.M.=X=XK H H R.BX#Xf ",
"*.*.A Q.U.U.*.K .XmXNX#X(.jXkX9XW.8X6XVX@X*.8XW.-.h P /.X.7XC ] f.2.M.zXdXgXsXfXXXf _ %.4.4.b.dXnXD.H.V.z.V.D.j.=X*X| A O.<XR } ",
"&.U.Q.yX8XR...*.mXmXBXjXE.BXlX+XU.3X| <X4X..8XU.K $.U.k ..[.C #.2.M.zXj.[ 7 4.3.W g W 3.sXdXvXvXA.x.u.u.7.7.t./ ~ f.-XV  .#Xz A ",
"U.*.R.4XmXyX>.X.VX%X(.5X).jX%X .| W.| | 8X*.yX| %.,.*.H | | ` #.t.G.j.W d 4 W 7 T f.g.sXbXbXnXD.c.z.k.z.V.u.x.r.> p. XD $.{ | ..",
"Y.| _  .4X9X*.&.$XU.).5X).5XR.*.A *.A | 3X-.6XU.,.G | ..&.`.SXsXt.D.~ 7 : 4 ( 2.2.dXhXvXbXP.m.c.e.a e.z.i.q.0.y < 6 a.+.=.Y.iX0X",
"uXY.k } ~.mX%.C U.W.Q.7XX.NXW.U | K j | 3XP &.V G ' $.T.].rX=XM.l.F.~ 7 7 E b.dXdXN.N.K.L.A.c.w.7.a u p w 9 & O $ 6 a.m _.uX,XiX",
"pXyX| >.>.6X-.Z _.$.W.7X[.3X-.Y.&.$.D ' 8XP P B | $.U P | @.d.t.G.vX/ E sXN.v.l.vXN.v.x.A.x.u.6.r t 5 . . + o X ; 1 a.n B =.P 2X",
"1XtX| *.*.' =.G _.V -.tX-.-._.-.J | -.W.3XT.J Y F T.T.J G #.( t.F.bXb.b.bXbXB.m.N.t.a a x.V.x.a * & . X @ o @ ; : g g G K Z *.%.",
"| tXA A ,.| -.$.&.Z =.&.F $.-.$.Y.$.$.&.L |.aXtXJ U T.F oXxXt.m.N.hXhXhXB.P.P.J.c.r w r q.H.q.=     @ # # 5 b c g m A A F G %.,.",
"K 2X| | $.| $.K =.G K F U.Z Q.'.U.K &.*.[.VXuX@X$.&.' <.xXsXG.L.K.hXhXB.hXK.I.V.e.i i i p Z.a + . @ ; ; c p.p.a.f C A H &.L $.,.",
"A -.$.U U G U.!...&.J V G W.MXjXW.H V  .CX8X .l _  .) 4.cXvXL.G.G.K.B.P.nXP.C.y.0.5.6.5.r q.n.r.$ $ : c f. Xm n A A _ H P J =.:.",
"!.&.h $.Y.&.W.3Xk H K L ].6X<XBXNXR.K ,.VX(.:.:.[ OXg.dXvXbXbXZ.r.q.u.n.x.i.r * * * e 0.5.p i.j.5 6 s ` 1Xf.$.=.G -.' | L U _.].",
"6XW.K L Z {.AX8X..U.P Y.2X|  .<XNX9XW.Q.1X[ 1.g.gXcXdXvXK.m.n.r.p y 6.6.w w & . X o * t 8.5.i.i.! W W %.;XA U =.{.8X*.&.Y.J L tX",
"-.pXtX$.&.iXCXXX .X.Z L .... .>.#XkX:.).gX[ sXdXzXvXN.m.m.q.t 5.y 5.5.9 + . o @ @ # $ 5 ! 8.q.i.S.^ m ` ;XV G U.iX%X..X.*.,.W. .",
"+.3XtXk *.VXXXC _ ..R.*.J Z G *.[ kXOXgXdXdXhXN.( J.x.k.e.0.5.8.5.% O O   & $ # 1 1 b 5 5 y y 0.Z.! 6 m }.$.*.[.0Xl X.l R.mXmX>.",
"P K rX| *.0X| | U.} 1.] h K 1.` 4.xXdXhXB.hXhXN.J.P.V.c.e.y.9 8 %   O O # 5 6 6 v g m N 5 q y ! 8.Q E b M %.*...2XA  .[.iXyX:X7X",
"L ..6XA *.2X-.| .XMXxX=XoX' @.3.OXdXhXhXhXv.m.m.J.P.I.x.q.w & O X X ; ; 2 N s n +.m @.m W b 6 y 7 Q E b f <.7X.. .V `.yXBX+Xk { ",
"x H $XH &.|.L !.MXfXM.zXsXf.b.sXdXvXvXK.c.k.k.k.k.A.u.a y +   O @ ; 6 2 c a.M I =.`.`.' @.W b > * $ 0 E 2.<X7X*.,.-.XXMX|.l ^.U.",
"{ { ,X-.H -.X.VXxX2.t.M.zXN.zXM.N.N.P.m.k.7.V.V.w.e.= + + o @ 2 < 6 @.N m a.I ;.&.iXtX`.-.%.] M 6 > 7 T 3.1X#X-.`.,.'.rXl R.qXqX",
"uX`.D &.K j a.=X( / w.c.nXbXB.B.K.B.A.c.V.z.i.5.= * + o o ; 5 b +.m M D I D Y $.%.yXZXyX>.>.<X}.M s d d 3.oX .*.rX`.>.>XR 5XwXlX",
"pXuXV K $.$.f.d./ 6.7.V.P.nXK.K.K.P.x.z.V.r e *   X X @ # ; s @.*X;XC ' D $.-.,.*.X.mX7XE.jXNX;X` M d ) <.W '  .VXmXE.>.R R R.&X",
">XuX| A X.1.9.! t u a z.D.J.K.vXP.I.z.q.i + .   @ X ; ; 6 v f [ ;X1X .' | -.*.*.R.O.>.jX).kX5X>.,.,.' >.#X)  .<.9XNX9X .} :.O.).",
";.3XK } ,.#.r.q.5.u r / x.L.vXF.A.l.q.w &   X @ 3 2 2 n s %.<X<X' <X_ | !.U.{ ..} O.:.7X(.7X>.R.NX6X>.R.1X>.:.O.E.NX4XO. .(.mXjX",
"=.,Xz _ s.p.9.8.8.u w q.m.L.nXG.r.= = & . @ $ < 6 v W ' ,.rXrX.X..:XA R.iXiXlXR.O.} o.<X.XyX} ~.NXBX9XR. .} E.)...^.qX/.R.mXuX;X",
"=.{.} >.s.p.9.y.5.t w e.A.A.Z.r.9 .   @ @ # < v f.oX%.f '.VXXXC -.@XP pXqXqXZXjXR.O.Q.X.,.>XW.Q.jXBX7X>.} O.BX5XO.E.0X{ R.ZX%XV ",
"U $.a.uX1X9.8.8.5.5.i 6.e.u.8.8 X O X $ 3 : M '.oXtX7XQ.%.7XA U K $.W.6X*...9X0Xo.R.mXyX>.W.,.W.E.5XNXR.E.NXNXkXjXQ.9X*.U.6XZ U ",
"L -.$.6XSX=X9.8.8.8.y.y.0.q.8 O X # : c s g m $.| ;XBX<X>.0XD &.;.&.A !.O...~.jX~.lXZX6X&.W.-.*.{ o.5X~.ZXNXwX~.<X(.6X*.U.3XK &.",
"-.| :.D eXuXa.9.0 9 9 9 * 5 O O % ; 2 c n n D | _ o.wX5X} ,Xh P -.&.,.,.>.>.(.<X~.NX0XU.| | W.| _ [.9XR.BX9X} R.Q.>.Q.-.&.-XF j ",
"!.*.,.I D  Xf.2 < @ o . o o % ; ; 6 s S G F &.-.(.O._ 0XH %XY.J W.*.,.`.%.>.~.MX[.7X$.| W.U.,.W.W.[.5XE.4XR.*.{ >.<.,.,.G -X;.| ",
"8X[.*.>.A D *Xs : : 3 3 # 3 6 : 1 f G G -.' A .XBX4X{ $X .*.W.yX8X~.-.Y.>.>..X<X.XyXR.,.W.a.,.,.Y.[.4X[.7X>. .>...W.`.=.$.W.W.mX",
"6X:X| W.Z D  Xn s 2 6 , , 6 N s +.-X6X,.' _ *.mXjX+X*.;XW.[.BXqX<X6X-.-.X.>.>.*.Q.6XW.W.Y.`.,.>.-.-.-.[.yXW.X.,.*.W.U.*.E.Q.NXmX",
",.W.*. ._ G *XS S m W m ` m c ;.*XD >XpX!.*.yXmX.XA  .X.R.BXmX+XR.>.*.W.R.Q.E.o.O._ Q.%.&.=.>.Q.W.| *.W.6XW. .| [.,.-.,.W.VXyX#X",
";.-.A *.W.| $.a.;.+.%.rXrX1.I D ;.$.,.>X4X' NX@XA *.Q.X.X.9X+X_ } >.$.-.{.NXjXR.<.O.o.W.-.*.Q.E. . .|  .>.W.*.].7X!.W.X.*.yX@XA ",
"s.W.:.mXyX[...&.-.*._ #XmX7X%.G U =.$.$.8XU.8Xl Y.VXyXA >.9Xz ' ,.,.*.-.CXCX<X(.BXjX).R.*.Q.BX7XO.Q.>.W.W.*.W.Q.VXmXE.R >.6XA K ",
"$.[.7X;XCX7X{ H -.{ O.o.#XNX8XV F G G &.3XU.2XK pXVX.Xk *.7Xj _ } W.W.}.mX7X:.).7XBX5XE.*.*.jXBX7XO.>.*.*.A -.*.7XCX7Xz *.7Xj K ",
"=.-.C  .;XVX6XH k R.NX4Xo.2X3X..U K V W.:XJ 8XK uX|.H G *.XX} >.>.>.%.[.yX,.>.O.Q.mX9XE.,.H E.jXjX_ } ~.*.W.*.*.~.yXmX_ { @X| &.",
"W.G | >.' :X8X{ !.qXVX4X%X{ 0XL T.K J J ,XK @X..,XZ &.| j &.VX8XE._ $.{.7X .>.o.>.O.9XW.*.X.O.(.5XE.(.mXZX<XX. .*.Q.tX} j ;.pXtX",
"tXW.K yXE.U.2XH qXqX%X,.| | 2XA U.U U.&.-X&.Z &.|.h *.| %.6X4XNXmXW.B ].yXR.>.U.>.!.yXW.-.-.,.E.9XQ.BXBX4X~.4XE.>.R.tX-.| 3X:XVX",
"iX0X| iX4X/.2X| iX%XH %.%.-.2XK -.$.T.$.Z ..T.P j *.&.Z -.| A :XBX6XZ {.0X-.W.W.R.{.yX,.-.| | R.7X~.mX5XE.R.E.X.R.].tXZ -.W.A :X",
"3X8Xl 3XtX..+X..2Xk ..K -.&.@X;.W.-.-.&.h L /.U.Z U.X.Z { | W.%.:X6XP =.Y.W.-.*.-.W.6XY.=.$.>.Q.4X~.9XO.O.E.>.~.-.W.tXZ K W.,. .",
"..3XL Z 2X-.{.>.8XV =.K ' +.,.,.G | ..*.{ ^.ZX3X$.-.K | {.NXtX&. .8X| U.-.| -...-.A U.K F U ,.>.{ *.NXo.} (.ZX6X| -.G $.-.>.W.>.",
"K 0XK ..&.| | %.|.A | -.-.U.Q.`.,. .*._ ^.qX8X@X| | &.U.iXNX%X .| 0XU G -.K | | | Z | U.T.Y.~.E.*.*.%XX.~.mX7X@X| | *.;.].-.-.,.",
"A *.K $.$.G :.[.,...$.T.K W.VXmX,._ j X.ZX7X .k Z ].2X*.NX+XA *.C *.$.=.K k U.W.-.-.| *.&.U.NXNXR.} z X.ZX8X .A A W.6X| W.&.G -.",
"'.!.V $.Y.-.<.mX7X} ..L =.0X&XjXjXQ._ R.yX+X} ..*.ZX6XW.4X$.R.!.~.*.Z U =.-.W.pX6X}  .K `.2X:X9XlX!.{ X.uX@X| | *.NX6X*.| $.-.{.",
"BX6XZ U S }.CXmX$X>.J T.tX{ o.&XBXmXR.Q.6Xk H X.iX8X,X| C A /.7XmXyXV U G `.VXaX:X*.H ].>X..o.wXlX5XR.~.6XA K *.yXVX;X} A K =.uX"
};
